<?xml version="1.0" standalone="no"?>
<!DOCTYPE svg PUBLIC "-//W3C//DTD SVG 1.1//EN" "http://www.w3.org/Graphics/SVG/1.1/DTD/svg11.dtd" >
<svg xmlns="http://www.w3.org/2000/svg" xmlns:xlink="http://www.w3.org/1999/xlink" version="1.1">
<metadata>
Created by FontForge 20170731 at Wed Mar 21 00:57:25 2012
 By Aleksey,,,
Copyright (c) 2011 by Fa'bio Duarte Martins. All rights reserved.
</metadata>
<defs>
<font id="Catorze27Style1-SemiBold" horiz-adv-x="400" >
  <font-face 
    font-family="Catorze27 Style 1"
    font-weight="600"
    font-stretch="normal"
    units-per-em="1000"
    panose-1="0 0 0 0 0 0 0 0 0 0"
    ascent="800"
    descent="-200"
    x-height="700"
    cap-height="800"
    bbox="-55 -250 1007 1035"
    underline-thickness="50"
    underline-position="-150"
    unicode-range="U+0008-222B"
  />
<missing-glyph horiz-adv-x="500" 
d="M450 0h-400v750h400v-750zM100 50h300v650h-300v-650z" />
    <glyph glyph-name=".notdef" horiz-adv-x="500" 
d="M450 0h-400v750h400v-750zM100 50h300v650h-300v-650z" />
    <glyph glyph-name=".null" horiz-adv-x="0" 
 />
    <glyph glyph-name=".null" horiz-adv-x="0" 
 />
    <glyph glyph-name=".null" horiz-adv-x="0" 
 />
    <glyph glyph-name="nonmarkingreturn" horiz-adv-x="333" 
 />
    <glyph glyph-name="CR" unicode="&#x9;" horiz-adv-x="250" 
 />
    <glyph glyph-name="CR" unicode="&#xd;" horiz-adv-x="250" 
 />
    <glyph glyph-name="space" unicode=" " horiz-adv-x="250" 
 />
    <glyph glyph-name="exclam" unicode="!" horiz-adv-x="200" 
d="M54 141q0 19 13.5 32.5t32.5 13.5t32.5 -13.5t13.5 -32.5t-13.5 -32.5t-32.5 -13.5q-20 0 -33 13.5t-13 32.5zM60 475v225h80v-225l-13 -225h-55q-12 175 -12 225z" />
    <glyph glyph-name="quotedbl" unicode="&#x22;" horiz-adv-x="375" 
d="M60 602v98h80v-98q0 -16 -3 -45.5t-7 -50.5l-3 -21h-55q-12 80 -12 117zM235 602v98h80v-98q0 -16 -3.5 -45.5t-6.5 -50.5l-3 -21h-55q-12 80 -12 117z" />
    <glyph glyph-name="numbersign" unicode="#" horiz-adv-x="514" 
d="M37 482v75h98l34 154l82 -23l-29 -131h123l34 154l82 -23l-29 -131h55v-75h-71l-35 -165h81v-75h-97l-33 -154l-85 23l29 131h-121l-33 -154l-85 23l29 131h-54v75h70l36 165h-81zM206 482l-35 -165h121l36 165h-122z" />
    <glyph glyph-name="dollar" unicode="$" horiz-adv-x="390" 
d="M157 25v74q-45 12 -73.5 49.5t-28.5 85.5v46h80v-51q0 -25 17.5 -42.5t42.5 -17.5t42.5 17.5t17.5 42.5v5q0 18 -9 30l-156 211q-35 38 -35 91q0 47 28.5 84.5t73.5 50.5v74h75v-74q45 -13 74 -50.5t29 -84.5v-46h-80v51q0 25 -17.5 42.5t-42.5 17.5t-42.5 -17.5
t-17.5 -42.5v-5q0 -18 10 -33l156 -211q34 -39 34 -88q0 -48 -28.5 -85.5t-73.5 -49.5v-74h-76z" />
    <glyph glyph-name="percent" unicode="%" horiz-adv-x="760" 
d="M60 484v82q0 58 41 99t99 41t99 -41t41 -99v-82q0 -58 -41 -99t-99 -41t-99 41t-41 99zM140 479q0 -25 17.5 -42.5t42.5 -17.5t42.5 17.5t17.5 42.5v92q0 25 -17.5 42.5t-42.5 17.5t-42.5 -17.5t-17.5 -42.5v-92zM420 184v82q0 58 41 99t99 41t99 -41t41 -99v-82
q0 -58 -41 -99t-99 -41t-99 41t-41 99zM500 179q0 -25 17.5 -42.5t42.5 -17.5t42.5 17.5t17.5 42.5v92q0 25 -17.5 42.5t-42.5 17.5t-42.5 -17.5t-17.5 -42.5v-92zM257 44l-71 36l313 626l71 -36z" />
    <glyph glyph-name="ampersand" unicode="&#x26;" 
d="M140 571v-129q0 -24 16 -41t39 -19h180v-75h-35v-73q0 -58 -41 -99t-99 -41t-99 41t-41 99v8q0 62 45 102q-45 42 -45 103v119q0 58 41 99t99 41t99 -41t41 -99v-54h-80v59q0 25 -17.5 42.5t-42.5 17.5t-42.5 -17.5t-17.5 -42.5zM195 307q-23 -2 -39 -19.5t-16 -40.5v-18
q0 -25 17.5 -42.5t42.5 -17.5t42.5 17.5t17.5 42.5v78h-65z" />
    <glyph glyph-name="quotesingle" unicode="'" horiz-adv-x="200" 
d="M60 602v98h80v-98q0 -16 -3 -45.5t-7 -50.5l-3 -21h-55q-12 80 -12 117z" />
    <glyph glyph-name="parenleft" unicode="(" horiz-adv-x="240" 
d="M112 864l73 -28q-6 -16 -14 -48t-22 -145t-14 -243t12.5 -239t24.5 -153l13 -44l-73 -28q-6 18 -15.5 52.5t-25.5 155t-16 256.5t14.5 252t28.5 164z" />
    <glyph glyph-name="parenright" unicode=")" horiz-adv-x="240" 
d="M55 836l72 28q6 -18 16 -52.5t26 -155t16 -256.5t-14.5 -252t-28.5 -164l-15 -48l-72 28q6 16 14 48t22 145t14 243t-12.5 239t-24.5 153z" />
    <glyph glyph-name="asterisk" unicode="*" horiz-adv-x="370" 
d="M150 457l-56 33l19 32l26 33l-42 -6h-37v65h37l42 -6l-26 33l-19 33l56 32l19 -32l16 -39l15 39l19 32l56 -32l-18 -33l-26 -33l41 6h38v-65h-38l-41 6l26 -33l18 -33l-56 -32l-19 33l-15 38l-16 -38z" />
    <glyph glyph-name="plus" unicode="+" horiz-adv-x="510" 
d="M30 340v75h185v185h80v-185h185v-75h-185v-190h-80v190h-185z" />
    <glyph glyph-name="comma" unicode="," horiz-adv-x="200" 
d="M60 180h80v-60q0 -22 -6 -49t-12 -43l-7 -16h-55v168z" />
    <glyph glyph-name="hyphen" unicode="-" horiz-adv-x="310" 
d="M30 340v75h250v-75h-250z" />
    <glyph glyph-name="period" unicode="." horiz-adv-x="215" 
d="M54 141q0 19 13.5 32.5t32.5 13.5t32.5 -13.5t13.5 -32.5t-13.5 -32.5t-32.5 -13.5q-20 0 -33 13.5t-13 32.5z" />
    <glyph glyph-name="slash" unicode="/" horiz-adv-x="581" 
d="M126 -18l-71 36l400 800l71 -36z" />
    <glyph glyph-name="zero" unicode="0" horiz-adv-x="500" 
d="M60 184v432q0 79 55.5 134.5t134.5 55.5t134.5 -55.5t55.5 -134.5v-432q0 -79 -55.5 -134.5t-134.5 -55.5q-80 0 -135 55t-55 135zM140 179q0 -46 32 -78t78 -32q45 0 77.5 32t32.5 78v442q0 45 -32.5 77.5t-77.5 32.5q-46 0 -78 -32.5t-32 -77.5v-442z" />
    <glyph glyph-name="one" unicode="1" horiz-adv-x="315" 
d="M165 0v725h-125v75h205v-800h-80z" />
    <glyph glyph-name="two" unicode="2" horiz-adv-x="500" 
d="M60 0v75l285 481q15 27 15 55v10q0 45 -32 77.5t-78 32.5t-78 -32.5t-32 -77.5v-41h-80v36q0 79 55.5 134.5t134.5 55.5t134.5 -55.5t55.5 -134.5q0 -58 -32 -104l-259 -437h291v-75h-380z" />
    <glyph glyph-name="three" unicode="3" horiz-adv-x="500" 
d="M66 725v75h358v-75l-177 -165h3q79 0 134.5 -55.5t55.5 -134.5v-186q0 -79 -55.5 -134.5t-134.5 -55.5t-134.5 55.5t-55.5 134.5v36h80v-41q0 -46 32 -78t78 -32t78 32t32 78v196q0 45 -32 77.5t-78 32.5h-113v75l178 165h-249z" />
    <glyph glyph-name="four" unicode="4" horiz-adv-x="485" 
d="M60 235v75l285 490h80v-800h-80v235h-285zM153 310h192v330z" />
    <glyph glyph-name="five" unicode="5" horiz-adv-x="500" 
d="M360 179v196q0 45 -32 77.5t-78 32.5h-184v315h358v-75h-278v-165h104q79 0 134.5 -55.5t55.5 -134.5v-186q0 -79 -55.5 -134.5t-134.5 -55.5t-134.5 55.5t-55.5 134.5v36h80v-41q0 -46 32 -78t78 -32t78 32t32 78z" />
    <glyph glyph-name="six" unicode="6" horiz-adv-x="500" 
d="M250 556q79 0 134.5 -55.5t55.5 -134.5v-182q0 -79 -55.5 -134.5t-134.5 -55.5q-80 0 -135 55t-55 135v432q0 79 55.5 134.5t134.5 55.5t134.5 -55.5t55.5 -134.5v-26h-80v31q0 45 -32.5 77.5t-77.5 32.5q-46 0 -78 -32.5t-32 -77.5v-100q49 35 110 35zM140 179
q0 -46 32 -78t78 -32q45 0 77.5 32t32.5 78v192q0 45 -32.5 77.5t-77.5 32.5q-46 0 -78 -32.5t-32 -77.5v-192z" />
    <glyph glyph-name="seven" unicode="7" horiz-adv-x="450" 
d="M20 725v75h360v-75l-178 -725h-82l177 725h-277z" />
    <glyph glyph-name="eight" unicode="8" horiz-adv-x="484" 
d="M242 -6q-79 0 -134.5 55.5t-55.5 134.5q0 81 61 137l75 82l-68 75q-63 55 -63 138q0 79 54 134.5t131 55.5t130.5 -55.5t53.5 -134.5q0 -84 -62 -138l-69 -75l75 -82q61 -55 61 -137q0 -79 -55 -134.5t-134 -55.5zM242 69q46 0 77.5 32t31.5 78v5q0 42 -29 73l-81 88
l-80 -88q-29 -31 -29 -73v-5q0 -46 32 -78t78 -32zM137 616q-1 -39 31 -75l74 -81l74 81q31 35 30 75v5q0 45 -30.5 77.5t-73.5 32.5q-44 0 -74.5 -32.5t-30.5 -77.5v-5z" />
    <glyph glyph-name="nine" unicode="9" horiz-adv-x="500" 
d="M60 434v182q0 79 55.5 134.5t134.5 55.5t134.5 -55.5t55.5 -134.5v-432q0 -79 -55.5 -134.5t-134.5 -55.5t-134.5 55.5t-55.5 134.5v26h80v-31q0 -46 32 -78t78 -32t78 32t32 78v100q-49 -35 -110 -35q-79 0 -134.5 55.5t-55.5 134.5zM360 621q0 46 -32 78t-78 32
t-78 -32t-32 -78v-192q0 -46 32 -78t78 -32q44 0 76 30.5t34 74.5v197z" />
    <glyph glyph-name="colon" unicode=":" horiz-adv-x="215" 
d="M54 141q0 19 13.5 32.5t32.5 13.5t32.5 -13.5t13.5 -32.5t-13.5 -32.5t-32.5 -13.5q-20 0 -33 13.5t-13 32.5zM54 561q0 19 13.5 32.5t32.5 13.5t32.5 -13.5t13.5 -32.5t-13.5 -32.5t-32.5 -13.5q-20 0 -33 13.5t-13 32.5z" />
    <glyph glyph-name="semicolon" unicode=";" horiz-adv-x="215" 
d="M60 180h80v-60q0 -22 -6 -49t-12 -43l-7 -16h-55v168zM54 561q0 19 13.5 32.5t32.5 13.5t32.5 -13.5t13.5 -32.5t-13.5 -32.5t-32.5 -13.5q-20 0 -33 13.5t-13 32.5z" />
    <glyph glyph-name="less" unicode="&#x3c;" horiz-adv-x="356" 
d="M244 706l67 -44l-175 -262l175 -263l-67 -44l-204 307z" />
    <glyph glyph-name="equal" unicode="=" horiz-adv-x="460" 
d="M30 240v75h400v-75h-400zM30 435v75h400v-75h-400z" />
    <glyph glyph-name="greater" unicode="&#x3e;" horiz-adv-x="356" 
d="M40 662l67 44l204 -306l-204 -307l-67 44l175 263z" />
    <glyph glyph-name="question" unicode="?" 
d="M140 520h-80v47q0 58 41 99t99 41t99 -41t41 -99v-30q0 -29 -13.5 -63t-32.5 -55l-38 -63q-16 -25 -16 -56v-5l-10 -45h-60q-10 35 -10 45v5q0 43 25 85t50 80t25 72v35q0 25 -17.5 42.5t-42.5 17.5t-42.5 -17.5t-17.5 -42.5v-52zM154 141q0 19 13.5 32.5t32.5 13.5
t32.5 -13.5t13.5 -32.5t-13.5 -32.5t-32.5 -13.5q-20 0 -33 13.5t-13 32.5z" />
    <glyph glyph-name="at" unicode="@" horiz-adv-x="800" 
d="M260 334v132q0 58 41 99t99 41t99 -41t41 -99v-137q2 -23 19 -39t41 -16q25 0 42.5 17.5t17.5 42.5v137q0 107 -76.5 183.5t-183.5 76.5q-108 0 -184 -76.5t-76 -183.5v-136q0 -108 76 -184t184 -76h175v-75h-175q-142 0 -241 99t-99 241v126q0 141 99 240.5t241 99.5
q141 0 240.5 -99.5t99.5 -240.5v-132q0 -58 -41 -99t-99 -41q-60 0 -100 42q-44 -42 -100 -42q-58 0 -99 41t-41 99zM340 329q0 -25 17.5 -42.5t42.5 -17.5t42 17t18 42v143q0 25 -17.5 42.5t-42.5 17.5t-42.5 -17.5t-17.5 -42.5v-142z" />
    <glyph glyph-name="A" unicode="A" horiz-adv-x="502" 
d="M290 800l173 -800h-81l-29 135h-205l-28 -135h-81l171 800h80zM250 624l-87 -414h174z" />
    <glyph glyph-name="B" unicode="B" horiz-adv-x="500" 
d="M60 0v800h190q79 0 134.5 -55.5t55.5 -134.5v-115q0 -96 -77 -153q77 -56 77 -152q0 -79 -55.5 -134.5t-134.5 -55.5h-190zM140 725v-345h114q44 2 75 33.5t31 76.5v125q0 45 -32.5 77.5t-77.5 32.5h-110zM140 305v-230h110q45 0 77.5 32t32.5 78v10q0 45 -32.5 77.5
t-77.5 32.5h-110z" />
    <glyph glyph-name="C" unicode="C" horiz-adv-x="500" 
d="M140 179q0 -46 32 -78t78 -32q45 0 77.5 32t32.5 78v41h80v-36q0 -79 -55.5 -134.5t-134.5 -55.5q-80 0 -135 55t-55 135v432q0 79 55.5 134.5t134.5 55.5t134.5 -55.5t55.5 -134.5v-36h-80v41q0 45 -32.5 77.5t-77.5 32.5q-46 0 -78 -32.5t-32 -77.5v-442z" />
    <glyph glyph-name="D" unicode="D" horiz-adv-x="500" 
d="M60 0v800h190q79 0 134.5 -55.5t55.5 -134.5v-420q0 -79 -55.5 -134.5t-134.5 -55.5h-190zM140 725v-650h110q45 0 77.5 32t32.5 78v430q0 45 -32.5 77.5t-77.5 32.5h-110z" />
    <glyph glyph-name="E" unicode="E" horiz-adv-x="420" 
d="M60 0v800h310v-75h-230v-413h180v-75h-180v-162h230v-75h-310z" />
    <glyph glyph-name="F" unicode="F" horiz-adv-x="415" 
d="M60 0v800h330v-75h-250v-388h200v-75h-200v-262h-80z" />
    <glyph glyph-name="G" unicode="G" horiz-adv-x="500" 
d="M140 179q0 -46 32 -78t78 -32q45 0 77.5 32t32.5 78v58h-110v75h190v-128q0 -79 -55.5 -134.5t-134.5 -55.5q-80 0 -135 55t-55 135v432q0 79 55.5 134.5t134.5 55.5t134.5 -55.5t55.5 -134.5v-36h-80v41q0 45 -32.5 77.5t-77.5 32.5q-46 0 -78 -32.5t-32 -77.5v-442z
" />
    <glyph glyph-name="H" unicode="H" horiz-adv-x="500" 
d="M360 0v237h-220v-237h-80v800h80v-488h220v488h80v-800h-80z" />
    <glyph glyph-name="I" unicode="I" horiz-adv-x="215" 
d="M67 0v800h80v-800h-80z" />
    <glyph glyph-name="J" unicode="J" horiz-adv-x="200" 
d="M-55 -250v75h55q25 0 42.5 17.5t17.5 42.5v915h80v-910q0 -58 -41 -99t-99 -41h-55z" />
    <glyph glyph-name="K" unicode="K" horiz-adv-x="500" 
d="M60 0v800h80v-395l211 395h90l-176 -329l181 -471h-86l-145 378l-75 -141v-237h-80z" />
    <glyph glyph-name="L" unicode="L" horiz-adv-x="415" 
d="M60 0v800h80v-725h230v-75h-310z" />
    <glyph glyph-name="M" unicode="M" horiz-adv-x="550" 
d="M490 800v-800h-80v643l-95 -161h-80l-95 160v-642h-80v800h80l135 -227l135 227h80z" />
    <glyph glyph-name="N" unicode="N" horiz-adv-x="525" 
d="M385 0l-245 590v-590h-80v800h80l245 -590v590h80v-800h-80z" />
    <glyph glyph-name="O" unicode="O" horiz-adv-x="500" 
d="M60 184v432q0 79 55.5 134.5t134.5 55.5t134.5 -55.5t55.5 -134.5v-432q0 -79 -55.5 -134.5t-134.5 -55.5q-80 0 -135 55t-55 135zM140 179q0 -46 32 -78t78 -32q45 0 77.5 32t32.5 78v442q0 45 -32.5 77.5t-77.5 32.5q-46 0 -78 -32.5t-32 -77.5v-442z" />
    <glyph glyph-name="P" unicode="P" horiz-adv-x="500" 
d="M60 0v800h190q79 0 134.5 -55.5t55.5 -134.5v-183q0 -79 -55.5 -134.5t-134.5 -55.5h-110v-237h-80zM140 725v-413h110q45 0 77.5 32t32.5 78v193q0 45 -32.5 77.5t-77.5 32.5h-110z" />
    <glyph glyph-name="Q" unicode="Q" horiz-adv-x="500" 
d="M210 -150v149q-66 13 -108 64.5t-42 120.5v432q0 79 55.5 134.5t134.5 55.5t134.5 -55.5t55.5 -134.5v-432q0 -68 -42.5 -120t-107.5 -65v-149h-80zM140 179q0 -46 32 -78t78 -32q45 0 77.5 32t32.5 78v442q0 45 -32.5 77.5t-77.5 32.5q-46 0 -78 -32.5t-32 -77.5v-442z
" />
    <glyph glyph-name="R" unicode="R" horiz-adv-x="500" 
d="M140 0h-80v800h190q79 0 134.5 -55.5t55.5 -134.5v-183q0 -96 -77 -153q77 -56 77 -152v-122h-80v127q0 44 -31 76t-75 34h-114v-237zM140 725v-413h114q44 2 75 33.5t31 76.5v193q0 45 -32.5 77.5t-77.5 32.5h-110z" />
    <glyph glyph-name="S" unicode="S" horiz-adv-x="490" 
d="M55 220h80v-41q0 -46 32 -78t78 -32t78 32t32 78v5q0 42 -29 73l-203 221q-62 54 -62 138q0 79 53.5 134.5t130.5 55.5q76 0 130 -55.5t54 -134.5v-36h-80v41q0 45 -30.5 77.5t-73.5 32.5q-44 0 -74 -32.5t-30 -77.5v-5q-1 -40 30 -75l203 -220q61 -56 61 -137
q0 -79 -55.5 -134.5t-134.5 -55.5t-134.5 55.5t-55.5 134.5v36z" />
    <glyph glyph-name="T" unicode="T" horiz-adv-x="410" 
d="M30 725v75h350v-75h-136v-725h-80v725h-134z" />
    <glyph glyph-name="U" unicode="U" horiz-adv-x="500" 
d="M140 179q0 -46 32 -78t78 -32q45 0 77.5 32t32.5 78v621h80v-616q0 -79 -55.5 -134.5t-134.5 -55.5q-80 0 -135 55t-55 135v616h80v-621z" />
    <glyph glyph-name="V" unicode="V" horiz-adv-x="482" 
d="M201 0l-162 800h81l121 -590l121 590h81l-162 -800h-80z" />
    <glyph glyph-name="W" unicode="W" horiz-adv-x="550" 
d="M60 0v800h80v-643l95 160h80l95 -161v644h80v-800h-80l-135 227l-135 -227h-80z" />
    <glyph glyph-name="X" unicode="X" horiz-adv-x="477" 
d="M428 800l-145 -398l151 -402h-85l-113 299l-108 -299h-86l151 412l-145 388h86l106 -284l103 284h85z" />
    <glyph glyph-name="Y" unicode="Y" horiz-adv-x="470" 
d="M195 0v237l-156 563h83l113 -421l113 421h83l-156 -563v-237h-80z" />
    <glyph glyph-name="Z" unicode="Z" horiz-adv-x="490" 
d="M66 725v75h358v-75l-277 -650h283v-75h-370v75l277 650h-271z" />
    <glyph glyph-name="bracketleft" unicode="[" horiz-adv-x="325" 
d="M140 775v-750h125v-75h-205v900h205v-75h-125z" />
    <glyph glyph-name="backslash" unicode="\" horiz-adv-x="581" 
d="M526 18l-71 -36l-400 800l71 36z" />
    <glyph glyph-name="bracketright" unicode="]" horiz-adv-x="325" 
d="M185 25v750h-125v75h205v-900h-205v75h125z" />
    <glyph glyph-name="underscore" unicode="_" horiz-adv-x="500" 
d="M30 -70v70h440v-70h-440z" />
    <glyph glyph-name="grave" unicode="`" horiz-adv-x="250" 
d="M221 825l-19 -57l-172 52l22 67z" />
    <glyph glyph-name="a" unicode="a" horiz-adv-x="391" 
d="M235 700l117 -600h-75l-22 115h-119l-22 -115h-75l116 600h80zM195 527l-45 -237h90z" />
    <glyph glyph-name="b" unicode="b" 
d="M60 100v600h140q58 0 99 -41t41 -99v-115q0 -60 -45 -103q45 -42 45 -102q0 -58 -41 -99t-99 -41h-140zM140 625v-245h65q23 2 39 19t16 41v125q0 25 -17.5 42.5t-42.5 17.5h-60zM140 305v-130h60q25 0 42.5 17.5t17.5 42.5v10q0 25 -17.5 42.5t-42.5 17.5h-60z" />
    <glyph glyph-name="c" unicode="c" 
d="M140 229q0 -25 17.5 -42.5t42.5 -17.5t42.5 17.5t17.5 42.5v58h80v-53q0 -58 -41 -99t-99 -41t-99 41t-41 99v332q0 58 41 99t99 41t99 -41t41 -99v-54h-80v59q0 25 -17.5 42.5t-42.5 17.5t-42.5 -17.5t-17.5 -42.5v-342z" />
    <glyph glyph-name="d" unicode="d" 
d="M60 100v600h140q58 0 99 -41t41 -99v-320q0 -58 -41 -99t-99 -41h-140zM140 625v-450h60q25 0 42.5 17.5t17.5 42.5v330q0 25 -17.5 42.5t-42.5 17.5h-60z" />
    <glyph glyph-name="e" unicode="e" horiz-adv-x="350" 
d="M60 100v600h240v-75h-160v-268h135v-75h-135v-107h160v-75h-240z" />
    <glyph glyph-name="f" unicode="f" horiz-adv-x="325" 
d="M60 100v600h240v-75h-160v-268h135v-75h-135v-182h-80z" />
    <glyph glyph-name="g" unicode="g" 
d="M140 229q0 -25 17.5 -42.5t42.5 -17.5t42.5 17.5t17.5 42.5v56h-60v75h140v-126q0 -58 -41 -99t-99 -41t-99 41t-41 99v332q0 58 41 99t99 41t99 -41t41 -99v-54h-80v59q0 25 -17.5 42.5t-42.5 17.5t-42.5 -17.5t-17.5 -42.5v-342z" />
    <glyph glyph-name="h" unicode="h" 
d="M260 100v182h-120v-182h-80v600h80v-343h120v343h80v-600h-80z" />
    <glyph glyph-name="i" unicode="i" horiz-adv-x="215" 
d="M67 100v600h80v-600h-80z" />
    <glyph glyph-name="j" unicode="j" horiz-adv-x="200" 
d="M-30 -56v75h30q25 0 42.5 17.5t17.5 42.5v621h80v-616q0 -58 -41 -99t-99 -41h-30z" />
    <glyph glyph-name="k" unicode="k" 
d="M60 100v600h80v-243l118 243h88l-120 -247l120 -353h-84l-86 251l-36 -75v-176h-80z" />
    <glyph glyph-name="l" unicode="l" horiz-adv-x="315" 
d="M60 100v600h80v-525h135v-75h-215z" />
    <glyph glyph-name="m" unicode="m" horiz-adv-x="450" 
d="M310 100v429l-50 -94h-70l-50 93v-428h-80v600h80l85 -168l85 168h80v-600h-80z" />
    <glyph glyph-name="n" unicode="n" horiz-adv-x="425" 
d="M285 100l-145 388v-388h-80v600h80l145 -391v391h80v-600h-80z" />
    <glyph glyph-name="o" unicode="o" 
d="M60 234v332q0 58 41 99t99 41t99 -41t41 -99v-332q0 -58 -41 -99t-99 -41t-99 41t-41 99zM140 229q0 -25 17.5 -42.5t42.5 -17.5t42.5 17.5t17.5 42.5v342q0 25 -17.5 42.5t-42.5 17.5t-42.5 -17.5t-17.5 -42.5v-342z" />
    <glyph glyph-name="p" unicode="p" 
d="M60 100v600h140q58 0 99 -41t41 -99v-138q0 -58 -41 -99t-99 -41h-60v-182h-80zM140 625v-268h60q25 0 42.5 17.5t17.5 42.5v148q0 25 -17.5 42.5t-42.5 17.5h-60z" />
    <glyph glyph-name="q" unicode="q" 
d="M160 0v100q-44 13 -72 50t-28 84v332q0 58 41 99t99 41t99 -41t41 -99v-332q0 -47 -28.5 -84t-71.5 -50v-100h-80zM140 229q0 -25 17.5 -42.5t42.5 -17.5t42.5 17.5t17.5 42.5v342q0 25 -17.5 42.5t-42.5 17.5t-42.5 -17.5t-17.5 -42.5v-342z" />
    <glyph glyph-name="r" unicode="r" 
d="M60 100v600h140q58 0 99 -41t41 -99v-138q0 -60 -45 -103q45 -42 45 -102v-117h-80v122q0 25 -17.5 42.5t-42.5 17.5h-60v-182h-80zM140 625v-268h60q25 0 42.5 17.5t17.5 42.5v148q0 25 -17.5 42.5t-42.5 17.5h-60z" />
    <glyph glyph-name="s" unicode="s" horiz-adv-x="390" 
d="M55 280h80v-51q0 -25 17.5 -42.5t42.5 -17.5t42.5 17.5t17.5 42.5v5q0 18 -9 30l-156 211q-35 38 -35 91q0 58 41 99t99 41t99 -41t41 -99v-46h-80v51q0 25 -17.5 42.5t-42.5 17.5t-42.5 -17.5t-17.5 -42.5v-5q0 -18 10 -33l156 -211q34 -39 34 -88q0 -58 -41 -99
t-99 -41t-99 41t-41 99v46z" />
    <glyph glyph-name="t" unicode="t" horiz-adv-x="310" 
d="M30 625v75h250v-75h-85v-525h-80v525h-85z" />
    <glyph glyph-name="u" unicode="u" 
d="M140 229q0 -25 17.5 -42.5t42.5 -17.5t42.5 17.5t17.5 42.5v471h80v-466q0 -58 -41 -99t-99 -41t-99 41t-41 99v466h80v-471z" />
    <glyph glyph-name="v" unicode="v" horiz-adv-x="391" 
d="M155 100l-116 600h75l81 -427l82 427h75l-117 -600h-80z" />
    <glyph glyph-name="w" unicode="w" horiz-adv-x="450" 
d="M140 700v-429l50 94h70l50 -95v430h80v-600h-80l-85 167l-85 -167h-80v600h80z" />
    <glyph glyph-name="x" unicode="x" horiz-adv-x="391" 
d="M338 700l-99 -306l99 -294h-84l-60 184l-57 -184h-85l99 304l-99 296h84l61 -185l57 185h84z" />
    <glyph glyph-name="y" unicode="y" horiz-adv-x="367" 
d="M143 100v182l-111 418h75l76 -291l76 291h75l-111 -418v-182h-80z" />
    <glyph glyph-name="z" unicode="z" 
d="M66 625v75h268v-75l-192 -450h198v-75h-280v75l191 450h-185z" />
    <glyph glyph-name="braceleft" unicode="{" horiz-adv-x="384" 
d="M324 850v-75h-123v-300q0 -43 -29 -72l-4 -4l4 -3q12 -12 20.5 -32.5t8.5 -38.5v-300h123v-75h-138q-27 0 -46 18.5t-19 46.5v310q0 8 -6 14l-60 61l60 60q6 8 6 15v310q0 27 18.5 46t46.5 19h138z" />
    <glyph glyph-name="bar" unicode="|" horiz-adv-x="215" 
d="M67 -50v900h80v-900h-80z" />
    <glyph glyph-name="braceright" unicode="}" horiz-adv-x="384" 
d="M60 -50v75h123l-1 300q0 17 8.5 38t20.5 33l3 3l-3 4q-29 31 -29 72v300h-122v75h137q28 0 46.5 -19t18.5 -46v-310q0 -8 7 -15l60 -60l-60 -61q-7 -5 -7 -14l1 -310q0 -28 -19 -46.5t-46 -18.5h-138z" />
    <glyph glyph-name="nbspace" unicode="&#xa0;" horiz-adv-x="250" 
 />
    <glyph glyph-name="exclamdown" unicode="&#xa1;" horiz-adv-x="200" 
d="M54 659q0 19 13.5 32.5t32.5 13.5t32.5 -13.5t13.5 -32.5t-13.5 -32.5t-32.5 -13.5q-20 0 -33 13.5t-13 32.5zM60 100v225l12 225h55q13 -175 13 -225v-225h-80z" />
    <glyph glyph-name="cent" unicode="&#xa2;" 
d="M162 25v74q-45 12 -73.5 49.5t-28.5 85.5v332q0 47 28.5 84.5t73.5 50.5v74h75v-74q45 -13 74 -50.5t29 -84.5v-54h-80v59q0 25 -17.5 42.5t-42.5 17.5t-42.5 -17.5t-17.5 -42.5v-342q0 -25 17.5 -42.5t42.5 -17.5t42.5 17.5t17.5 42.5v58h80v-53q0 -48 -28.5 -85.5
t-73.5 -49.5v-74h-76z" />
    <glyph glyph-name="sterling" unicode="&#xa3;" horiz-adv-x="401" 
d="M20 100v75h60v391q0 58 41 99t99 41t99 -41t41 -99v-54h-80v59q0 25 -17.5 42.5t-42.5 17.5t-42.5 -17.5t-17.5 -42.5v-164h135v-75h-135v-157h206v-75h-346z" />
    <glyph glyph-name="currency" unicode="&#xa4;" horiz-adv-x="500" 
d="M440 108h-80q0 35 -24 62t-58 28h-57q-33 -1 -57 -28t-24 -62h-80q0 78 60 127q-60 50 -60 128v74q0 78 60 127q-60 50 -60 128h80q0 -36 25 -63t60 -27h53q34 1 58 28t24 62h80q0 -77 -61 -128q61 -49 61 -127v-74q0 -77 -61 -128q61 -49 61 -127zM140 442v-84
q0 -35 25 -60t60 -25h50q35 0 60 25t25 60v84q0 35 -25 60t-60 25h-50q-35 0 -60 -25t-25 -60z" />
    <glyph glyph-name="yen" unicode="&#xa5;" horiz-adv-x="387" 
d="M36 310v75h89l-83 315h75l76 -291l76 291h75l-84 -315h90v-75h-110l-7 -28v-50h117v-75h-117v-57h-80v57h-117v75h117v50l-8 28h-109z" />
    <glyph glyph-name="brokenbar" unicode="&#xa6;" horiz-adv-x="215" 
d="M67 -50v412h80v-412h-80zM147 850v-413h-80v413h80z" />
    <glyph glyph-name="section" unicode="&#xa7;" horiz-adv-x="415" 
d="M55 180h80v-51q0 -25 17.5 -42.5t42.5 -17.5t42.5 17.5t17.5 42.5v5q0 18 -9 30l-156 211q-35 38 -35 91q0 71 56 112q-31 37 -31 88q0 58 41 99t99 41t99 -41t41 -99v-46h-80v51q0 25 -17.5 42.5t-42.5 17.5t-42.5 -17.5t-17.5 -42.5v-5q0 -18 10 -33l156 -211
q34 -39 34 -88q0 -70 -58 -113q33 -40 33 -87q0 -58 -41 -99t-99 -41t-99 41t-41 99v46zM135 466q0 -18 10 -33l112 -152q23 18 23 48v5q0 18 -9 30l-114 153q-22 -19 -22 -46v-5z" />
    <glyph glyph-name="dieresis" unicode="&#xa8;" 
d="M84 825q0 17 12 29t29 12t29 -12t12 -29t-12 -29t-29 -12t-29 12t-12 29zM234 825q0 17 12 29t29 12t29 -12t12 -29t-12 -29t-29 -12t-29 12t-12 29z" />
    <glyph glyph-name="copyright" unicode="&#xa9;" horiz-adv-x="800" 
d="M60 334v132q0 141 99 240.5t241 99.5q141 0 240.5 -99.5t99.5 -240.5v-132q0 -142 -99.5 -241t-240.5 -99q-142 0 -241 99t-99 241zM140 329q0 -108 76 -184t184 -76q107 0 183.5 76t76.5 184v142q0 107 -76.5 183.5t-183.5 76.5q-108 0 -184 -76.5t-76 -183.5v-142z
M340 329q0 -25 17.5 -42.5t42.5 -17.5t42.5 17.5t17.5 42.5v21h80v-16q0 -58 -41 -99t-99 -41t-99 41t-41 99v132q0 58 41 99t99 41t99 -41t41 -99v-16h-80v21q0 25 -17.5 42.5t-42.5 17.5t-42.5 -17.5t-17.5 -42.5v-142z" />
    <glyph glyph-name="ordfeminine" unicode="&#xaa;" 
d="M260 435v4q-29 -13 -60 -13q-58 0 -99 41t-41 99t41 99t99 41q32 0 60 -14v8h80v-265h-80zM140 561q0 -25 17.5 -42.5t42.5 -17.5q23 0 40.5 16t19.5 39v15q0 25 -17.5 42.5t-42.5 17.5t-42.5 -17.5t-17.5 -42.5v-10z" />
    <glyph glyph-name="guillemotleft" unicode="&#xab;" horiz-adv-x="576" 
d="M244 706l67 -44l-175 -262l175 -263l-67 -44l-204 307zM464 706l67 -44l-175 -262l175 -263l-67 -44l-204 307z" />
    <glyph glyph-name="logicalnot" unicode="&#xac;" horiz-adv-x="490" 
d="M30 340v75h400v-215h-80v140h-320z" />
    <glyph glyph-name="registered" unicode="&#xae;" horiz-adv-x="800" 
d="M60 334v132q0 141 99 240.5t241 99.5q141 0 240.5 -99.5t99.5 -240.5v-132q0 -142 -99.5 -241t-240.5 -99q-142 0 -241 99t-99 241zM140 329q0 -108 76 -184t184 -76q107 0 183.5 76t76.5 184v142q0 107 -76.5 183.5t-183.5 76.5q-108 0 -184 -76.5t-76 -183.5v-142z
M260 200v400h140q58 0 99 -41t41 -99v-38q0 -60 -45 -103q45 -42 45 -102v-17h-80v22q0 25 -17.5 42.5t-42.5 17.5h-60v-82h-80zM340 525v-168h65q23 2 39 19t16 41v48q0 25 -17.5 42.5t-42.5 17.5h-60z" />
    <glyph glyph-name="macron" unicode="&#xaf;" horiz-adv-x="200" 
d="M-18 790v65h235v-65h-235z" />
    <glyph glyph-name="degree" unicode="&#xb0;" 
d="M60 566q0 58 41 99t99 41t99 -41t41 -99t-41 -99t-99 -41t-99 41t-41 99zM140 561q0 -25 17.5 -42.5t42.5 -17.5t42.5 17.5t17.5 42.5v10q0 25 -17.5 42.5t-42.5 17.5t-42.5 -17.5t-17.5 -42.5v-10z" />
    <glyph glyph-name="plusminus" unicode="&#xb1;" horiz-adv-x="510" 
d="M42 440v75h173v172h80v-172h172v-75h-172v-178h-80v178h-173zM42 90v75h425v-75h-425z" />
    <glyph glyph-name="acute" unicode="&#xb4;" horiz-adv-x="250" 
d="M49 768l-19 57l169 62l22 -67z" />
    <glyph glyph-name="mu" unicode="&#xb5;" horiz-adv-x="450" 
d="M310 100v429l-50 -94h-70l-50 93v-428h-80v600h80l85 -168l85 168h80v-600h-80z" />
    <glyph glyph-name="paragraph" unicode="&#xb6;" horiz-adv-x="430" 
d="M400 700v-75h-60v-400q0 -58 -41 -99t-99 -41h-30v75h30q25 0 42.5 17.5t17.5 42.5v62h-60q-58 0 -99 41t-41 99v138q0 58 41 99t99 41h200z" />
    <glyph glyph-name="periodcentered" unicode="&#xb7;" horiz-adv-x="215" 
d="M54 300q0 19 13.5 32.5t32.5 13.5t32.5 -13.5t13.5 -32.5t-13.5 -32.5t-32.5 -13.5q-20 0 -33 13t-13 33z" />
    <glyph glyph-name="cedilla" unicode="&#xb8;" horiz-adv-x="525" 
d="M215 0h55l-15 -29h29q28 0 43.5 -20t15.5 -51q0 -34 -29.5 -61t-83.5 -27q-28 0 -52 12t-34 24l-10 12l17 29q35 -37 79 -37q22 0 33.5 14.5t11.5 33.5q0 14 -9.5 24.5t-26.5 10.5h-61z" />
    <glyph glyph-name="ordmasculine" unicode="&#xba;" 
d="M60 566q0 58 41 99t99 41t99 -41t41 -99t-41 -99t-99 -41t-99 41t-41 99zM140 561q0 -25 17.5 -42.5t42.5 -17.5t42.5 17.5t17.5 42.5v10q0 25 -17.5 42.5t-42.5 17.5t-42.5 -17.5t-17.5 -42.5v-10z" />
    <glyph glyph-name="guillemotright" unicode="&#xbb;" horiz-adv-x="576" 
d="M260 662l67 44l204 -306l-204 -307l-67 44l175 263zM40 662l67 44l204 -306l-204 -307l-67 44l175 263z" />
    <glyph glyph-name="questiondown" unicode="&#xbf;" 
d="M260 282h80v-47q0 -58 -41 -99t-99 -41t-99 41t-41 99v30q0 28 13 62.5t32 55.5l38 63q17 30 17 56v5l10 45h60q10 -35 10 -45v-5q0 -29 -13 -63.5t-32 -54.5l-39 -62q-16 -27 -16 -57v-35q0 -25 17.5 -42.5t42.5 -17.5t42.5 17.5t17.5 42.5v52zM246 661
q0 -19 -13.5 -32.5t-32.5 -13.5t-32.5 13.5t-13.5 32.5t13 32.5t33 13.5q19 0 32.5 -13.5t13.5 -32.5z" />
    <glyph glyph-name="Agrave" unicode="&#xc0;" horiz-adv-x="502" 
d="M290 800l173 -800h-81l-29 135h-205l-28 -135h-81l171 800h80zM250 624l-87 -414h174zM302 925l-19 -57l-172 52l52 67z" />
    <glyph glyph-name="Aacute" unicode="&#xc1;" horiz-adv-x="502" 
d="M290 800l173 -800h-81l-29 135h-205l-28 -135h-81l171 800h80zM250 624l-87 -414h174zM218 868l-19 57l169 62l22 -67z" />
    <glyph glyph-name="Acircumflex" unicode="&#xc2;" horiz-adv-x="502" 
d="M290 800l173 -800h-81l-29 135h-205l-28 -135h-81l171 800h80zM250 624l-87 -414h174zM363 924l-47 -52l-66 64l-67 -64l-47 52l96 87h36z" />
    <glyph glyph-name="Atilde" unicode="&#xc3;" horiz-adv-x="502" 
d="M290 800l173 -800h-81l-29 135h-205l-28 -135h-81l171 800h80zM250 624l-87 -414h174zM146 889l-9 -5l-27 56l8 5q40 22 88 22q17 0 46.5 -12t45.5 -12q14 0 28 3t21 6t7 4l8 4l27 -56l-8 -4q-39 -22 -85 -22q-18 0 -49 12t-46 12q-14 0 -27.5 -3t-20.5 -6t-7 -4z" />
    <glyph glyph-name="Adieresis" unicode="&#xc4;" horiz-adv-x="502" 
d="M290 800l173 -800h-81l-29 135h-205l-28 -135h-81l171 800h80zM250 624l-87 -414h174zM125 925q0 17 12 29t29 12q16 0 28.5 -12t12.5 -29t-12 -29t-29 -12t-29 12t-12 29zM295 925q0 17 12 29t29 12q16 0 28.5 -12t12.5 -29t-12 -29t-29 -12t-29 12t-12 29z" />
    <glyph glyph-name="Aring" unicode="&#xc5;" horiz-adv-x="502" 
d="M290 800l173 -800h-81l-29 135h-205l-28 -135h-81l171 800h80zM141 925q0 45 32 77.5t78 32.5q45 0 77.5 -32.5t32.5 -77.5q0 -46 -32.5 -78t-77.5 -32q-46 0 -78 32t-32 78zM250 624l-87 -414h174zM206 925q0 -19 13 -32t32 -13q18 0 31.5 13t13.5 32q0 18 -13 31.5
t-32 13.5t-32 -13.5t-13 -31.5z" />
    <glyph glyph-name="AE" unicode="&#xc6;" horiz-adv-x="685" 
d="M325 0v135h-178l-37 -135h-81l221 800h385v-75h-230v-413h180v-75h-180v-162h230v-75h-310zM309 725l-142 -515h158v515h-16z" />
    <glyph glyph-name="Ccedilla" unicode="&#xc7;" horiz-adv-x="500" 
d="M140 179q0 -46 32 -78t78 -32q45 0 77.5 32t32.5 78v41h80v-36q0 -75 -50 -129t-123 -60l-12 -24h29q28 0 43.5 -20t15.5 -51q0 -34 -29.5 -61t-83.5 -27q-28 0 -52 12t-34 24l-10 12l17 29q35 -37 79 -37q22 0 33.5 14.5t11.5 33.5q0 14 -9.5 24.5t-26.5 10.5h-61l35 63
q-67 12 -110 64t-43 122v432q0 79 55.5 134.5t134.5 55.5t134.5 -55.5t55.5 -134.5v-36h-80v41q0 45 -32.5 77.5t-77.5 32.5q-46 0 -78 -32.5t-32 -77.5v-442z" />
    <glyph glyph-name="Egrave" unicode="&#xc8;" horiz-adv-x="420" 
d="M60 0v800h310v-75h-230v-413h180v-75h-180v-162h230v-75h-310zM310 925l-19 -57l-172 52l22 67z" />
    <glyph glyph-name="Eacute" unicode="&#xc9;" horiz-adv-x="420" 
d="M60 0v800h310v-75h-230v-413h180v-75h-180v-162h230v-75h-310zM133 868l-19 57l169 62l22 -67z" />
    <glyph glyph-name="Ecircumflex" unicode="&#xca;" horiz-adv-x="420" 
d="M60 0v800h310v-75h-230v-413h180v-75h-180v-162h230v-75h-310zM330 924l-47 -52l-66 64l-67 -64l-47 52l96 87h36z" />
    <glyph glyph-name="Edieresis" unicode="&#xcb;" horiz-adv-x="420" 
d="M60 0v800h310v-75h-230v-413h180v-75h-180v-162h230v-75h-310zM89 925q0 17 12 29t29 12q16 0 28.5 -12t12.5 -29t-12 -29t-29 -12t-29 12t-12 29zM259 925q0 17 12 29t29 12q16 0 28.5 -12t12.5 -29t-12 -29t-29 -12t-29 12t-12 29z" />
    <glyph glyph-name="Igrave" unicode="&#xcc;" horiz-adv-x="215" 
d="M67 0v800h80v-800h-80zM155 925l-19 -57l-172 52l22 67z" />
    <glyph glyph-name="Iacute" unicode="&#xcd;" horiz-adv-x="215" 
d="M78 868l-19 57l169 62l22 -67zM67 0v800h80v-800h-80z" />
    <glyph glyph-name="Icircumflex" unicode="&#xce;" horiz-adv-x="215" 
d="M67 0v800h80v-800h-80zM220 924l-47 -52l-66 64l-67 -64l-47 52l96 87h36z" />
    <glyph glyph-name="Idieresis" unicode="&#xcf;" horiz-adv-x="215" 
d="M67 0v800h80v-800h-80zM-19 925q0 17 12 29t29 12q16 0 28.5 -12t12.5 -29t-12 -29t-29 -12t-29 12t-12 29zM151 925q0 17 12 29t29 12q16 0 28.5 -12t12.5 -29t-12 -29t-29 -12t-29 12t-12 29z" />
    <glyph glyph-name="Eth" unicode="&#xd0;" horiz-adv-x="500" 
d="M-13 237v75h73v488h190q79 0 134.5 -55.5t55.5 -134.5v-420q0 -79 -55.5 -134.5t-134.5 -55.5h-190v237h-73zM140 725v-413h72v-75h-72v-162h110q45 0 77.5 32t32.5 78v430q0 45 -32.5 77.5t-77.5 32.5h-110z" />
    <glyph glyph-name="Ntilde" unicode="&#xd1;" horiz-adv-x="525" 
d="M385 0l-245 590v-590h-80v800h80l245 -590v590h80v-800h-80zM158 889l-9 -5l-27 56l8 5q40 22 88 22q17 0 46.5 -12t45.5 -12q14 0 28 3t21 6t7 4l8 4l27 -56l-8 -4q-39 -22 -85 -22q-18 0 -49 12t-46 12q-14 0 -27.5 -3t-20.5 -6t-7 -4z" />
    <glyph glyph-name="Ograve" unicode="&#xd2;" horiz-adv-x="500" 
d="M60 184v432q0 79 55.5 134.5t134.5 55.5t134.5 -55.5t55.5 -134.5v-432q0 -79 -55.5 -134.5t-134.5 -55.5q-80 0 -135 55t-55 135zM140 179q0 -46 32 -78t78 -32q45 0 77.5 32t32.5 78v442q0 45 -32.5 77.5t-77.5 32.5q-46 0 -78 -32.5t-32 -77.5v-442zM321 925l-19 -57
l-172 52l22 67z" />
    <glyph glyph-name="Oacute" unicode="&#xd3;" horiz-adv-x="500" 
d="M198 868l-19 57l169 62l22 -67zM60 184v432q0 79 55.5 134.5t134.5 55.5t134.5 -55.5t55.5 -134.5v-432q0 -79 -55.5 -134.5t-134.5 -55.5q-80 0 -135 55t-55 135zM140 179q0 -46 32 -78t78 -32q45 0 77.5 32t32.5 78v442q0 45 -32.5 77.5t-77.5 32.5q-46 0 -78 -32.5
t-32 -77.5v-442z" />
    <glyph glyph-name="Ocircumflex" unicode="&#xd4;" horiz-adv-x="500" 
d="M60 184v432q0 79 55.5 134.5t134.5 55.5t134.5 -55.5t55.5 -134.5v-432q0 -79 -55.5 -134.5t-134.5 -55.5q-80 0 -135 55t-55 135zM140 179q0 -46 32 -78t78 -32q45 0 77.5 32t32.5 78v442q0 45 -32.5 77.5t-77.5 32.5q-46 0 -78 -32.5t-32 -77.5v-442zM363 924l-47 -52
l-66 64l-67 -64l-47 52l96 87h36z" />
    <glyph glyph-name="Otilde" unicode="&#xd5;" horiz-adv-x="500" 
d="M60 184v432q0 79 55.5 134.5t134.5 55.5t134.5 -55.5t55.5 -134.5v-432q0 -79 -55.5 -134.5t-134.5 -55.5q-80 0 -135 55t-55 135zM140 179q-1 -46 31.5 -78t78.5 -32q45 0 77.5 32t32.5 78v442q0 45 -32.5 77.5t-77.5 32.5q-46 0 -78 -32.5t-32 -77.5v-442zM146 889
l-9 -5l-27 56l8 5q40 22 88 22q17 0 46.5 -12t45.5 -12q14 0 28 3t21 6t7 4l8 4l27 -56l-8 -4q-39 -22 -85 -22q-18 0 -49 12t-46 12q-14 0 -27.5 -3t-20.5 -6t-7 -4z" />
    <glyph glyph-name="Odieresis" unicode="&#xd6;" horiz-adv-x="500" 
d="M60 184v432q0 79 55.5 134.5t134.5 55.5t134.5 -55.5t55.5 -134.5v-432q0 -79 -55.5 -134.5t-134.5 -55.5q-80 0 -135 55t-55 135zM140 179q0 -46 32 -78t78 -32q45 0 77.5 32t32.5 78v442q0 45 -32.5 77.5t-77.5 32.5q-46 0 -78 -32.5t-32 -77.5v-442zM124 925
q0 17 12 29t29 12t29 -12t12 -29t-12 -29t-29 -12t-29 12t-12 29zM294 925q0 17 12 29t29 12t29 -12t12 -29t-12 -29t-29 -12t-29 12t-12 29z" />
    <glyph glyph-name="multiply" unicode="&#xd7;" horiz-adv-x="540" 
d="M100 123l-60 53l176 198l-176 199l60 53l170 -192l170 192l60 -53l-177 -199l177 -198l-60 -53l-170 191z" />
    <glyph glyph-name="Oslash" unicode="&#xd8;" horiz-adv-x="500" 
d="M60 184v432q0 79 55.5 134.5t134.5 55.5q61 0 112 -37l18 45l65 -28l-31 -75q26 -43 26 -95v-432q0 -79 -55.5 -134.5t-134.5 -55.5q-63 0 -112 36l-18 -44l-65 28l30 74q-25 44 -25 96zM250 69q45 0 77.5 32t32.5 78v397l-192 -471q33 -36 82 -36zM140 621v-397l191 470
q-32 37 -81 37q-46 0 -78 -32.5t-32 -77.5z" />
    <glyph glyph-name="Ugrave" unicode="&#xd9;" horiz-adv-x="500" 
d="M140 179q0 -46 32 -78t78 -32q45 0 77.5 32t32.5 78v621h80v-616q0 -79 -55.5 -134.5t-134.5 -55.5q-80 0 -135 55t-55 135v616h80v-621zM320 925l-19 -57l-172 52l22 67z" />
    <glyph glyph-name="Uacute" unicode="&#xda;" horiz-adv-x="500" 
d="M198 868l-19 57l169 62l22 -67zM140 179q0 -46 32 -78t78 -32q45 0 77.5 32t32.5 78v621h80v-616q0 -79 -55.5 -134.5t-134.5 -55.5q-80 0 -135 55t-55 135v616h80v-621z" />
    <glyph glyph-name="Ucircumflex" unicode="&#xdb;" horiz-adv-x="500" 
d="M140 179q0 -46 32 -78t78 -32q45 0 77.5 32t32.5 78v621h80v-616q0 -79 -55.5 -134.5t-134.5 -55.5q-80 0 -135 55t-55 135v616h80v-621zM363 924l-47 -52l-66 64l-67 -64l-47 52l96 87h36z" />
    <glyph glyph-name="Udieresis" unicode="&#xdc;" horiz-adv-x="500" 
d="M140 179q0 -46 32 -78t78 -32q45 0 77.5 32t32.5 78v621h80v-616q0 -79 -55.5 -134.5t-134.5 -55.5q-80 0 -135 55t-55 135v616h80v-621zM124 925q0 17 12 29t29 12t29 -12t12 -29t-12 -29t-29 -12t-29 12t-12 29zM294 925q0 17 12 29t29 12t29 -12t12 -29t-12 -29
t-29 -12t-29 12t-12 29z" />
    <glyph glyph-name="Yacute" unicode="&#xdd;" horiz-adv-x="470" 
d="M195 0v237l-156 563h83l113 -421l113 421h83l-156 -563v-237h-80zM197 868l-19 57l169 62l22 -67z" />
    <glyph glyph-name="Thorn" unicode="&#xde;" horiz-adv-x="500" 
d="M60 0v800h80v-125h110q79 0 134.5 -55.5t55.5 -134.5v-170q0 -79 -55.5 -134.5t-134.5 -55.5h-110v-125h-80zM140 600v-400h110q45 0 77.5 32t32.5 78v180q0 46 -32.5 78t-77.5 32h-110z" />
    <glyph glyph-name="agrave" unicode="&#xe0;" horiz-adv-x="391" 
d="M235 700l117 -600h-75l-22 115h-119l-22 -115h-75l116 600h80zM256 825l-19 -57l-172 52l22 67zM195 527l-45 -237h87z" />
    <glyph glyph-name="aacute" unicode="&#xe1;" horiz-adv-x="391" 
d="M235 700l117 -600h-75l-22 115h-119l-22 -115h-75l116 600h80zM153 768l-19 57l169 62l49 -67zM195 527l-45 -237h90z" />
    <glyph glyph-name="acircumflex" unicode="&#xe2;" horiz-adv-x="391" 
d="M235 700l117 -600h-75l-22 115h-119l-22 -115h-75l116 600h80zM308 824l-47 -52l-66 64l-67 -64l-47 52l96 87h36zM195 527l-45 -237h111z" />
    <glyph glyph-name="atilde" unicode="&#xe3;" horiz-adv-x="391" 
d="M235 700l117 -600h-75l-22 115h-119l-22 -115h-75l116 600h80zM91 789l-9 -5l-27 56l8 5q40 22 88 22q17 0 46.5 -12t45.5 -12q14 0 28 3t21 6t7 4l8 4l27 -56l-8 -4q-39 -22 -85 -22q-19 0 -49 12t-46 12q-14 0 -27.5 -3t-20.5 -6t-7 -4zM195 527l-45 -237h90z" />
    <glyph glyph-name="adieresis" unicode="&#xe4;" horiz-adv-x="391" 
d="M235 700l117 -600h-75l-22 115h-119l-22 -115h-75l116 600h80zM195 527l-45 -237h90zM79 825q0 17 12 29t29 12q16 0 28.5 -12t12.5 -29t-12 -29t-29 -12t-29 12t-12 29zM229 825q0 17 12 29t29 12q16 0 28.5 -12t12.5 -29t-12 -29t-29 -12t-29 12t-12 29z" />
    <glyph glyph-name="aring" unicode="&#xe5;" horiz-adv-x="391" 
d="M235 700l117 -600h-75l-22 115h-119l-22 -115h-75l116 600h80zM85 825q0 45 32 77.5t78 32.5q45 0 77.5 -32.5t32.5 -77.5q0 -46 -32.5 -78t-77.5 -32q-46 0 -78 32t-32 78zM195 527l-45 -237h90zM150 825q0 -19 13 -32t32 -13q18 0 31.5 13t13.5 32q0 18 -13 31.5
t-32 13.5t-32 -13.5t-13 -31.5z" />
    <glyph glyph-name="ae" unicode="&#xe6;" horiz-adv-x="548" 
d="M258 100v115h-117l-28 -115h-74l141 600h318v-75h-160v-268h135v-75h-135v-107h160v-75h-240zM241 625l-82 -335h99v335h-17z" />
    <glyph glyph-name="ccedilla" unicode="&#xe7;" 
d="M140 229q0 -25 17.5 -42.5t42.5 -17.5t42.5 17.5t17.5 42.5v58h80v-53q0 -51 -33.5 -90.5t-83.5 -47.5l-13 -25h29q28 0 43.5 -20t15.5 -51q0 -34 -29.5 -61t-83.5 -27q-28 0 -52 12t-34 24l-10 12l17 29q35 -37 79 -37q22 0 33.5 14.5t11.5 33.5q0 14 -9.5 24.5
t-26.5 10.5h-61l35 62q-47 11 -77.5 49.5t-30.5 87.5v332q0 58 41 99t99 41t99 -41t41 -99v-54h-80v59q0 25 -17.5 42.5t-42.5 17.5t-42.5 -17.5t-17.5 -42.5v-342z" />
    <glyph glyph-name="egrave" unicode="&#xe8;" horiz-adv-x="350" 
d="M60 100v600h240v-75h-160v-268h135v-75h-135v-107h160v-75h-240zM275 825l-19 -57l-172 52l22 67z" />
    <glyph glyph-name="eacute" unicode="&#xe9;" horiz-adv-x="350" 
d="M60 100v600h240v-75h-160v-268h135v-75h-135v-107h160v-75h-240zM118 768l-19 57l169 62l22 -67z" />
    <glyph glyph-name="ecircumflex" unicode="&#xea;" horiz-adv-x="350" 
d="M60 100v600h240v-75h-160v-268h135v-75h-135v-107h160v-75h-240zM293 824l-47 -52l-66 64l-67 -64l-47 52l96 87h36z" />
    <glyph glyph-name="edieresis" unicode="&#xeb;" horiz-adv-x="350" 
d="M60 100v600h240v-75h-160v-268h135v-75h-135v-107h160v-75h-240zM64 825q0 17 12 29t29 12t29 -12t12 -29t-12 -29t-29 -12t-29 12t-12 29zM214 825q0 17 12 29t29 12t29 -12t12 -29t-12 -29t-29 -12t-29 12t-12 29z" />
    <glyph glyph-name="igrave" unicode="&#xec;" horiz-adv-x="215" 
d="M67 100v600h80v-600h-80zM155 825l-19 -57l-172 52l22 67z" />
    <glyph glyph-name="iacute" unicode="&#xed;" horiz-adv-x="215" 
d="M67 100v600h80v-600h-80zM78 768l-19 57l169 62l22 -67z" />
    <glyph glyph-name="icircumflex" unicode="&#xee;" horiz-adv-x="215" 
d="M67 100v600h80v-600h-80zM220 824l-47 -52l-66 64l-67 -64l-47 52l96 87h36z" />
    <glyph glyph-name="idieresis" unicode="&#xef;" horiz-adv-x="215" 
d="M67 100v600h80v-600h-80zM-11 825q0 17 12 29t29 12q16 0 28.5 -12t12.5 -29t-12 -29t-29 -12t-29 12t-12 29zM139 825q0 17 12 29t29 12q16 0 28.5 -12t12.5 -29t-12 -29t-29 -12t-29 12t-12 29z" />
    <glyph glyph-name="eth" unicode="&#xf0;" 
d="M12 282v75h48v343h140q58 0 99 -41t41 -99v-320q0 -58 -41 -99t-99 -41h-140v182h-48zM140 625v-268h47v-75h-47v-107h60q25 0 42.5 17.5t17.5 42.5v330q0 25 -17.5 42.5t-42.5 17.5h-60z" />
    <glyph glyph-name="ntilde" unicode="&#xf1;" horiz-adv-x="425" 
d="M285 100l-145 388v-388h-80v600h80l145 -391v391h80v-600h-80zM108 789l-9 -5l-27 56l8 5q40 22 88 22q17 0 46.5 -12t45.5 -12q14 0 28 3t21 6t7 4l8 4l27 -56l-8 -4q-39 -22 -85 -22q-18 0 -49 12t-46 12q-14 0 -27.5 -3t-20.5 -6t-7 -4z" />
    <glyph glyph-name="ograve" unicode="&#xf2;" 
d="M60 234v332q0 58 41 99t99 41t99 -41t41 -99v-332q0 -58 -41 -99t-99 -41t-99 41t-41 99zM140 229q0 -25 17.5 -42.5t42.5 -17.5t42.5 17.5t17.5 42.5v342q0 25 -17.5 42.5t-42.5 17.5t-42.5 -17.5t-17.5 -42.5v-342zM270 825l-19 -57l-172 52l22 67z" />
    <glyph glyph-name="oacute" unicode="&#xf3;" 
d="M60 234v332q0 58 41 99t99 41t99 -41t41 -99v-332q0 -58 -41 -99t-99 -41t-99 41t-41 99zM140 229q-1 -25 17 -42.5t43 -17.5t42.5 17.5t17.5 42.5v342q0 25 -17.5 42.5t-42.5 17.5t-42.5 -17.5t-17.5 -42.5v-342zM148 768l-19 57l169 62l22 -67z" />
    <glyph glyph-name="ocircumflex" unicode="&#xf4;" 
d="M60 234v332q0 58 41 99t99 41t99 -41t41 -99v-332q0 -58 -41 -99t-99 -41t-99 41t-41 99zM140 229q0 -25 17.5 -42.5t42.5 -17.5t42.5 17.5t17.5 42.5v342q0 25 -17.5 42.5t-42.5 17.5t-42.5 -17.5t-17.5 -42.5v-342zM313 824l-47 -52l-66 64l-67 -64l-47 52l96 87h36z
" />
    <glyph glyph-name="otilde" unicode="&#xf5;" 
d="M60 234v332q0 58 41 99t99 41t99 -41t41 -99v-332q0 -58 -41 -99t-99 -41t-99 41t-41 99zM140 229q0 -25 17.5 -42.5t42.5 -17.5t42.5 17.5t17.5 42.5v342q0 25 -17.5 42.5t-42.5 17.5t-42.5 -17.5t-17.5 -42.5v-342zM96 789l-9 -5l-27 56l8 5q40 22 88 22q17 0 46.5 -12
t45.5 -12q14 0 28 3t21 6t7 4l8 4l27 -56l-8 -4q-39 -22 -85 -22q-18 0 -48.5 12t-46.5 12q-14 0 -27.5 -3t-20.5 -6t-7 -4z" />
    <glyph glyph-name="odieresis" unicode="&#xf6;" 
d="M60 234v332q0 58 41 99t99 41t99 -41t41 -99v-332q0 -58 -41 -99t-99 -41t-99 41t-41 99zM140 229q0 -25 17.5 -42.5t42.5 -17.5t42.5 17.5t17.5 42.5v342q0 25 -17.5 42.5t-42.5 17.5t-42.5 -17.5t-17.5 -42.5v-342zM84 825q0 17 12 29t29 12t29 -12t12 -29t-12 -29
t-29 -12t-29 12t-12 29zM234 825q0 17 12 29t29 12t29 -12t12 -29t-12 -29t-29 -12t-29 12t-12 29z" />
    <glyph glyph-name="divide" unicode="&#xf7;" horiz-adv-x="450" 
d="M179 141q0 19 13.5 32.5t32.5 13.5t32.5 -13.5t13.5 -32.5t-13.5 -32.5t-32.5 -13.5t-32.5 13.5t-13.5 32.5zM179 561q0 19 13.5 32.5t32.5 13.5t32.5 -13.5t13.5 -32.5t-13.5 -32.5t-32.5 -13.5t-32.5 13.5t-13.5 32.5zM25 312v75h400v-75h-400z" />
    <glyph glyph-name="oslash" unicode="&#xf8;" 
d="M60 234v332q0 58 41 99t99 41q37 0 70 -19l10 26l65 -27l-21 -56q16 -30 16 -64v-332q0 -58 -41 -99t-99 -41q-38 0 -70 19l-10 -27l-65 27l21 56q-16 28 -16 65zM140 571v-232l102 274q-18 18 -42 18q-25 0 -42.5 -17.5t-17.5 -42.5zM200 169q25 0 42.5 17.5t17.5 42.5
v230l-103 -273q17 -17 43 -17z" />
    <glyph glyph-name="ugrave" unicode="&#xf9;" 
d="M140 229q0 -25 17.5 -42.5t42.5 -17.5t42.5 17.5t17.5 42.5v471h80v-466q0 -58 -41 -99t-99 -41t-99 41t-41 99v466h80v-471zM270 825l-19 -57l-172 52l22 67z" />
    <glyph glyph-name="uacute" unicode="&#xfa;" 
d="M140 229q-1 -25 17 -42.5t43 -17.5t42.5 17.5t17.5 42.5v471h80v-466q0 -58 -41 -99t-99 -41t-99 41t-41 99v466h80v-471zM148 768l-19 57l169 62l22 -67z" />
    <glyph glyph-name="ucircumflex" unicode="&#xfb;" 
d="M140 229q0 -25 17.5 -42.5t42.5 -17.5t42.5 17.5t17.5 42.5v471h80v-466q0 -58 -41 -99t-99 -41t-99 41t-41 99v466h80v-471zM313 824l-47 -52l-66 64l-67 -64l-47 52l96 87h36z" />
    <glyph glyph-name="udieresis" unicode="&#xfc;" 
d="M140 229q0 -25 17.5 -42.5t42.5 -17.5t42.5 17.5t17.5 42.5v471h80v-466q0 -58 -41 -99t-99 -41t-99 41t-41 99v466h80v-471zM84 825q0 17 12 29t29 12t29 -12t12 -29t-12 -29t-29 -12t-29 12t-12 29zM234 825q0 17 12 29t29 12t29 -12t12 -29t-12 -29t-29 -12t-29 12
t-12 29z" />
    <glyph glyph-name="yacute" unicode="&#xfd;" horiz-adv-x="387" 
d="M153 100v182l-111 418h75l76 -291l76 291h75l-111 -418v-182h-80zM156 768l-19 57l169 62l22 -67z" />
    <glyph glyph-name="thorn" unicode="&#xfe;" 
d="M60 100v600h80v-88h60q58 0 99 -41t41 -99v-145q0 -58 -41 -99t-99 -41h-60v-87h-80zM140 537v-275h60q25 0 42.5 17.5t17.5 42.5v155q0 25 -17.5 42.5t-42.5 17.5h-60z" />
    <glyph glyph-name="ydieresis" unicode="&#xff;" horiz-adv-x="387" 
d="M153 100v182l-111 418h75l76 -291l76 291h75l-111 -418v-182h-80zM228 825q0 17 12 29t29 12t29 -12t12 -29t-12 -29t-29 -12t-29 12t-12 29zM78 825q0 17 12 29t29 12t29 -12t12 -29t-12 -29t-29 -12t-29 12t-12 29z" />
    <glyph glyph-name="Amacron" unicode="&#x100;" horiz-adv-x="502" 
d="M290 800l173 -800h-81l-29 135h-205l-28 -135h-81l171 800h80zM250 624l-87 -414h174zM117 890v65h265v-65h-265z" />
    <glyph glyph-name="amacron" unicode="&#x101;" horiz-adv-x="391" 
d="M235 700l117 -600h-75l-22 115h-119l-22 -115h-75l116 600h80zM77 790v65h235l40 -65h-275zM195 527l-45 -237h90z" />
    <glyph glyph-name="Abreve" unicode="&#x102;" horiz-adv-x="502" 
d="M290 800l173 -800h-81l-29 135h-205l-28 -135h-81l171 800h80zM250 624l-87 -414h174zM250 930q27 0 43.5 12.5t16.5 32.5v17h65v-17q0 -49 -31.5 -79.5t-93.5 -30.5t-93.5 30.5t-31.5 79.5v17h65v-17q0 -20 16.5 -32.5t43.5 -12.5z" />
    <glyph glyph-name="abreve" unicode="&#x103;" horiz-adv-x="391" 
d="M235 700l117 -600h-75l-22 115h-119l-22 -115h-75l116 600h80zM195 830q27 0 43.5 12.5t16.5 32.5v17h65v-17q0 -49 -31.5 -79.5t-93.5 -30.5t-93.5 30.5t-31.5 79.5v17h65v-17q0 -20 16.5 -32.5t43.5 -12.5zM195 527l-45 -237h90z" />
    <glyph glyph-name="Aogonek" unicode="&#x104;" horiz-adv-x="514" 
d="M290 800l173 -800l-17 -17q-18 -17 -36 -41t-18 -37q0 -24 24 -24q8 0 17 4.5t14 9.5l5 5l37 -20q-3 -5 -9 -13.5t-25 -22t-39 -13.5q-88 0 -88 78q0 49 52 98l-27 128h-205l-28 -135h-81l171 800h80zM250 624l-87 -414h174z" />
    <glyph glyph-name="aogonek" unicode="&#x105;" horiz-adv-x="391" 
d="M235 700l117 -600h-75l-22 115h-119l-22 -115h-75l116 600h80zM195 527l-45 -237h90z" />
    <glyph glyph-name="Cacute" unicode="&#x106;" horiz-adv-x="500" 
d="M198 868l-19 57l169 62l22 -67zM140 179q0 -46 32 -78t78 -32q45 0 77.5 32t32.5 78v41h80v-36q0 -79 -55.5 -134.5t-134.5 -55.5q-80 0 -135 55t-55 135v432q0 79 55.5 134.5t134.5 55.5t134.5 -55.5t55.5 -134.5v-36h-80v41q0 45 -32.5 77.5t-77.5 32.5
q-46 0 -78 -32.5t-32 -77.5v-442z" />
    <glyph glyph-name="cacute" unicode="&#x107;" 
d="M140 229q-1 -25 17 -42.5t43 -17.5t42.5 17.5t17.5 42.5v58h80v-53q0 -58 -41 -99t-99 -41t-99 41t-41 99v332q0 58 41 99t99 41t99 -41t41 -99v-54h-80v59q0 25 -17.5 42.5t-42.5 17.5t-42.5 -17.5t-17.5 -42.5v-342zM148 768l-19 57l169 62l22 -67z" />
    <glyph glyph-name="Ccircumflex" unicode="&#x108;" horiz-adv-x="500" 
d="M140 179q0 -46 32 -78t78 -32q45 0 77.5 32t32.5 78v41h80v-36q0 -79 -55.5 -134.5t-134.5 -55.5q-80 0 -135 55t-55 135v432q0 79 55.5 134.5t134.5 55.5t134.5 -55.5t55.5 -134.5v-36h-80v41q0 45 -32.5 77.5t-77.5 32.5q-46 0 -78 -32.5t-32 -77.5v-442zM363 924
l-47 -52l-66 64l-67 -64l-47 52l96 87h36z" />
    <glyph glyph-name="ccircumflex" unicode="&#x109;" 
d="M140 229q0 -25 17.5 -42.5t42.5 -17.5t42.5 17.5t17.5 42.5v58h80v-53q0 -58 -41 -99t-99 -41t-99 41t-41 99v332q0 58 41 99t99 41t99 -41t41 -99v-54h-80v59q0 25 -17.5 42.5t-42.5 17.5t-42.5 -17.5t-17.5 -42.5v-342zM313 824l-47 -52l-66 64l-67 -64l-47 52l96 87
h36z" />
    <glyph glyph-name="Cdotaccent" unicode="&#x10a;" horiz-adv-x="500" 
d="M140 179q0 -46 32 -78t78 -32q45 0 77.5 32t32.5 78v41h80v-36q0 -79 -55.5 -134.5t-134.5 -55.5q-80 0 -135 55t-55 135v432q0 79 55.5 134.5t134.5 55.5t134.5 -55.5t55.5 -134.5v-36h-80v41q0 45 -32.5 77.5t-77.5 32.5q-46 0 -78 -32.5t-32 -77.5v-442zM204 925
q0 19 13.5 32.5t32.5 13.5t32.5 -13.5t13.5 -32.5t-13.5 -32.5t-32.5 -13.5q-20 0 -33 13.5t-13 32.5z" />
    <glyph glyph-name="cdotaccent" unicode="&#x10b;" 
d="M140 229q-1 -25 17 -42.5t43 -17.5t42.5 17.5t17.5 42.5v58h80v-53q0 -58 -41 -99t-99 -41t-99 41t-41 99v332q0 58 41 99t99 41t99 -41t41 -99v-54h-80v59q0 25 -17.5 42.5t-42.5 17.5t-42.5 -17.5t-17.5 -42.5v-342zM154 825q0 19 13.5 32.5t32.5 13.5t32.5 -13.5
t13.5 -32.5t-13.5 -32.5t-32.5 -13.5q-20 0 -33 13.5t-13 32.5z" />
    <glyph glyph-name="Ccaron" unicode="&#x10c;" horiz-adv-x="500" 
d="M140 179q0 -46 32 -78t78 -32q45 0 77.5 32t32.5 78v41h80v-36q0 -79 -55.5 -134.5t-134.5 -55.5q-80 0 -135 55t-55 135v432q0 79 55.5 134.5t134.5 55.5t134.5 -55.5t55.5 -134.5v-36h-80v41q0 45 -32.5 77.5t-77.5 32.5q-46 0 -78 -32.5t-32 -77.5v-442zM136 959
l47 52l67 -64l66 64l47 -52l-95 -87h-37z" />
    <glyph glyph-name="ccaron" unicode="&#x10d;" 
d="M140 229q0 -25 17.5 -42.5t42.5 -17.5t42.5 17.5t17.5 42.5v58h80v-53q0 -58 -41 -99t-99 -41t-99 41t-41 99v332q0 58 41 99t99 41t99 -41t41 -99v-54h-80v59q0 25 -17.5 42.5t-42.5 17.5t-42.5 -17.5t-17.5 -42.5v-342zM86 859l47 52l67 -64l66 64l47 -52l-95 -87h-37z
" />
    <glyph glyph-name="Dcaron" unicode="&#x10e;" horiz-adv-x="500" 
d="M60 0v800h190q79 0 134.5 -55.5t55.5 -134.5v-420q0 -79 -55.5 -134.5t-134.5 -55.5h-190zM140 725v-650h110q45 0 77.5 32t32.5 78v430q0 45 -32.5 77.5t-77.5 32.5h-110zM121 959l47 52l67 -64l66 64l47 -52l-95 -87h-37z" />
    <glyph glyph-name="dcaron" unicode="&#x10f;" 
d="M60 100v600h140q58 0 99 -41t41 -99v-320q0 -58 -41 -99t-99 -41h-140zM140 625v-450h60q25 0 42.5 17.5t17.5 42.5v330q0 25 -17.5 42.5t-42.5 17.5h-60zM73 859l47 52l67 -64l66 64l47 -52l-95 -87h-65z" />
    <glyph glyph-name="Dcroat" unicode="&#x110;" horiz-adv-x="500" 
d="M-13 237v75h73v488h190q79 0 134.5 -55.5t55.5 -134.5v-420q0 -79 -55.5 -134.5t-134.5 -55.5h-190v237h-73zM140 725v-413h72v-75h-72v-162h110q45 0 77.5 32t32.5 78v430q0 45 -32.5 77.5t-77.5 32.5h-110z" />
    <glyph glyph-name="dcroat" unicode="&#x111;" horiz-adv-x="405" 
d="M5 282v75h60v343h140q58 0 99 -41t41 -99v-320q0 -58 -41 -99t-99 -41h-140v182h-60zM145 625v-268h60v-75h-60v-107h60q25 0 42.5 17.5t17.5 42.5v330q0 25 -17.5 42.5t-42.5 17.5h-60z" />
    <glyph glyph-name="Emacron" unicode="&#x112;" horiz-adv-x="420" 
d="M60 0v800h310v-75h-230v-413h180v-75h-180v-162h230v-75h-310zM79 890v65h265v-65h-265z" />
    <glyph glyph-name="emacron" unicode="&#x113;" horiz-adv-x="350" 
d="M60 100v600h240v-75h-160v-268h135v-75h-135v-107h160v-75h-240zM62 790v65h235v-65h-235z" />
    <glyph glyph-name="Ebreve" unicode="&#x114;" horiz-adv-x="420" 
d="M60 0v800h310v-75h-230v-413h180v-75h-180v-162h230v-75h-310zM215 930q27 0 43.5 12.5t16.5 32.5v17h65v-17q0 -49 -31.5 -79.5t-93.5 -30.5t-93.5 30.5t-31.5 79.5v17h65v-17q0 -20 16.5 -32.5t43.5 -12.5z" />
    <glyph glyph-name="ebreve" unicode="&#x115;" horiz-adv-x="350" 
d="M60 100v600h240v-75h-160v-268h135v-75h-135v-107h160v-75h-240zM181 830q27 0 43.5 12.5t16.5 32.5v17h65v-17q0 -49 -31.5 -79.5t-93.5 -30.5t-93.5 30.5t-31.5 79.5v17h65v-17q0 -20 16.5 -32.5t43.5 -12.5z" />
    <glyph glyph-name="Edotaccent" unicode="&#x116;" horiz-adv-x="420" 
d="M60 0v800h310v-75h-230v-413h180v-75h-180v-162h230v-75h-310zM171 925q0 19 13.5 32.5t32.5 13.5t32.5 -13.5t13.5 -32.5t-13.5 -32.5t-32.5 -13.5t-32.5 13.5t-13.5 32.5z" />
    <glyph glyph-name="edotaccent" unicode="&#x117;" horiz-adv-x="350" 
d="M60 100v600h240v-75h-160v-268h135v-75h-135v-107h160v-75h-240zM136 825q0 19 13.5 32.5t32.5 13.5t32.5 -13.5t13.5 -32.5t-13.5 -32.5t-32.5 -13.5q-20 0 -33 13.5t-13 32.5z" />
    <glyph glyph-name="Eogonek" unicode="&#x118;" horiz-adv-x="420" 
d="M60 0v800h310v-75h-230v-413h180v-75h-180v-162h230v-75l-18 -17q-17 -17 -35 -41t-18 -37q0 -24 24 -24q8 0 17 4.5t14 9.5l5 5l37 -20q-3 -5 -9 -13.5t-25 -22t-39 -13.5q-88 0 -88 78q0 46 45 91h-220z" />
    <glyph glyph-name="eogonek" unicode="&#x119;" horiz-adv-x="350" 
d="M60 100v600h240v-75h-160v-268h135v-75h-135v-107h160v-75l-18 -17q-17 -17 -35 -41t-18 -37q0 -24 24 -24q8 0 17 4.5t14 9.5l5 5l37 -20q-3 -5 -9 -13.5t-25 -22t-39 -13.5q-88 0 -88 78q0 44 45 91h-150z" />
    <glyph glyph-name="Ecaron" unicode="&#x11a;" horiz-adv-x="420" 
d="M60 0v800h310v-75h-230v-413h180v-75h-180v-162h230v-75h-310zM103 959l47 52l67 -64l66 64l47 -52l-95 -87h-37z" />
    <glyph glyph-name="ecaron" unicode="&#x11b;" horiz-adv-x="350" 
d="M60 100v600h240v-75h-160v-268h135v-75h-135v-107h160v-75h-240zM68 859l47 52l67 -64l66 64l47 -52l-95 -87h-37z" />
    <glyph glyph-name="Gcircumflex" unicode="&#x11c;" horiz-adv-x="500" 
d="M140 179q0 -46 32 -78t78 -32q45 0 77.5 32t32.5 78v58h-110v75h190v-128q0 -79 -55.5 -134.5t-134.5 -55.5q-80 0 -135 55t-55 135v432q0 79 55.5 134.5t134.5 55.5t134.5 -55.5t55.5 -134.5v-36h-80v41q0 45 -32.5 77.5t-77.5 32.5q-46 0 -78 -32.5t-32 -77.5v-442z
M363 924l-47 -52l-66 64l-67 -64l-47 52l96 87h36z" />
    <glyph glyph-name="gcircumflex" unicode="&#x11d;" 
d="M140 229q0 -25 17.5 -42.5t42.5 -17.5t42.5 17.5t17.5 42.5v56h-60v75h140v-126q0 -58 -41 -99t-99 -41t-99 41t-41 99v332q0 58 41 99t99 41t99 -41t41 -99v-54h-80v59q0 25 -17.5 42.5t-42.5 17.5t-42.5 -17.5t-17.5 -42.5v-342zM313 824l-47 -52l-66 64l-67 -64
l-47 52l96 87h36z" />
    <glyph glyph-name="Gbreve" unicode="&#x11e;" horiz-adv-x="500" 
d="M140 179q0 -46 32 -78t78 -32q45 0 77.5 32t32.5 78v58h-110v75h190v-128q0 -79 -55.5 -134.5t-134.5 -55.5q-80 0 -135 55t-55 135v432q0 79 55.5 134.5t134.5 55.5t134.5 -55.5t55.5 -134.5v-36h-80v41q0 45 -32.5 77.5t-77.5 32.5q-46 0 -78 -32.5t-32 -77.5v-442z
M250 865v65q27 0 43.5 12.5t16.5 32.5v17h65v-17q0 -49 -31.5 -79.5t-93.5 -30.5zM250 930v-65q-62 0 -93.5 30.5t-31.5 79.5v17h65v-17q0 -20 16.5 -32.5t43.5 -12.5z" />
    <glyph glyph-name="gbreve" unicode="&#x11f;" 
d="M140 229q0 -25 17.5 -42.5t42.5 -17.5t42.5 17.5t17.5 42.5v56h-60v75h140v-126q0 -58 -41 -99t-99 -41t-99 41t-41 99v332q0 58 41 99t99 41t99 -41t41 -99v-54h-80v59q0 25 -17.5 42.5t-42.5 17.5t-42.5 -17.5t-17.5 -42.5v-342zM200 830q27 0 43.5 12.5t16.5 32.5v17
h65v-17q0 -49 -31.5 -79.5t-93.5 -30.5t-93.5 30.5t-31.5 79.5v17h65v-17q0 -20 16.5 -32.5t43.5 -12.5z" />
    <glyph glyph-name="Gdotaccent" unicode="&#x120;" horiz-adv-x="500" 
d="M140 179q0 -46 32 -78t78 -32q45 0 77.5 32t32.5 78v58h-110v75h190v-128q0 -79 -55.5 -134.5t-134.5 -55.5q-80 0 -135 55t-55 135v432q0 79 55.5 134.5t134.5 55.5t134.5 -55.5t55.5 -134.5v-36h-80v41q0 45 -32.5 77.5t-77.5 32.5q-46 0 -78 -32.5t-32 -77.5v-442z
M204 925q0 19 13.5 32.5t32.5 13.5t32.5 -13.5t13.5 -32.5t-13.5 -32.5t-32.5 -13.5q-20 0 -33 13.5t-13 32.5z" />
    <glyph glyph-name="gdotaccent" unicode="&#x121;" 
d="M140 229q-1 -25 17 -42.5t43 -17.5t42.5 17.5t17.5 42.5v56h-60v75h140v-126q0 -58 -41 -99t-99 -41t-99 41t-41 99v332q0 58 41 99t99 41t99 -41t41 -99v-54h-80v59q0 25 -17.5 42.5t-42.5 17.5t-42.5 -17.5t-17.5 -42.5v-342zM154 825q0 19 13.5 32.5t32.5 13.5
t32.5 -13.5t13.5 -32.5t-13.5 -32.5t-32.5 -13.5q-20 0 -33 13.5t-13 32.5z" />
    <glyph glyph-name="Gcommaaccent" unicode="&#x122;" horiz-adv-x="500" 
d="M140 179q0 -46 32 -78t78 -32q45 0 77.5 32t32.5 78v58h-110v75h190v-128q0 -79 -55.5 -134.5t-134.5 -55.5q-80 0 -135 55t-55 135v432q0 79 55.5 134.5t134.5 55.5t134.5 -55.5t55.5 -134.5v-36h-80v41q0 45 -32.5 77.5t-77.5 32.5q-46 0 -78 -32.5t-32 -77.5v-442z
M210 -50h80v-60q0 -22 -6 -49t-12 -43l-7 -16h-55v168z" />
    <glyph glyph-name="gcommaaccent" unicode="&#x123;" 
d="M140 229q0 -25 17.5 -42.5t42.5 -17.5t42.5 17.5t17.5 42.5v56h-60v75h140v-126q0 -58 -41 -99t-99 -41t-99 41t-41 99v332q0 58 41 99t99 41t99 -41t41 -99v-54h-80v59q0 25 -17.5 42.5t-42.5 17.5t-42.5 -17.5t-17.5 -42.5v-342zM160 50h80v-60q0 -22 -6 -49t-12 -43
l-7 -16h-55v168z" />
    <glyph glyph-name="Hcircumflex" unicode="&#x124;" horiz-adv-x="500" 
d="M360 0v237h-220v-237h-80v800h80v-488h220v488h80v-800h-80zM363 924l-47 -52l-66 64l-67 -64l-47 52l96 87h36z" />
    <glyph glyph-name="hcircumflex" unicode="&#x125;" 
d="M260 100v182h-120v-182h-80v600h80v-343h120v343h80v-600h-80zM313 824l-47 -52l-66 64l-67 -64l-47 52l96 87h36z" />
    <glyph glyph-name="Hbar" unicode="&#x126;" horiz-adv-x="500" 
d="M12 497v65h48v238h80v-238h220v238h80v-238h47v-65h-47v-497h-80v237h-220v-237h-80v497h-48zM140 497v-185h220v185h-220z" />
    <glyph glyph-name="hbar" unicode="&#x127;" 
d="M25 552v65h35v83h80v-83h120v83h80v-83h35v-65h-35v-452h-80v182h-120v-182h-80v452h-35zM140 552v-195h120v195h-120z" />
    <glyph glyph-name="Itilde" unicode="&#x128;" horiz-adv-x="215" 
d="M67 0v800h80v-800h-80zM3 889l-9 -5l-27 56l8 5q40 22 88 22q17 0 46.5 -12t45.5 -12q14 0 28 3t21 6t7 4l8 4l27 -56l-8 -4q-39 -22 -85 -22q-19 0 -49 12t-46 12q-14 0 -27.5 -3t-20.5 -6t-7 -4z" />
    <glyph glyph-name="itilde" unicode="&#x129;" horiz-adv-x="215" 
d="M67 100v600h80v-600h-80zM3 789l-9 -5l-27 56l8 5q40 22 88 22q17 0 46.5 -12t45.5 -12q14 0 28 3t21 6t7 4l8 4l27 -56l-8 -4q-39 -22 -85 -22q-19 0 -49 12t-46 12q-14 0 -27.5 -3t-20.5 -6t-7 -4z" />
    <glyph glyph-name="Imacron" unicode="&#x12a;" horiz-adv-x="215" 
d="M67 0v800h80v-800h-80zM-11 890v65h235v-65h-235z" />
    <glyph glyph-name="imacron" unicode="&#x12b;" horiz-adv-x="215" 
d="M67 100v600h80v-600h-80zM-11 790v65h235v-65h-235z" />
    <glyph glyph-name="Ibreve" unicode="&#x12c;" horiz-adv-x="215" 
d="M67 0v800h80v-800h-80zM107 865v65q27 0 43.5 12.5t16.5 32.5v17h65v-17q0 -49 -31.5 -79.5t-93.5 -30.5zM107 930v-65q-62 0 -93.5 30.5t-31.5 79.5v17h65v-17q0 -20 16.5 -32.5t43.5 -12.5z" />
    <glyph glyph-name="ibreve" unicode="&#x12d;" horiz-adv-x="215" 
d="M67 100v600h80v-600h-80zM107 765v65q27 0 43.5 12.5t16.5 32.5v17h65v-17q0 -49 -31.5 -79.5t-93.5 -30.5zM107 830v-65q-62 0 -93.5 30.5t-31.5 79.5v17h65v-17q0 -20 16.5 -32.5t43.5 -12.5z" />
    <glyph glyph-name="Iogonek" unicode="&#x12e;" horiz-adv-x="215" 
d="M147 800v-800l-17 -17q-18 -17 -36 -41t-18 -37q0 -24 24 -24q8 0 17 4.5t14 9.5l5 5l37 -20q-3 -5 -9 -13.5t-25 -22t-39 -13.5q-88 0 -88 78q0 53 55 100v791h80z" />
    <glyph glyph-name="iogonek" unicode="&#x12f;" horiz-adv-x="215" 
d="M147 700v-600l-17 -17q-18 -17 -36 -41t-18 -37q0 -24 24 -24q8 0 17 4.5t14 9.5l5 5l37 -20q-3 -5 -9 -13.5t-25 -22t-39 -13.5q-88 0 -88 78q0 51 55 100v591h80z" />
    <glyph glyph-name="Idotaccent" unicode="&#x130;" horiz-adv-x="215" 
d="M67 0v800h80v-800h-80zM61 925q0 19 13.5 32.5t32.5 13.5t32.5 -13.5t13.5 -32.5t-13.5 -32.5t-32.5 -13.5t-32.5 13.5t-13.5 32.5z" />
    <glyph glyph-name="dotlessi" unicode="&#x131;" horiz-adv-x="215" 
d="M67 100v600h80v-600h-80z" />
    <glyph glyph-name="Jcircumflex" unicode="&#x134;" horiz-adv-x="200" 
d="M-55 -250v75h55q25 0 42.5 17.5t17.5 42.5v915h80v-910q0 -58 -41 -99t-99 -41h-55zM213 924l-47 -52l-66 64l-67 -64l-47 52l96 87h36z" />
    <glyph glyph-name="jcircumflex" unicode="&#x135;" horiz-adv-x="200" 
d="M-30 -56v75h30q25 0 42.5 17.5t17.5 42.5v621h80v-616q0 -58 -41 -99t-99 -41h-30zM213 824l-47 -52l-66 64l-67 -64l-47 52l96 87h36z" />
    <glyph glyph-name="Kcommaaccent" unicode="&#x136;" horiz-adv-x="500" 
d="M60 0v800h80v-395l211 395h90l-176 -329l181 -471h-86l-145 378l-75 -141v-237h-80zM205 -50h80v-60q0 -22 -6.5 -49t-12.5 -43l-6 -16h-55v168z" />
    <glyph glyph-name="kcommaaccent" unicode="&#x137;" 
d="M60 100v600h80v-243l118 243h88l-120 -247l120 -353h-84l-86 251l-36 -75v-176h-80zM160 50h80v-60q0 -22 -6 -49t-12 -43l-7 -16h-55v168z" />
    <glyph glyph-name="kgreenlandic" unicode="&#x138;" 
d="M60 100v600h80v-243l118 243h88l-120 -247l120 -353h-84l-86 251l-36 -75v-176h-80z" />
    <glyph glyph-name="Lacute" unicode="&#x139;" horiz-adv-x="415" 
d="M60 0v800h80v-725h230v-75h-310zM88 868l-19 57l169 62l22 -67z" />
    <glyph glyph-name="lacute" unicode="&#x13a;" horiz-adv-x="315" 
d="M60 100v600h80v-525h135v-75h-215zM88 768l-19 57l169 62l22 -67z" />
    <glyph glyph-name="Lcommaaccent" unicode="&#x13b;" horiz-adv-x="415" 
d="M60 0v800h80v-725h230v-75h-310zM187 -50h80v-60q0 -22 -6.5 -49t-12.5 -43l-6 -16h-55v168z" />
    <glyph glyph-name="lcommaaccent" unicode="&#x13c;" horiz-adv-x="315" 
d="M60 100v600h80v-525h135v-75h-215zM128 50h80v-60q0 -22 -6 -49t-12 -43l-7 -16h-55v168z" />
    <glyph glyph-name="Lcaron" unicode="&#x13d;" horiz-adv-x="415" 
d="M60 0v800h80v-725h230v-75h-310zM-14 959l47 52l67 -64l66 64l47 -52l-95 -87h-37z" />
    <glyph glyph-name="lcaron" unicode="&#x13e;" horiz-adv-x="315" 
d="M60 100v600h80v-525h135v-75h-215zM-14 859l47 52l67 -64l66 64l47 -52l-95 -87h-37z" />
    <glyph glyph-name="Ldot" unicode="&#x13f;" horiz-adv-x="415" 
d="M60 0v800h80v-725h230v-75h-310zM266 300q0 19 13.5 32.5t32.5 13.5t32.5 -13.5t13.5 -32.5t-13.5 -32.5t-32.5 -13.5q-20 0 -33 13t-13 33z" />
    <glyph glyph-name="ldot" unicode="&#x140;" horiz-adv-x="315" 
d="M60 100v600h80v-525h135v-75h-215zM217 400q0 19 13.5 32.5t32.5 13.5t32.5 -13.5t13.5 -32.5t-13.5 -32.5t-32.5 -13.5t-32.5 13t-13.5 33z" />
    <glyph glyph-name="Lslash" unicode="&#x141;" horiz-adv-x="415" 
d="M-14 188l-28 70l102 41v501h80v-469l73 30l29 -70l-102 -41v-175h230v-75h-310v218z" />
    <glyph glyph-name="lslash" unicode="&#x142;" horiz-adv-x="315" 
d="M10 243l-29 69l79 32v356h80v-324l50 21l28 -70l-78 -32v-120h135v-75h-215v163z" />
    <glyph glyph-name="Nacute" unicode="&#x143;" horiz-adv-x="525" 
d="M385 0l-245 590v-590h-80v800h80l245 -590v590h80v-800h-80zM198 868l-19 57l169 62l22 -67z" />
    <glyph glyph-name="nacute" unicode="&#x144;" horiz-adv-x="425" 
d="M285 100l-145 388v-388h-80v600h80l145 -391v391h80v-600h-80zM148 768l-19 57l169 62l22 -67z" />
    <glyph glyph-name="Ncommaaccent" unicode="&#x145;" horiz-adv-x="525" 
d="M385 0l-245 590v-590h-80v800h80l245 -590v590h80v-800h-80zM220 -50h80v-60q0 -22 -6 -49t-12 -43l-7 -16h-55v168z" />
    <glyph glyph-name="ncommaaccent" unicode="&#x146;" horiz-adv-x="425" 
d="M285 100l-145 388v-388h-80v600h80l145 -391v391h80v-600h-80zM170 50h80v-60q0 -22 -6 -49t-12 -43l-7 -16h-85z" />
    <glyph glyph-name="Ncaron" unicode="&#x147;" horiz-adv-x="525" 
d="M385 0l-245 590v-590h-80v800h80l245 -590v590h80v-800h-80zM148 959l47 52l67 -64l66 64l47 -52l-95 -87h-37z" />
    <glyph glyph-name="ncaron" unicode="&#x148;" horiz-adv-x="425" 
d="M285 100l-145 388v-388h-80v600h80l145 -391v391h80v-600h-80zM98 859l47 52l67 -64l66 64l47 -52l-95 -87h-37z" />
    <glyph glyph-name="Eng" unicode="&#x14a;" horiz-adv-x="525" 
d="M270 -250v75h55q25 0 42.5 17.5t17.5 42.5v115l-245 590v-590h-80v800h80l245 -590v590h80v-910q0 -58 -41 -99t-99 -41h-55z" />
    <glyph glyph-name="eng" unicode="&#x14b;" horiz-adv-x="425" 
d="M195 -56v75h30q25 0 42.5 17.5t17.5 42.5v21l-145 388v-388h-80v600h80l145 -391v391h80v-616q0 -58 -41 -99t-99 -41h-30z" />
    <glyph glyph-name="Omacron" unicode="&#x14c;" horiz-adv-x="500" 
d="M60 184v432q0 79 55.5 134.5t134.5 55.5t134.5 -55.5t55.5 -134.5v-432q0 -79 -55.5 -134.5t-134.5 -55.5q-80 0 -135 55t-55 135zM140 179q0 -46 32 -78t78 -32q45 0 77.5 32t32.5 78v442q0 45 -32.5 77.5t-77.5 32.5q-46 0 -78 -32.5t-32 -77.5v-442zM117 890v65h265
v-65h-265z" />
    <glyph glyph-name="omacron" unicode="&#x14d;" 
d="M60 234v332q0 58 41 99t99 41t99 -41t41 -99v-332q0 -58 -41 -99t-99 -41t-99 41t-41 99zM140 229q0 -25 17.5 -42.5t42.5 -17.5t42.5 17.5t17.5 42.5v342q0 25 -17.5 42.5t-42.5 17.5t-42.5 -17.5t-17.5 -42.5v-342zM82 790v65h235v-65h-235z" />
    <glyph glyph-name="Obreve" unicode="&#x14e;" horiz-adv-x="500" 
d="M60 184v432q0 79 55.5 134.5t134.5 55.5t134.5 -55.5t55.5 -134.5v-432q0 -79 -55.5 -134.5t-134.5 -55.5q-80 0 -135 55t-55 135zM140 179q0 -46 32 -78t78 -32q45 0 77.5 32t32.5 78v442q0 45 -32.5 77.5t-77.5 32.5q-46 0 -78 -32.5t-32 -77.5v-442zM250 865v65
q27 0 43.5 12.5t16.5 32.5v17h65v-17q0 -49 -31.5 -79.5t-93.5 -30.5zM250 930v-65q-62 0 -93.5 30.5t-31.5 79.5v17h65v-17q0 -20 16.5 -32.5t43.5 -12.5z" />
    <glyph glyph-name="obreve" unicode="&#x14f;" 
d="M60 234v332q0 58 41 99t99 41t99 -41t41 -99v-332q0 -58 -41 -99t-99 -41t-99 41t-41 99zM140 229q0 -25 17.5 -42.5t42.5 -17.5t42.5 17.5t17.5 42.5v342q0 25 -17.5 42.5t-42.5 17.5t-42.5 -17.5t-17.5 -42.5v-342zM200 765v65q27 0 43.5 12.5t16.5 32.5v17h65v-17
q0 -49 -31.5 -79.5t-93.5 -30.5zM200 830v-65q-62 0 -93.5 30.5t-31.5 79.5v17h65v-17q0 -20 16.5 -32.5t43.5 -12.5z" />
    <glyph glyph-name="Ohungarumlaut" unicode="&#x150;" horiz-adv-x="500" 
d="M60 184v432q0 79 55.5 134.5t134.5 55.5t134.5 -55.5t55.5 -134.5v-432q0 -79 -55.5 -134.5t-134.5 -55.5q-80 0 -135 55t-55 135zM140 179q0 -46 32 -78t78 -32q45 0 77.5 32t32.5 78v442q0 45 -32.5 77.5t-77.5 32.5q-46 0 -78 -32.5t-32 -77.5v-442zM179 869l-40 46
l78 71l43 -52zM329 869l-40 46l78 71l43 -52z" />
    <glyph glyph-name="ohungarumlaut" unicode="&#x151;" 
d="M60 234v332q0 58 41 99t99 41t99 -41t41 -99v-332q0 -58 -41 -99t-99 -41t-99 41t-41 99zM140 229q0 -25 17.5 -42.5t42.5 -17.5t42.5 17.5t17.5 42.5v342q0 25 -17.5 42.5t-42.5 17.5t-42.5 -17.5t-17.5 -42.5v-342zM124 769l-40 46l78 71l43 -52zM274 769l-40 46l78 71
l43 -52z" />
    <glyph glyph-name="OE" unicode="&#x152;" horiz-adv-x="720" 
d="M360 0v28q-48 -34 -110 -34q-80 0 -135 55t-55 135v432q0 79 55.5 134.5t134.5 55.5q61 0 110 -35v29h310v-75h-230v-413h180v-75h-180v-162h230v-75h-310zM140 179q0 -46 32 -78t78 -32q44 0 76 30.5t34 74.5v451q-2 44 -34.5 75t-75.5 31q-46 0 -78 -32.5t-32 -77.5
v-442z" />
    <glyph glyph-name="oe" unicode="&#x153;" horiz-adv-x="550" 
d="M260 100v7q-29 -13 -60 -13q-58 0 -99 41t-41 99v332q0 58 41 99t99 41q32 0 60 -14v8h240v-75h-160v-268h135v-75h-135v-107h160v-75h-240zM140 229q0 -25 17.5 -42.5t42.5 -17.5t42.5 17.5t17.5 42.5v347q-2 23 -19.5 39t-40.5 16q-25 0 -42.5 -17.5t-17.5 -42.5v-342z
" />
    <glyph glyph-name="Racute" unicode="&#x154;" horiz-adv-x="500" 
d="M140 0h-80v800h190q79 0 134.5 -55.5t55.5 -134.5v-183q0 -96 -77 -153q77 -56 77 -152v-122h-80v127q0 44 -31 76t-75 34h-114v-237zM140 725v-413h114q44 2 75 33.5t31 76.5v193q0 45 -32.5 77.5t-77.5 32.5h-110zM173 868l-19 57l169 62l22 -67z" />
    <glyph glyph-name="racute" unicode="&#x155;" 
d="M60 100v600h140q58 0 99 -41t41 -99v-138q0 -60 -45 -103q45 -42 45 -102v-117h-80v122q0 25 -17.5 42.5t-42.5 17.5h-60v-182h-80zM140 625v-268h65q23 2 39 19t16 41v148q0 25 -17.5 42.5t-42.5 17.5h-60zM123 768l-19 57l169 62l22 -67z" />
    <glyph glyph-name="Rcommaaccent" unicode="&#x156;" horiz-adv-x="500" 
d="M140 0h-80v800h190q79 0 134.5 -55.5t55.5 -134.5v-183q0 -96 -77 -153q77 -56 77 -152v-122h-80v127q0 46 -32.5 78t-77.5 32h-110v-237zM140 725v-413h114q44 2 75 33.5t31 76.5v193q0 45 -32.5 77.5t-77.5 32.5h-110zM210 -50h80v-60q0 -22 -6 -49t-12 -43l-7 -16h-55
v168z" />
    <glyph glyph-name="rcommaaccent" unicode="&#x157;" 
d="M60 282v418h140q58 0 99 -41t41 -99v-138q0 -60 -45 -103q45 -42 45 -102v-117h-80v122q0 23 -16 40.5t-39 19.5h-145zM140 625v-268h65q23 2 39 19t16 41v148q0 25 -17.5 42.5t-42.5 17.5h-60zM60 100v182h80v-182h-80zM160 50h80v-60q0 -22 -6 -49t-12 -43l-7 -16h-55
v168z" />
    <glyph glyph-name="Rcaron" unicode="&#x158;" horiz-adv-x="500" 
d="M140 0h-80v800h190q79 0 134.5 -55.5t55.5 -134.5v-183q0 -96 -77 -153q77 -56 77 -152v-122h-80v127q0 44 -31 76t-75 34h-114v-237zM140 725v-413h114q44 2 75 33.5t31 76.5v193q0 45 -32.5 77.5t-77.5 32.5h-110zM111 959l47 52l67 -64l66 64l47 -52l-95 -87h-37z" />
    <glyph glyph-name="rcaron" unicode="&#x159;" 
d="M60 282v418h140q58 0 99 -41t41 -99v-138q0 -60 -45 -103q45 -42 45 -102v-117h-80v122q0 23 -16 40.5t-39 19.5h-145zM140 625v-268h65q23 2 39 19t16 41v148q0 25 -17.5 42.5t-42.5 17.5h-60zM76 859l47 52l67 -64l66 64l47 -52l-95 -87h-37zM60 100v182h80l-17 -182
h-63z" />
    <glyph glyph-name="Sacute" unicode="&#x15a;" horiz-adv-x="490" 
d="M198 868l-19 57l169 62l22 -67zM55 220h80v-41q0 -46 32 -78t78 -32t78 32t32 78v5q0 42 -29 73l-203 221q-62 54 -62 138q0 79 53.5 134.5t130.5 55.5q76 0 130 -55.5t54 -134.5v-36h-80v41q0 45 -30.5 77.5t-73.5 32.5q-44 0 -74 -32.5t-30 -77.5v-5q-1 -40 30 -75
l203 -220q61 -56 61 -137q0 -79 -55.5 -134.5t-134.5 -55.5t-134.5 55.5t-55.5 134.5v36z" />
    <glyph glyph-name="sacute" unicode="&#x15b;" horiz-adv-x="390" 
d="M55 280h80v-51q0 -25 17.5 -42.5t42.5 -17.5t42.5 17.5t17.5 42.5v5q0 18 -9 30l-156 211q-35 38 -35 91q0 58 41 99t99 41t99 -41t41 -99v-46h-80v51q0 25 -17.5 42.5t-42.5 17.5t-42.5 -17.5t-17.5 -42.5v-5q0 -18 10 -33l156 -211q34 -39 34 -88q0 -58 -41 -99
t-99 -41t-99 41t-41 99v46zM143 768l-19 57l169 62l22 -67z" />
    <glyph glyph-name="Scircumflex" unicode="&#x15c;" horiz-adv-x="490" 
d="M55 220h80v-41q0 -46 32 -78t78 -32t78 32t32 78v5q0 42 -29 73l-203 221q-62 54 -62 138q0 79 53.5 134.5t130.5 55.5q76 0 130 -55.5t54 -134.5v-36h-80v41q0 45 -30.5 77.5t-73.5 32.5q-44 0 -74 -32.5t-30 -77.5v-5q-1 -40 30 -75l203 -220q61 -56 61 -137
q0 -79 -55.5 -134.5t-134.5 -55.5t-134.5 55.5t-55.5 134.5v36zM358 924l-47 -52l-66 64l-67 -64l-47 52l96 87h36z" />
    <glyph glyph-name="scircumflex" unicode="&#x15d;" horiz-adv-x="390" 
d="M55 280h80v-51q0 -25 17.5 -42.5t42.5 -17.5t42.5 17.5t17.5 42.5v5q0 18 -9 30l-156 211q-35 38 -35 91q0 58 41 99t99 41t99 -41t41 -99v-46h-80v51q0 25 -17.5 42.5t-42.5 17.5t-42.5 -17.5t-17.5 -42.5v-5q0 -18 10 -33l156 -211q34 -39 34 -88q0 -58 -41 -99
t-99 -41t-99 41t-41 99v46zM308 824l-47 -52l-66 64l-67 -64l-47 52l96 87h36z" />
    <glyph glyph-name="Scedilla" unicode="&#x15e;" horiz-adv-x="490" 
d="M55 220h80v-41q0 -46 32 -78t78 -32t78 32t32 78v5q0 42 -29 73l-203 221q-62 54 -62 138q0 79 53.5 134.5t130.5 55.5q76 0 130 -55.5t54 -134.5v-36h-80v41q0 45 -30.5 77.5t-73.5 32.5q-44 0 -74 -32.5t-30 -77.5v-5q-1 -40 30 -75l203 -220q61 -56 61 -137
q0 -73 -48 -126.5t-120 -61.5l-12 -25h29q28 0 43.5 -20t15.5 -51q0 -34 -29.5 -61t-83.5 -27q-28 0 -52 12t-34 24l-10 12l17 29q35 -37 79 -37q22 0 33.5 14.5t11.5 33.5q0 14 -9.5 24.5t-26.5 10.5h-61l35 62q-68 11 -113 64t-45 123v36z" />
    <glyph glyph-name="scedilla" unicode="&#x15f;" horiz-adv-x="390" 
d="M55 280h80v-51q0 -25 17.5 -42.5t42.5 -17.5t42.5 17.5t17.5 42.5v5q0 18 -9 30l-156 211q-35 38 -35 91q0 58 41 99t99 41t99 -41t41 -99v-46h-80v51q0 25 -17.5 42.5t-42.5 17.5t-42.5 -17.5t-17.5 -42.5v-5q0 -18 10 -33l156 -211q34 -39 34 -88q0 -50 -32 -88.5
t-80 -48.5l-13 -26h29q28 0 43.5 -20t15.5 -51q0 -34 -29.5 -61t-83.5 -27q-28 0 -52 12t-34 24l-10 12l17 29q35 -37 79 -37q22 0 33.5 14.5t11.5 33.5q0 14 -9.5 24.5t-26.5 10.5h-61l35 62q-48 9 -80.5 47.5t-32.5 89.5v46z" />
    <glyph glyph-name="Scaron" unicode="&#x160;" horiz-adv-x="490" 
d="M55 220h80v-41q0 -46 32 -78t78 -32t78 32t32 78v5q0 42 -29 73l-203 221q-62 54 -62 138q0 79 53.5 134.5t130.5 55.5q76 0 130 -55.5t54 -134.5v-36h-80v41q0 45 -30.5 77.5t-73.5 32.5q-44 0 -74 -32.5t-30 -77.5v-5q-1 -40 30 -75l203 -220q61 -56 61 -137
q0 -79 -55.5 -134.5t-134.5 -55.5t-134.5 55.5t-55.5 134.5v36zM131 959l47 52l67 -64l66 64l47 -52l-95 -87h-37z" />
    <glyph glyph-name="scaron" unicode="&#x161;" horiz-adv-x="390" 
d="M55 280h80v-51q0 -25 17.5 -42.5t42.5 -17.5t42.5 17.5t17.5 42.5v5q0 18 -9 30l-156 211q-35 38 -35 91q0 58 41 99t99 41t99 -41t41 -99v-46h-80v51q0 25 -17.5 42.5t-42.5 17.5t-42.5 -17.5t-17.5 -42.5v-5q0 -18 10 -33l156 -211q34 -39 34 -88q0 -58 -41 -99
t-99 -41t-99 41t-41 99v46zM81 859l47 52l67 -64l66 64l47 -52l-95 -87h-37z" />
    <glyph glyph-name="Tcommaaccent" unicode="&#x162;" horiz-adv-x="410" 
d="M30 725v75h350v-75h-136v-725h-80v725h-134zM164 -50h80v-60q0 -22 -6 -49t-12 -43l-7 -16h-55v168z" />
    <glyph glyph-name="tcommaaccent" unicode="&#x163;" horiz-adv-x="310" 
d="M30 625v75h250v-75h-85v-525h-80v525h-85zM115 50h80v-60q0 -22 -6.5 -49t-12.5 -43l-6 -16h-55v168z" />
    <glyph glyph-name="Tcaron" unicode="&#x164;" horiz-adv-x="410" 
d="M30 725v75h350v-75h-136v-725h-80v725h-134zM91 959l47 52l67 -64l66 64l47 -52l-95 -87h-37z" />
    <glyph glyph-name="tcaron" unicode="&#x165;" horiz-adv-x="310" 
d="M30 625v75h250v-75h-85v-525h-80v525h-85zM41 859l47 52l67 -64l66 64l47 -52l-95 -87h-37z" />
    <glyph glyph-name="Tbar" unicode="&#x166;" horiz-adv-x="410" 
d="M30 725v75h350v-75h-136v-413h93v-65h-93v-247h-80v247h-92v65h92v413h-134z" />
    <glyph glyph-name="tbar" unicode="&#x167;" horiz-adv-x="310" 
d="M30 625v75h250v-75h-85v-268h77v-65h-77v-192h-80v192h-78v65h78v268h-85z" />
    <glyph glyph-name="Utilde" unicode="&#x168;" horiz-adv-x="500" 
d="M140 179q-1 -46 31.5 -78t78.5 -32q45 0 77.5 32t32.5 78v621h80v-616q0 -79 -55.5 -134.5t-134.5 -55.5q-80 0 -135 55t-55 135v616h80v-621zM146 889l-9 -5l-27 56l8 5q40 22 88 22q17 0 46.5 -12t45.5 -12q14 0 28 3t21 6t7 4l8 4l27 -56l-8 -4q-39 -22 -85 -22
q-18 0 -49 12t-46 12q-14 0 -27.5 -3t-20.5 -6t-7 -4z" />
    <glyph glyph-name="utilde" unicode="&#x169;" 
d="M140 229q0 -25 17.5 -42.5t42.5 -17.5t42.5 17.5t17.5 42.5v471h80v-466q0 -58 -41 -99t-99 -41t-99 41t-41 99v466h80v-471zM96 789l-9 -5l-27 56l8 5q40 22 88 22q17 0 46.5 -12t45.5 -12q14 0 28 3t21 6t7 4l8 4l27 -56l-8 -4q-39 -22 -85 -22q-18 0 -48.5 12
t-46.5 12q-14 0 -27.5 -3t-20.5 -6t-7 -4z" />
    <glyph glyph-name="Umacron" unicode="&#x16a;" horiz-adv-x="500" 
d="M140 179q0 -46 32 -78t78 -32q45 0 77.5 32t32.5 78v621h80v-616q0 -79 -55.5 -134.5t-134.5 -55.5q-80 0 -135 55t-55 135v616h80v-621zM117 890v65h265v-65h-265z" />
    <glyph glyph-name="umacron" unicode="&#x16b;" 
d="M140 229q0 -25 17.5 -42.5t42.5 -17.5t42.5 17.5t17.5 42.5v471h80v-466q0 -58 -41 -99t-99 -41t-99 41t-41 99v466h80v-471zM82 790v65h235v-65h-235z" />
    <glyph glyph-name="Ubreve" unicode="&#x16c;" horiz-adv-x="500" 
d="M140 179q0 -46 32 -78t78 -32q45 0 77.5 32t32.5 78v621h80v-616q0 -79 -55.5 -134.5t-134.5 -55.5q-80 0 -135 55t-55 135v616h80v-621zM250 930q27 0 43.5 12.5t16.5 32.5v17h65v-17q0 -49 -31.5 -79.5t-93.5 -30.5t-93.5 30.5t-31.5 79.5v17h65v-17q0 -20 16.5 -32.5
t43.5 -12.5z" />
    <glyph glyph-name="ubreve" unicode="&#x16d;" 
d="M140 229q0 -25 17.5 -42.5t42.5 -17.5t42.5 17.5t17.5 42.5v471h80v-466q0 -58 -41 -99t-99 -41t-99 41t-41 99v466h80v-471zM200 830q27 0 43.5 12.5t16.5 32.5v17h65v-17q0 -49 -31.5 -79.5t-93.5 -30.5t-93.5 30.5t-31.5 79.5v17h65v-17q0 -20 16.5 -32.5t43.5 -12.5z
" />
    <glyph glyph-name="Uring" unicode="&#x16e;" horiz-adv-x="500" 
d="M140 179q0 -46 32 -78t78 -32q45 0 77.5 32t32.5 78v621h80v-616q0 -79 -55.5 -134.5t-134.5 -55.5q-80 0 -135 55t-55 135v616h80v-621zM140 925q0 45 32 77.5t78 32.5q45 0 77.5 -32.5t32.5 -77.5q0 -46 -32.5 -78t-77.5 -32q-46 0 -78 32t-32 78zM205 925
q0 -19 13 -32t32 -13q18 0 31.5 13t13.5 32q0 18 -13 31.5t-32 13.5t-32 -13.5t-13 -31.5z" />
    <glyph glyph-name="uring" unicode="&#x16f;" 
d="M140 229q0 -25 17.5 -42.5t42.5 -17.5t42.5 17.5t17.5 42.5v471h80v-466q0 -58 -41 -99t-99 -41t-99 41t-41 99v466h80v-471zM90 825q0 45 32 77.5t78 32.5q45 0 77.5 -32.5t32.5 -77.5q0 -46 -32.5 -78t-77.5 -32q-46 0 -78 32t-32 78zM155 825q0 -19 13 -32t32 -13
q18 0 31.5 13t13.5 32q0 18 -13 31.5t-32 13.5t-32 -13.5t-13 -31.5z" />
    <glyph glyph-name="Uhungarumlaut" unicode="&#x170;" horiz-adv-x="500" 
d="M140 179q0 -46 32 -78t78 -32q45 0 77.5 32t32.5 78v621h80v-616q0 -79 -55.5 -134.5t-134.5 -55.5q-80 0 -135 55t-55 135v616h80v-621zM179 869l-40 46l78 71l43 -52zM329 869l-40 46l78 71l43 -52z" />
    <glyph glyph-name="uhungarumlaut" unicode="&#x171;" 
d="M140 229q0 -25 17.5 -42.5t42.5 -17.5t42.5 17.5t17.5 42.5v471h80v-466q0 -58 -41 -99t-99 -41t-99 41t-41 99v466h80v-471zM124 769l-40 46l78 71l43 -52zM274 769l-40 46l78 71l43 -52z" />
    <glyph glyph-name="Uogonek" unicode="&#x172;" horiz-adv-x="500" 
d="M140 179q0 -46 32 -78t78 -32q45 0 77.5 32t32.5 78v621h80v-616q0 -65 -39 -115.5t-100 -67.5q-65 -65 -65 -90q0 -24 24 -24q8 0 17 4.5t14 9.5l5 5l37 -20q-3 -5 -9 -13.5t-25 -22t-39 -13.5q-88 0 -88 78q0 42 38 84q-66 13 -108 64.5t-42 120.5v616h80v-621z" />
    <glyph glyph-name="uogonek" unicode="&#x173;" 
d="M140 229q0 -25 17.5 -42.5t42.5 -17.5t42.5 17.5t17.5 42.5v471h80v-466q0 -45 -26.5 -82t-68.5 -51q-65 -65 -65 -89t24 -24q8 0 17 4.5t14 9.5l5 5l37 -20q-3 -5 -9 -13.5t-25 -22t-39 -13.5q-88 0 -88 78q0 42 39 85q-42 14 -68.5 50.5t-26.5 82.5v466h80v-471z" />
    <glyph glyph-name="Wcircumflex" unicode="&#x174;" horiz-adv-x="550" 
d="M60 0v800h80v-643l95 160h80l95 -161v644h80v-800h-80l-135 227l-135 -227h-80zM388 924l-47 -52l-66 64l-67 -64l-47 52l96 87h36z" />
    <glyph glyph-name="wcircumflex" unicode="&#x175;" horiz-adv-x="450" 
d="M140 700v-429l50 94h70l50 -95v430h80v-600h-80l-85 167l-85 -167h-80v600h80zM338 824l-47 -52l-66 64l-67 -64l-47 52l96 87h36z" />
    <glyph glyph-name="Ycircumflex" unicode="&#x176;" horiz-adv-x="470" 
d="M195 0v237l-156 563h83l113 -421l113 421h83l-156 -563v-237h-80zM348 924l-47 -52l-66 64l-67 -64l-47 52l96 87h36z" />
    <glyph glyph-name="ycircumflex" unicode="&#x177;" horiz-adv-x="387" 
d="M153 100v182l-111 418h75l76 -291l76 291h75l-111 -418v-182h-80zM306 824l-47 -52l-66 64l-67 -64l-47 52l96 87h36z" />
    <glyph glyph-name="Ydieresis" unicode="&#x178;" horiz-adv-x="470" 
d="M195 0v237l-156 563h83l113 -421l113 421h83l-156 -563v-237h-80zM279 925q0 17 12 29t29 12q16 0 28.5 -12t12.5 -29t-12 -29t-29 -12t-29 12t-12 29zM109 925q0 17 12 29t29 12q16 0 28.5 -12t12.5 -29t-12 -29t-29 -12t-29 12t-12 29z" />
    <glyph glyph-name="Zacute" unicode="&#x179;" horiz-adv-x="490" 
d="M66 725v75h358v-75l-277 -650h283v-75h-370v75l277 650h-271zM168 868l-19 57l169 62l22 -67z" />
    <glyph glyph-name="zacute" unicode="&#x17a;" 
d="M66 625v75h268v-75l-192 -450h198v-75h-280v75l191 450h-185zM148 768l-19 57l169 62l22 -67z" />
    <glyph glyph-name="Zdotaccent" unicode="&#x17b;" horiz-adv-x="490" 
d="M66 725v75h358v-75l-277 -650h283v-75h-370v75l277 650h-271zM199 925q0 19 13.5 32.5t32.5 13.5t32.5 -13.5t13.5 -32.5t-13.5 -32.5t-32.5 -13.5t-32.5 13.5t-13.5 32.5z" />
    <glyph glyph-name="zdotaccent" unicode="&#x17c;" 
d="M66 625v75h268v-75l-192 -450h198v-75h-280v75l191 450h-185zM154 825q0 19 13.5 32.5t32.5 13.5t32.5 -13.5t13.5 -32.5t-13.5 -32.5t-32.5 -13.5q-20 0 -33 13.5t-13 32.5z" />
    <glyph glyph-name="Zcaron" unicode="&#x17d;" horiz-adv-x="490" 
d="M66 725v75h358v-75l-277 -650h283v-75h-370v75l277 650h-271zM131 959l47 52l67 -64l66 64l47 -52l-95 -87h-37z" />
    <glyph glyph-name="zcaron" unicode="&#x17e;" 
d="M66 625v75h268v-75l-192 -450h198v-75h-280v75l191 450h-185zM86 859l47 52l67 -64l66 64l47 -52l-95 -87h-37z" />
    <glyph glyph-name="florin" unicode="&#x192;" horiz-adv-x="355" 
d="M342 700v-75h-75q-25 0 -42.5 -17.5t-17.5 -42.5v-98h98v-75h-98v-252q0 -58 -41 -99t-99 -41h-40v75h40q25 0 42.5 17.5t17.5 42.5v257h-72v75h72v93q0 58 41 99t99 41h75z" />
    <glyph glyph-name="AEacute" unicode="&#x1fc;" horiz-adv-x="685" 
d="M325 0v135h-178l-37 -135h-81l221 800h385v-75h-230v-413h180v-75h-180v-162h230v-75h-310zM309 725l-142 -515h158v515h-16zM360 868l-19 57l169 62l22 -67z" />
    <glyph glyph-name="aeacute" unicode="&#x1fd;" horiz-adv-x="548" 
d="M258 100v115h-117l-28 -115h-74l141 600h318v-75h-160v-268h135v-75h-135v-107h160v-75h-240zM241 625l-82 -335h99v335h-17zM265 768l-19 57l169 62l22 -67z" />
    <glyph glyph-name="Oslashacute" unicode="&#x1fe;" horiz-adv-x="500" 
d="M60 184v432q0 79 55.5 134.5t134.5 55.5q61 0 112 -37l18 45l65 -28l-31 -75q26 -43 26 -95v-432q0 -79 -55.5 -134.5t-134.5 -55.5q-63 0 -112 36l-18 -44l-65 28l30 74q-25 44 -25 96zM250 69q45 0 77.5 32t32.5 78v397l-192 -471q33 -36 82 -36zM140 621v-397l191 470
q-32 37 -81 37q-46 0 -78 -32.5t-32 -77.5zM198 868l-19 57l169 62l22 -67z" />
    <glyph glyph-name="oslashacute" unicode="&#x1ff;" 
d="M60 234v332q0 58 41 99t99 41q38 0 72 -21l10 27l60 -25l-20 -53q18 -33 18 -68v-332q0 -58 -41 -99t-99 -41q-41 0 -73 20l-10 -27l-60 25l20 54q-17 31 -17 68zM200 169q25 0 42.5 17.5t17.5 42.5v239l-105 -279q18 -20 45 -20zM140 571v-238l104 278q-18 20 -44 20
q-25 0 -42.5 -17.5t-17.5 -42.5zM148 768l-19 57l169 62l22 -67z" />
    <glyph glyph-name="Scommaaccent" unicode="&#x218;" horiz-adv-x="490" 
d="M55 220h80v-41q0 -46 32 -78t78 -32t78 32t32 78v5q0 42 -29 73l-203 221q-62 54 -62 138q0 79 53.5 134.5t130.5 55.5q76 0 130 -55.5t54 -134.5v-36h-80v41q0 45 -30.5 77.5t-73.5 32.5q-44 0 -74 -32.5t-30 -77.5v-5q-1 -40 30 -75l203 -220q61 -56 61 -137
q0 -79 -55.5 -134.5t-134.5 -55.5t-134.5 55.5t-55.5 134.5v36zM210 -50h80v-60q0 -22 -6 -49t-12 -43l-7 -16h-55v168z" />
    <glyph glyph-name="scommaaccent" unicode="&#x219;" horiz-adv-x="390" 
d="M55 280h80v-51q0 -25 17.5 -42.5t42.5 -17.5t42.5 17.5t17.5 42.5v5q0 18 -9 30l-156 211q-35 38 -35 91q0 58 41 99t99 41t99 -41t41 -99v-46h-80v51q0 25 -17.5 42.5t-42.5 17.5t-42.5 -17.5t-17.5 -42.5v-5q0 -18 10 -33l156 -211q34 -39 34 -88q0 -58 -41 -99
t-99 -41t-99 41t-41 99v46zM160 50h80v-60q0 -22 -6 -49t-12 -43l-7 -16h-55v168z" />
    <glyph glyph-name="uni021A" unicode="&#x21a;" horiz-adv-x="410" 
d="M30 725v75h350v-75h-136v-725h-80v725h-134zM164 -50h80v-60q0 -22 -6 -49t-12 -43l-7 -16h-55v168z" />
    <glyph glyph-name="uni021B" unicode="&#x21b;" horiz-adv-x="310" 
d="M30 625v75h250v-75h-85v-525h-80v525h-85zM115 50h80v-60q0 -22 -6.5 -49t-12.5 -43l-6 -16h-55v168z" />
    <glyph glyph-name="circumflex" unicode="&#x2c6;" horiz-adv-x="330" 
d="M278 824l-47 -52l-66 64l-67 -64l-47 52l96 87h36z" />
    <glyph glyph-name="caron" unicode="&#x2c7;" horiz-adv-x="330" 
d="M51 859l47 52l67 -64l66 64l47 -52l-95 -87h-37z" />
    <glyph glyph-name="breve" unicode="&#x2d8;" horiz-adv-x="330" 
d="M165 765v65q27 0 43.5 12.5t16.5 32.5v17h65v-17q0 -49 -31.5 -79.5t-93.5 -30.5zM165 830v-65q-62 0 -93.5 30.5t-31.5 79.5v17h65v-17q0 -20 16.5 -32.5t43.5 -12.5z" />
    <glyph glyph-name="dotaccent" unicode="&#x2d9;" horiz-adv-x="215" 
d="M54 825q0 19 13.5 32.5t32.5 13.5t32.5 -13.5t13.5 -32.5t-13.5 -32.5t-32.5 -13.5q-20 0 -33 13.5t-13 32.5z" />
    <glyph glyph-name="ring" unicode="&#x2da;" horiz-adv-x="330" 
d="M55 825q0 45 32 77.5t78 32.5q45 0 77.5 -32.5t32.5 -77.5q0 -46 -32.5 -78t-77.5 -32q-46 0 -78 32t-32 78zM120 825q0 -19 13 -32t32 -13q18 0 31.5 13t13.5 32q0 18 -13 31.5t-32 13.5t-32 -13.5t-13 -31.5z" />
    <glyph glyph-name="ogonek" unicode="&#x2db;" horiz-adv-x="200" 
d="M84 119l68 -19l-18 -17q-17 -17 -35 -41t-18 -37q0 -24 24 -24q8 0 17 4.5t14 9.5l5 5l37 -20q-3 -5 -9 -13.5t-25 -22t-39 -13.5q-88 0 -88 78q0 27 16.5 54.5t33.5 41.5z" />
    <glyph glyph-name="tilde" unicode="&#x2dc;" horiz-adv-x="200" 
d="M-4 789l-9 -5l-27 56l8 5q40 22 88 22q17 0 46.5 -12t45.5 -12q14 0 28 3t21 6t7 4l8 4l27 -56l-8 -4q-39 -22 -85 -22q-18 0 -48.5 12t-46.5 12q-14 0 -27.5 -3t-20.5 -6t-7 -4z" />
    <glyph glyph-name="hungarumlaut" unicode="&#x2dd;" horiz-adv-x="350" 
d="M95 769l-40 46l78 71l43 -52zM245 769l-40 46l78 71l43 -52z" />
    <glyph glyph-name="uni037E" unicode="&#x37e;" horiz-adv-x="215" 
d="M60 180h80v-60q0 -22 -6 -49t-12 -43l-7 -16h-55v168zM54 561q0 19 13.5 32.5t32.5 13.5t32.5 -13.5t13.5 -32.5t-13.5 -32.5t-32.5 -13.5q-20 0 -33 13.5t-13 32.5z" />
    <glyph glyph-name="tonos" unicode="&#x384;" horiz-adv-x="200" 
d="M130 762h-60q-8 63 -8 88v75h75v-75z" />
    <glyph glyph-name="Alphatonos" unicode="&#x386;" horiz-adv-x="502" 
d="M290 800l173 -800h-81l-29 135h-205l-28 -135h-81l171 800h80zM250 624l-87 -414h174zM281 862h-60q-8 63 -8 88v75h75v-75z" />
    <glyph glyph-name="Epsilontonos" unicode="&#x388;" horiz-adv-x="420" 
d="M60 0v800h310v-75h-230v-413h180v-75h-180v-162h230v-75h-310zM246 862h-60q-8 63 -8 88v75h75v-75z" />
    <glyph glyph-name="Etatonos" unicode="&#x389;" horiz-adv-x="500" 
d="M360 0v237h-220v-237h-80v800h80v-488h220v488h80v-800h-80zM280 862h-60q-8 63 -8 88v75h75v-75z" />
    <glyph glyph-name="Iotatonos" unicode="&#x38a;" horiz-adv-x="215" 
d="M67 0v800h80v-800h-80zM135 862h-60q-8 63 -8 88v75h75v-75z" />
    <glyph glyph-name="Omicrontonos" unicode="&#x38c;" horiz-adv-x="500" 
d="M60 184v432q0 79 55.5 134.5t134.5 55.5t134.5 -55.5t55.5 -134.5v-432q0 -79 -55.5 -134.5t-134.5 -55.5q-80 0 -135 55t-55 135zM140 179q0 -46 32 -78t78 -32q45 0 77.5 32t32.5 78v442q0 45 -32.5 77.5t-77.5 32.5q-46 0 -78 -32.5t-32 -77.5v-442zM280 862h-60
q-8 63 -8 88v75h75v-75z" />
    <glyph glyph-name="Upsilontonos" unicode="&#x38e;" horiz-adv-x="470" 
d="M195 0v237l-156 563h83l113 -421l113 421h83l-156 -563v-237h-80zM265 862h-60q-8 63 -8 88v75h75v-75z" />
    <glyph glyph-name="Omegatonos" unicode="&#x38f;" horiz-adv-x="500" 
d="M354 343q6 22 6 36v242q0 45 -32 77.5t-78 32.5t-78 -32.5t-32 -77.5v-242q0 -19 6 -36l84 -268v-75h-170v75h87l-77 248q-10 27 -10 61v232q0 79 55.5 134.5t134.5 55.5t134.5 -55.5t55.5 -134.5v-232q0 -29 -10 -61l-78 -248h88v-75h-170v75zM280 862h-60q-8 63 -8 88
v75h75v-75z" />
    <glyph glyph-name="iotadieresistonos" unicode="&#x390;" horiz-adv-x="215" 
d="M-47 825q0 17 12.5 29t28.5 12q17 0 29 -12t12 -29t-12 -29t-29 -12t-29 12t-12 29zM178 825q0 17 12 29t29 12t29 -12t12 -29t-12 -29t-29 -12t-29 12t-12 29zM136 762h-60q-7 63 -7 88v75h75v-75zM67 100v600h80v-600h-80z" />
    <glyph glyph-name="Alpha" unicode="&#x391;" horiz-adv-x="502" 
d="M290 800l173 -800h-81l-29 135h-205l-28 -135h-81l171 800h80zM250 624l-87 -414h174z" />
    <glyph glyph-name="Beta" unicode="&#x392;" horiz-adv-x="500" 
d="M60 0v800h190q79 0 134.5 -55.5t55.5 -134.5v-115q0 -96 -77 -153q77 -56 77 -152q0 -79 -55.5 -134.5t-134.5 -55.5h-190zM140 725v-345h114q44 2 75 33.5t31 76.5v125q0 45 -32.5 77.5t-77.5 32.5h-110zM140 305v-230h110q45 0 77.5 32t32.5 78v10q0 45 -32.5 77.5
t-77.5 32.5h-110z" />
    <glyph glyph-name="Gamma" unicode="&#x393;" horiz-adv-x="415" 
d="M60 0v800h330v-75h-250v-725h-80z" />
    <glyph glyph-name="Delta" unicode="&#x394;" horiz-adv-x="502" 
d="M290 800l173 -800h-424l171 800h80zM250 624l-115 -549h231z" />
    <glyph glyph-name="Delta" unicode="&#x2206;" horiz-adv-x="502" 
d="M290 800l173 -800h-424l171 800h80zM250 624l-115 -549h231z" />
    <glyph glyph-name="Epsilon" unicode="&#x395;" horiz-adv-x="420" 
d="M60 0v800h310v-75h-230v-413h180v-75h-180v-162h230v-75h-310z" />
    <glyph glyph-name="Zeta" unicode="&#x396;" horiz-adv-x="490" 
d="M66 725v75h358v-75l-277 -650h283v-75h-370v75l277 650h-271z" />
    <glyph glyph-name="Eta" unicode="&#x397;" horiz-adv-x="500" 
d="M360 0v237h-220v-237h-80v800h80v-488h220v488h80v-800h-80z" />
    <glyph glyph-name="Theta" unicode="&#x398;" horiz-adv-x="500" 
d="M60 184v432q0 79 55.5 134.5t134.5 55.5t134.5 -55.5t55.5 -134.5v-432q0 -79 -55.5 -134.5t-134.5 -55.5q-80 0 -135 55t-55 135zM140 179q0 -46 32 -78t78 -32q45 0 77.5 32t32.5 78v442q0 45 -32.5 77.5t-77.5 32.5q-46 0 -78 -32.5t-32 -77.5v-442zM185 237v75h127
v-75h-127z" />
    <glyph glyph-name="Iota" unicode="&#x399;" horiz-adv-x="215" 
d="M67 0v800h80v-800h-80z" />
    <glyph glyph-name="Kappa" unicode="&#x39a;" horiz-adv-x="500" 
d="M60 0v800h80v-395l211 395h90l-176 -329l181 -471h-86l-145 378l-75 -141v-237h-80z" />
    <glyph glyph-name="Lambda" unicode="&#x39b;" horiz-adv-x="502" 
d="M290 800l173 -800h-81l-132 624l-130 -624h-81l171 800h80z" />
    <glyph glyph-name="Mu" unicode="&#x39c;" horiz-adv-x="550" 
d="M490 800v-800h-80v643l-95 -161h-80l-95 160v-642h-80v800h80l135 -227l135 227h80z" />
    <glyph glyph-name="Nu" unicode="&#x39d;" horiz-adv-x="525" 
d="M385 0l-245 590v-590h-80v800h80l245 -590v590h80v-800h-80z" />
    <glyph glyph-name="Xi" unicode="&#x39e;" horiz-adv-x="382" 
d="M78 237v75h225v-75h-225zM25 0v75h332v-75h-332zM26 725v75h330v-75h-330z" />
    <glyph glyph-name="Omicron" unicode="&#x39f;" horiz-adv-x="500" 
d="M60 184v432q0 79 55.5 134.5t134.5 55.5t134.5 -55.5t55.5 -134.5v-432q0 -79 -55.5 -134.5t-134.5 -55.5q-80 0 -135 55t-55 135zM140 179q0 -46 32 -78t78 -32q45 0 77.5 32t32.5 78v442q0 45 -32.5 77.5t-77.5 32.5q-46 0 -78 -32.5t-32 -77.5v-442z" />
    <glyph glyph-name="Pi" unicode="&#x3a0;" horiz-adv-x="500" 
d="M360 0v725h-220v-725h-80v800h380v-800h-80z" />
    <glyph glyph-name="Rho" unicode="&#x3a1;" horiz-adv-x="500" 
d="M60 0v800h190q79 0 134.5 -55.5t55.5 -134.5v-183q0 -79 -55.5 -134.5t-134.5 -55.5h-110v-237h-80zM140 725v-413h110q45 0 77.5 32t32.5 78v193q0 45 -32.5 77.5t-77.5 32.5h-110z" />
    <glyph glyph-name="Sigma" unicode="&#x3a3;" horiz-adv-x="480" 
d="M60 0v75l154 205l-148 445v75h358v-75h-274l137 -413v-75l-127 -162h270v-75h-370z" />
    <glyph glyph-name="Tau" unicode="&#x3a4;" horiz-adv-x="410" 
d="M30 725v75h350v-75h-136v-725h-80v725h-134z" />
    <glyph glyph-name="Upsilon" unicode="&#x3a5;" horiz-adv-x="470" 
d="M195 0v237l-156 563h83l113 -421l113 421h83l-156 -563v-237h-80z" />
    <glyph glyph-name="Phi" unicode="&#x3a6;" horiz-adv-x="680" 
d="M300 700v100h80v-100h60q79 0 134.5 -55.5t55.5 -134.5v-220q0 -79 -55.5 -134.5t-134.5 -55.5h-60v-100h-80v100h-60q-79 0 -134.5 55.5t-55.5 134.5v220q0 79 55.5 134.5t134.5 55.5h60zM300 175v450h-60q-46 0 -78 -32t-32 -78v-230q0 -46 32 -78t78 -32h60zM380 625
v-450h60q45 0 77.5 32t32.5 78v230q0 46 -32.5 78t-77.5 32h-60z" />
    <glyph glyph-name="Chi" unicode="&#x3a7;" horiz-adv-x="500" 
d="M440 800l-148 -392l154 -408h-86l-111 294l-110 -294h-85l153 408l-147 392h85l104 -278l105 278h86z" />
    <glyph glyph-name="Psi" unicode="&#x3a8;" horiz-adv-x="525" 
d="M235 0v234q-76 14 -125.5 73t-49.5 138v355h80v-360q0 -45 26.5 -80.5t68.5 -48.5v489h80v-489q42 13 68.5 48.5t26.5 80.5v360h80v-355q0 -79 -49.5 -138t-125.5 -73v-234h-80z" />
    <glyph glyph-name="Omega" unicode="&#x3a9;" horiz-adv-x="500" 
d="M440 75v-75h-170v75l84 268q6 22 6 36v242q0 45 -32 77.5t-78 32.5t-78 -32.5t-32 -77.5v-242q0 -19 6 -36l84 -268v-75h-170v75h87l-77 248q-10 27 -10 61v232q0 79 55.5 134.5t134.5 55.5t134.5 -55.5t55.5 -134.5v-232q0 -29 -10 -61l-78 -248h88z" />
    <glyph glyph-name="Omega" unicode="&#x2126;" horiz-adv-x="500" 
d="M440 75v-75h-170v75l84 268q6 22 6 36v242q0 45 -32 77.5t-78 32.5t-78 -32.5t-32 -77.5v-242q0 -19 6 -36l84 -268v-75h-170v75h87l-77 248q-10 27 -10 61v232q0 79 55.5 134.5t134.5 55.5t134.5 -55.5t55.5 -134.5v-232q0 -29 -10 -61l-78 -248h88z" />
    <glyph glyph-name="Iotadieresis" unicode="&#x3aa;" horiz-adv-x="215" 
d="M67 0v800h80v-800h-80zM-21 925q0 17 12 29t29 12q16 0 28.5 -12t12.5 -29t-12 -29t-29 -12t-29 12t-12 29zM149 925q0 17 12 29t29 12q16 0 28.5 -12t12.5 -29t-12 -29t-29 -12t-29 12t-12 29z" />
    <glyph glyph-name="Upsilondieresis" unicode="&#x3ab;" horiz-adv-x="470" 
d="M195 0v237l-156 563h83l113 -421l113 421h83l-156 -563v-237h-80zM279 925q0 17 12 29t29 12q16 0 28.5 -12t12.5 -29t-12 -29t-29 -12t-29 12t-12 29zM109 925q0 17 12 29t29 12q16 0 28.5 -12t12.5 -29t-12 -29t-29 -12t-29 12t-12 29z" />
    <glyph glyph-name="alphatonos" unicode="&#x3ac;" horiz-adv-x="391" 
d="M235 700l117 -600h-75l-22 115h-119l-22 -115h-75l116 600h80zM225 762h-60q-8 63 -8 88v75h75v-75zM195 527l-45 -237h90z" />
    <glyph glyph-name="epsilontonos" unicode="&#x3ad;" horiz-adv-x="350" 
d="M60 100v600h240v-75h-160v-268h135v-75h-135v-107h160v-75h-240zM210 762h-60q-8 63 -8 88v75h75v-75z" />
    <glyph glyph-name="etatonos" unicode="&#x3ae;" 
d="M260 100v182h-120v-182h-80v600h80v-343h120v343h80v-600h-80zM230 762h-60q-8 63 -8 88v75h75v-75z" />
    <glyph glyph-name="iotatonos" unicode="&#x3af;" horiz-adv-x="215" 
d="M67 100v600h80v-600h-80zM135 762h-60q-8 63 -8 88v75h75v-75z" />
    <glyph glyph-name="upsilondieresistonos" unicode="&#x3b0;" horiz-adv-x="387" 
d="M153 100v182l-111 418h75l76 -291l76 291h75l-111 -418v-182h-80zM223 762h-60q-7 63 -7 88v75h75v-75zM40 825q0 17 12 29t29 12t29 -12t12 -29t-12 -29t-29 -12t-29 12t-12 29zM265 825q0 17 12.5 29t28.5 12q17 0 29 -12t12 -29t-12 -29t-29 -12t-29 12t-12 29z" />
    <glyph glyph-name="alpha" unicode="&#x3b1;" horiz-adv-x="391" 
d="M235 700l117 -600h-75l-22 115h-119l-22 -115h-75l116 600h80zM195 527l-45 -237h90z" />
    <glyph glyph-name="beta" unicode="&#x3b2;" 
d="M60 100v600h140q58 0 99 -41t41 -99v-115q0 -60 -45 -103q45 -42 45 -102q0 -58 -41 -99t-99 -41h-140zM140 625v-245h65q23 2 39 19t16 41v125q0 25 -17.5 42.5t-42.5 17.5h-60zM140 305v-130h60q25 0 42.5 17.5t17.5 42.5v10q0 25 -17.5 42.5t-42.5 17.5h-60z" />
    <glyph glyph-name="gamma" unicode="&#x3b3;" horiz-adv-x="325" 
d="M60 100v600h240v-75h-160v-525h-80z" />
    <glyph glyph-name="delta" unicode="&#x3b4;" horiz-adv-x="391" 
d="M235 700l117 -600h-313l116 600h80zM195 527l-67 -352h134z" />
    <glyph glyph-name="epsilon" unicode="&#x3b5;" horiz-adv-x="350" 
d="M60 100v600h240v-75h-160v-268h135v-75h-135v-107h160v-75h-240z" />
    <glyph glyph-name="zeta" unicode="&#x3b6;" 
d="M66 625v75h268v-75l-192 -450h198v-75h-280v75l191 450h-185z" />
    <glyph glyph-name="eta" unicode="&#x3b7;" 
d="M260 100v182h-120v-182h-80v600h80v-343h120v343h80v-600h-80z" />
    <glyph glyph-name="theta" unicode="&#x3b8;" 
d="M60 234v332q0 58 41 99t99 41t99 -41t41 -99v-332q0 -58 -41 -99t-99 -41t-99 41t-41 99zM140 571v-209h120v209q0 25 -17.5 42.5t-42.5 17.5t-42.5 -17.5t-17.5 -42.5zM140 229q0 -25 17.5 -42.5t42.5 -17.5t42.5 17.5t17.5 42.5v58h-120v-58z" />
    <glyph glyph-name="iota" unicode="&#x3b9;" horiz-adv-x="215" 
d="M67 100v600h80v-600h-80z" />
    <glyph glyph-name="kappa" unicode="&#x3ba;" 
d="M60 100v600h80v-243l118 243h88l-120 -247l120 -353h-84l-86 251l-36 -75v-176h-80z" />
    <glyph glyph-name="lambda" unicode="&#x3bb;" horiz-adv-x="391" 
d="M235 700l117 -600h-75l-82 427l-81 -427h-75l116 600h80z" />
    <glyph glyph-name="uni03BC" unicode="&#x3bc;" horiz-adv-x="450" 
d="M310 100v429l-50 -94h-70l-50 93v-428h-80v600h80l85 -168l85 168h80v-600h-80z" />
    <glyph glyph-name="nu" unicode="&#x3bd;" horiz-adv-x="425" 
d="M285 100l-145 388v-388h-80v600h80l145 -391v391h80v-600h-80z" />
    <glyph glyph-name="xi" unicode="&#x3be;" horiz-adv-x="365" 
d="M75 282v75h215v-75h-215zM50 100v75h265v-75h-265zM50 625v75h265v-75h-265z" />
    <glyph glyph-name="omicron" unicode="&#x3bf;" 
d="M60 234v332q0 58 41 99t99 41t99 -41t41 -99v-332q0 -58 -41 -99t-99 -41t-99 41t-41 99zM140 229q0 -25 17.5 -42.5t42.5 -17.5t42.5 17.5t17.5 42.5v342q0 25 -17.5 42.5t-42.5 17.5t-42.5 -17.5t-17.5 -42.5v-342z" />
    <glyph glyph-name="pi" unicode="&#x3c0;" 
d="M260 100v525h-120v-525h-80v600h280v-600h-80z" />
    <glyph glyph-name="rho" unicode="&#x3c1;" 
d="M60 100v600h140q58 0 99 -41t41 -99v-138q0 -58 -41 -99t-99 -41h-60v-182h-80zM140 625v-268h60q25 0 42.5 17.5t17.5 42.5v148q0 25 -17.5 42.5t-42.5 17.5h-60z" />
    <glyph glyph-name="uni03C2" unicode="&#x3c2;" 
d="M334 625h-179l95 -255v-75l-77 -120h167v-75h-280v75l117 161l-111 289v75h268v-75z" />
    <glyph glyph-name="sigma" unicode="&#x3c3;" 
d="M334 625h-179l95 -255v-75l-77 -120h167v-75h-280v75l117 161l-111 289v75h268v-75z" />
    <glyph glyph-name="tau" unicode="&#x3c4;" horiz-adv-x="310" 
d="M30 625v75h250v-75h-85v-525h-80v525h-85z" />
    <glyph glyph-name="upsilon" unicode="&#x3c5;" horiz-adv-x="387" 
d="M153 100v182l-111 418h75l76 -291l76 291h75l-111 -418v-182h-80z" />
    <glyph glyph-name="phi" unicode="&#x3c6;" horiz-adv-x="540" 
d="M230 100v87h-40q-58 0 -99 41t-41 99v145q0 58 41 99t99 41h40v88h80v-88h40q58 0 99 -41t41 -99v-145q0 -58 -41 -99t-99 -41h-40v-87h-80zM310 537v-275h40q25 0 42.5 17.5t17.5 42.5v155q0 25 -17.5 42.5t-42.5 17.5h-40zM230 262v275h-40q-25 0 -42.5 -17.5
t-17.5 -42.5v-155q0 -25 17.5 -42.5t42.5 -17.5h40z" />
    <glyph glyph-name="chi" unicode="&#x3c7;" 
d="M346 700l-101 -300l101 -300h-85l-59 174l-58 -174h-84l100 299l-100 301h84l59 -175l59 175h84z" />
    <glyph glyph-name="psi" unicode="&#x3c8;" horiz-adv-x="525" 
d="M222 100v135q-70 14 -116 69t-46 129v267h80v-272q0 -39 23 -71t59 -44v387h80v-387q36 12 59.5 44t23.5 71v272h80v-267q0 -74 -46.5 -129t-116.5 -69v-135h-80z" />
    <glyph glyph-name="omega" unicode="&#x3c9;" 
d="M200 631q-25 0 -42.5 -17.5t-17.5 -42.5v-192q0 -9 1 -13l39 -191v-75h-120v75h39l-37 190q-2 6 -2 19v182q0 58 41 99t99 41t99 -41t41 -99v-182q0 -7 -2 -19l-37 -190h39v-75h-120v75l38 191q2 8 2 13v192q0 25 -17.5 42.5t-42.5 17.5z" />
    <glyph glyph-name="iotadieresis" unicode="&#x3ca;" horiz-adv-x="215" 
d="M67 100v600h80v-600h-80zM-9 825q0 17 12 29t29 12q16 0 28.5 -12t12.5 -29t-12 -29t-29 -12t-29 12t-12 29zM141 825q0 17 12 29t29 12q16 0 28.5 -12t12.5 -29t-12 -29t-29 -12t-29 12t-12 29z" />
    <glyph glyph-name="upsilondieresis" unicode="&#x3cb;" horiz-adv-x="387" 
d="M153 100v182l-111 418h75l76 -291l76 291h75l-111 -418v-182h-80zM228 825q0 17 12 29t29 12t29 -12t12 -29t-12 -29t-29 -12t-29 12t-12 29zM78 825q0 17 12 29t29 12t29 -12t12 -29t-12 -29t-29 -12t-29 12t-12 29z" />
    <glyph glyph-name="omicrontonos" unicode="&#x3cc;" 
d="M60 234v332q0 58 41 99t99 41t99 -41t41 -99v-332q0 -58 -41 -99t-99 -41t-99 41t-41 99zM140 229q0 -25 17.5 -42.5t42.5 -17.5t42.5 17.5t17.5 42.5v342q0 25 -17.5 42.5t-42.5 17.5t-42.5 -17.5t-17.5 -42.5v-342zM230 762h-60q-8 63 -8 88v75h75v-75z" />
    <glyph glyph-name="upsilontonos" unicode="&#x3cd;" horiz-adv-x="387" 
d="M153 100v182l-111 418h75l76 -291l76 291h75l-111 -418v-182h-80zM223 762h-60q-8 63 -8 88v75h75v-75z" />
    <glyph glyph-name="omegatonos" unicode="&#x3ce;" 
d="M200 631q-25 0 -42.5 -17.5t-17.5 -42.5v-192q0 -9 1 -13l39 -191v-75h-120v75h39l-37 190q-2 6 -2 19v182q0 58 41 99t99 41t99 -41t41 -99v-182q0 -7 -2 -19l-37 -190h39v-75h-120v75l38 191q2 8 2 13v192q0 25 -17.5 42.5t-42.5 17.5zM230 762h-60q-8 63 -8 88v75h75
v-75z" />
    <glyph glyph-name="afii10023" unicode="&#x401;" horiz-adv-x="420" 
d="M60 0v800h310v-75h-230v-413h180v-75h-180v-162h230v-75h-310zM89 925q0 17 12 29t29 12q16 0 28.5 -12t12.5 -29t-12 -29t-29 -12t-29 12t-12 29zM259 925q0 17 12 29t29 12q16 0 28.5 -12t12.5 -29t-12 -29t-29 -12t-29 12t-12 29z" />
    <glyph glyph-name="afii10051" unicode="&#x402;" horiz-adv-x="604" 
d="M30 725v75h350v-75h-136v-204q49 35 110 35q79 0 134.5 -55.5t55.5 -134.5v-176q0 -79 -55.5 -134.5t-134.5 -55.5h-25v75h25q46 0 78 32t32 78v186q0 45 -32 77.5t-78 32.5t-78 -32.5t-32 -77.5v-371h-80v725h-134z" />
    <glyph glyph-name="afii10052" unicode="&#x403;" horiz-adv-x="415" 
d="M60 0v800h330v-75h-250v-725h-80zM146 868l-19 57l169 62l22 -67z" />
    <glyph glyph-name="afii10053" unicode="&#x404;" horiz-adv-x="500" 
d="M140 621v-199h180v-75h-180v-168q0 -46 32 -78t78 -32q45 0 77.5 32t32.5 78v41h80v-36q0 -79 -55.5 -134.5t-134.5 -55.5q-80 0 -135 55t-55 135v432q0 79 55.5 134.5t134.5 55.5t134.5 -55.5t55.5 -134.5v-36h-80v41q0 45 -32.5 77.5t-77.5 32.5q-46 0 -78 -32.5
t-32 -77.5z" />
    <glyph glyph-name="afii10054" unicode="&#x405;" horiz-adv-x="490" 
d="M55 220h80v-41q0 -46 32 -78t78 -32t78 32t32 78v5q0 42 -29 73l-203 221q-62 54 -62 138q0 79 53.5 134.5t130.5 55.5q76 0 130 -55.5t54 -134.5v-36h-80v41q0 45 -30.5 77.5t-73.5 32.5q-44 0 -74 -32.5t-30 -77.5v-5q-1 -40 30 -75l203 -220q61 -56 61 -137
q0 -79 -55.5 -134.5t-134.5 -55.5t-134.5 55.5t-55.5 134.5v36z" />
    <glyph glyph-name="afii10055" unicode="&#x406;" horiz-adv-x="215" 
d="M67 0v800h80v-800h-80z" />
    <glyph glyph-name="afii10056" unicode="&#x407;" horiz-adv-x="215" 
d="M67 0v800h80v-800h-80zM-9 925q0 17 12 29t29 12q16 0 28.5 -12t12.5 -29t-12 -29t-29 -12t-29 12t-12 29zM141 925q0 17 12 29t29 12q16 0 28.5 -12t12.5 -29t-12 -29t-29 -12t-29 12t-12 29z" />
    <glyph glyph-name="afii10057" unicode="&#x408;" horiz-adv-x="200" 
d="M-55 -250v75h55q25 0 42.5 17.5t17.5 42.5v915h80v-910q0 -58 -41 -99t-99 -41h-55z" />
    <glyph glyph-name="afii10058" unicode="&#x409;" horiz-adv-x="742" 
d="M22 0v75h30q25 0 42.5 17.5t17.5 42.5v665h330v-420h60q79 0 134.5 -55.5t55.5 -134.5t-55.5 -134.5t-134.5 -55.5h-140v725h-170v-585q0 -58 -41 -99t-99 -41h-30zM442 305v-230h60q46 0 78 32t32 78v10q0 45 -32 77.5t-78 32.5h-60z" />
    <glyph glyph-name="afii10059" unicode="&#x40a;" horiz-adv-x="690" 
d="M310 0v305h-170v-305h-80v800h80v-420h170v420h80v-420h60q79 0 134.5 -55.5t55.5 -134.5t-55.5 -134.5t-134.5 -55.5h-140zM390 305v-230h60q45 0 77.5 32t32.5 78v10q0 45 -32.5 77.5t-77.5 32.5h-60z" />
    <glyph glyph-name="afii10060" unicode="&#x40b;" horiz-adv-x="604" 
d="M30 725v75h350v-75h-136v-204q49 35 110 35q79 0 134.5 -55.5t55.5 -134.5v-366h-80v371q0 45 -32 77.5t-78 32.5t-78 -32.5t-32 -77.5v-371h-80v725h-134z" />
    <glyph glyph-name="afii10061" unicode="&#x40c;" horiz-adv-x="500" 
d="M60 0v800h80v-395l211 395h90l-176 -329l181 -471h-86l-145 378l-75 -141v-237h-80zM178 868l-19 57l169 62l22 -67z" />
    <glyph glyph-name="afii10062" unicode="&#x40e;" horiz-adv-x="463" 
d="M235 930q27 0 43.5 12.5t16.5 32.5v17h65v-17q0 -49 -31.5 -79.5t-93.5 -30.5t-93.5 30.5t-31.5 79.5v17h65v-17q0 -20 16.5 -32.5t43.5 -12.5zM42 800h82l108 -426l110 426h82l-183 -699q-12 -43 -50.5 -72t-82.5 -29h-64v75h64q18 0 34 12.5t21 30.5l27 99z" />
    <glyph glyph-name="afii10145" unicode="&#x40f;" horiz-adv-x="500" 
d="M210 -150v150h-150v800h80v-725h220v725h80v-800h-150v-150h-80z" />
    <glyph glyph-name="afii10017" unicode="&#x410;" horiz-adv-x="502" 
d="M290 800l173 -800h-81l-29 135h-205l-28 -135h-81l171 800h80zM250 624l-87 -414h174z" />
    <glyph glyph-name="afii10018" unicode="&#x411;" horiz-adv-x="500" 
d="M60 0v800h352v-75h-272v-345h110q79 0 134.5 -55.5t55.5 -134.5t-55.5 -134.5t-134.5 -55.5h-190zM140 305v-230h110q45 0 77.5 32t32.5 78v10q0 45 -32.5 77.5t-77.5 32.5h-110z" />
    <glyph glyph-name="afii10019" unicode="&#x412;" horiz-adv-x="500" 
d="M60 0v800h190q79 0 134.5 -55.5t55.5 -134.5v-115q0 -96 -77 -153q77 -56 77 -152q0 -79 -55.5 -134.5t-134.5 -55.5h-190zM140 725v-345h114q44 2 75 33.5t31 76.5v125q0 45 -32.5 77.5t-77.5 32.5h-110zM140 305v-230h110q45 0 77.5 32t32.5 78v10q0 45 -32.5 77.5
t-77.5 32.5h-110z" />
    <glyph glyph-name="afii10020" unicode="&#x413;" horiz-adv-x="415" 
d="M60 0v800h330v-75h-250v-725h-80z" />
    <glyph glyph-name="afii10021" unicode="&#x414;" horiz-adv-x="620" 
d="M50 75h65l150 725h230v-725h75v-200h-80v125h-360v-125h-80v200zM331 725l-135 -650h219v650h-84z" />
    <glyph glyph-name="afii10022" unicode="&#x415;" horiz-adv-x="420" 
d="M60 0v800h310v-75h-230v-413h180v-75h-180v-162h230v-75h-310z" />
    <glyph glyph-name="afii10024" unicode="&#x416;" horiz-adv-x="800" 
d="M660 0l-145 378l-75 -141v-237h-80v237l-76 142l-145 -379h-85l180 471l-175 329h90l211 -395v395h80v-395l211 395h90l-176 -329l181 -471h-86z" />
    <glyph glyph-name="afii10025" unicode="&#x417;" horiz-adv-x="500" 
d="M360 555v66q0 46 -32 78t-78 32t-78 -32t-32 -78v-41h-80v36q0 79 55.5 134.5t134.5 55.5t134.5 -55.5t55.5 -134.5v-56q0 -96 -77 -153q77 -56 77 -152v-71q0 -79 -55.5 -134.5t-134.5 -55.5t-134.5 55.5t-55.5 134.5v36h80v-41q0 -46 32 -78t78 -32t78 32t32 78v81
q0 45 -32 77.5t-78 32.5h-88v75h92q44 2 75 33.5t31 76.5z" />
    <glyph glyph-name="afii10026" unicode="&#x418;" horiz-adv-x="525" 
d="M140 800v-590l245 590h80v-800h-80v590l-245 -590h-80v800h80z" />
    <glyph glyph-name="afii10027" unicode="&#x419;" horiz-adv-x="525" 
d="M140 800v-590l245 590h80v-800h-80v590l-245 -590h-80v800h80zM262 865v65q27 0 43.5 12.5t16.5 32.5v17h65v-17q0 -49 -31.5 -79.5t-93.5 -30.5zM262 930v-65q-62 0 -93.5 30.5t-31.5 79.5v17h65v-17q0 -20 16.5 -32.5t43.5 -12.5z" />
    <glyph glyph-name="afii10028" unicode="&#x41a;" horiz-adv-x="500" 
d="M60 0v800h80v-395l211 395h90l-176 -329l181 -471h-86l-145 378l-75 -141v-237h-80z" />
    <glyph glyph-name="afii10029" unicode="&#x41b;" horiz-adv-x="552" 
d="M22 0v75h30q25 0 42.5 17.5t17.5 42.5v665h380v-800h-80v725h-220v-585q0 -58 -41 -99t-99 -41h-30z" />
    <glyph glyph-name="afii10030" unicode="&#x41c;" horiz-adv-x="550" 
d="M490 800v-800h-80v643l-95 -161h-80l-95 160v-642h-80v800h80l135 -227l135 227h80z" />
    <glyph glyph-name="afii10031" unicode="&#x41d;" horiz-adv-x="500" 
d="M360 0v237h-220v-237h-80v800h80v-488h220v488h80v-800h-80z" />
    <glyph glyph-name="afii10032" unicode="&#x41e;" horiz-adv-x="500" 
d="M60 184v432q0 79 55.5 134.5t134.5 55.5t134.5 -55.5t55.5 -134.5v-432q0 -79 -55.5 -134.5t-134.5 -55.5q-80 0 -135 55t-55 135zM140 179q0 -46 32 -78t78 -32q45 0 77.5 32t32.5 78v442q0 45 -32.5 77.5t-77.5 32.5q-46 0 -78 -32.5t-32 -77.5v-442z" />
    <glyph glyph-name="afii10033" unicode="&#x41f;" horiz-adv-x="500" 
d="M360 0v725h-220v-725h-80v800h380v-800h-80z" />
    <glyph glyph-name="afii10034" unicode="&#x420;" horiz-adv-x="500" 
d="M60 0v800h190q79 0 134.5 -55.5t55.5 -134.5v-183q0 -79 -55.5 -134.5t-134.5 -55.5h-110v-237h-80zM140 725v-413h110q45 0 77.5 32t32.5 78v193q0 45 -32.5 77.5t-77.5 32.5h-110z" />
    <glyph glyph-name="afii10035" unicode="&#x421;" horiz-adv-x="500" 
d="M140 179q0 -46 32 -78t78 -32q45 0 77.5 32t32.5 78v41h80v-36q0 -79 -55.5 -134.5t-134.5 -55.5q-80 0 -135 55t-55 135v432q0 79 55.5 134.5t134.5 55.5t134.5 -55.5t55.5 -134.5v-36h-80v41q0 45 -32.5 77.5t-77.5 32.5q-46 0 -78 -32.5t-32 -77.5v-442z" />
    <glyph glyph-name="afii10036" unicode="&#x422;" horiz-adv-x="410" 
d="M30 725v75h350v-75h-136v-725h-80v725h-134z" />
    <glyph glyph-name="afii10037" unicode="&#x423;" horiz-adv-x="463" 
d="M42 800h82l108 -426l110 426h82l-183 -699q-12 -43 -50.5 -72t-82.5 -29h-64v75h64q18 0 34 12.5t21 30.5l27 99z" />
    <glyph glyph-name="afii10038" unicode="&#x424;" horiz-adv-x="680" 
d="M300 700v100h80v-100h60q79 0 134.5 -55.5t55.5 -134.5v-220q0 -79 -55.5 -134.5t-134.5 -55.5h-60v-100h-80v100h-60q-79 0 -134.5 55.5t-55.5 134.5v220q0 79 55.5 134.5t134.5 55.5h60zM300 175v450h-60q-46 0 -78 -32t-32 -78v-230q0 -46 32 -78t78 -32h60zM380 625
v-450h60q45 0 77.5 32t32.5 78v230q0 46 -32.5 78t-77.5 32h-60z" />
    <glyph glyph-name="afii10039" unicode="&#x425;" horiz-adv-x="500" 
d="M440 800l-148 -392l154 -408h-86l-111 294l-110 -294h-85l153 408l-147 392h85l104 -278l105 278h86z" />
    <glyph glyph-name="afii10040" unicode="&#x426;" horiz-adv-x="575" 
d="M60 0v800h80v-725h220v725h80v-725h100v-200h-80v125h-400z" />
    <glyph glyph-name="afii10041" unicode="&#x427;" horiz-adv-x="500" 
d="M360 0v268q-48 -34 -110 -34q-80 0 -135 55t-55 135v376h80v-381q0 -46 32 -78t78 -32q45 0 77.5 32t32.5 78v381h80v-800h-80z" />
    <glyph glyph-name="afii10042" unicode="&#x428;" horiz-adv-x="650" 
d="M60 0v800h80v-725h145v725h80v-725h145v725h80v-800h-530z" />
    <glyph glyph-name="afii10043" unicode="&#x429;" horiz-adv-x="725" 
d="M60 0v800h80v-725h145v725h80v-725h145v725h80v-725h100v-200h-80v125h-550z" />
    <glyph glyph-name="afii10044" unicode="&#x42a;" horiz-adv-x="542" 
d="M112 0v725h-90v75h170v-420h110q79 0 134.5 -55.5t55.5 -134.5t-55.5 -134.5t-134.5 -55.5h-190zM192 305v-230h110q46 0 78 32t32 78v10q0 45 -32 77.5t-78 32.5h-110z" />
    <glyph glyph-name="afii10045" unicode="&#x42b;" horiz-adv-x="675" 
d="M60 0v800h80v-420h110q79 0 134.5 -55.5t55.5 -134.5t-55.5 -134.5t-134.5 -55.5h-190zM534 0v800h80v-800h-80zM140 305v-230h110q45 0 77.5 32t32.5 78v10q0 45 -32.5 77.5t-77.5 32.5h-110z" />
    <glyph glyph-name="afii10046" unicode="&#x42c;" horiz-adv-x="500" 
d="M60 0v800h80v-420h110q79 0 134.5 -55.5t55.5 -134.5t-55.5 -134.5t-134.5 -55.5h-190zM140 305v-230h110q45 0 77.5 32t32.5 78v10q0 45 -32.5 77.5t-77.5 32.5h-110z" />
    <glyph glyph-name="afii10047" unicode="&#x42d;" horiz-adv-x="500" 
d="M360 179v168h-180v75h180v199q0 45 -32 77.5t-78 32.5q-45 0 -77.5 -32.5t-32.5 -77.5v-41h-80v36q0 79 55.5 134.5t134.5 55.5t134.5 -55.5t55.5 -134.5v-432q0 -80 -55 -135t-135 -55q-79 0 -134.5 55.5t-55.5 134.5v36h80v-41q0 -46 32.5 -78t77.5 -32q46 0 78 32
t32 78z" />
    <glyph glyph-name="afii10048" unicode="&#x42e;" horiz-adv-x="675" 
d="M235 184v53h-95v-237h-80v800h80v-488h95v304q0 79 55.5 134.5t134.5 55.5t134.5 -55.5t55.5 -134.5v-432q0 -79 -55.5 -134.5t-134.5 -55.5t-134.5 55t-55.5 135zM315 179q0 -46 32 -78t78 -32q45 0 77.5 32t32.5 78v442q0 45 -32.5 77.5t-77.5 32.5q-46 0 -78 -32.5
t-32 -77.5v-442z" />
    <glyph glyph-name="afii10049" unicode="&#x42f;" horiz-adv-x="500" 
d="M440 0h-80v237h-110q-46 0 -78 -32t-32 -78v-127h-80v122q0 46 20.5 86t55.5 66q-76 58 -76 153v183q0 79 55.5 134.5t134.5 55.5h190v-800zM360 312v413h-110q-46 0 -78 -32.5t-32 -77.5v-193q0 -46 32 -78t78 -32h110z" />
    <glyph glyph-name="afii10065" unicode="&#x430;" horiz-adv-x="391" 
d="M235 700l117 -600h-75l-22 115h-119l-22 -115h-75l116 600h80zM195 527l-45 -237h90z" />
    <glyph glyph-name="afii10066" unicode="&#x431;" 
d="M60 100v600h252v-75h-172v-245h60q58 0 99 -41t41 -99t-41 -99t-99 -41h-140zM140 305v-130h60q25 0 42.5 17.5t17.5 42.5v10q0 25 -17.5 42.5t-42.5 17.5h-60z" />
    <glyph glyph-name="afii10067" unicode="&#x432;" 
d="M60 100v600h140q58 0 99 -41t41 -99v-115q0 -60 -45 -103q45 -42 45 -102q0 -58 -41 -99t-99 -41h-140zM140 625v-245h65q23 2 39 19t16 41v125q0 25 -17.5 42.5t-42.5 17.5h-60zM140 305v-130h60q25 0 42.5 17.5t17.5 42.5v10q0 25 -17.5 42.5t-42.5 17.5h-60z" />
    <glyph glyph-name="afii10068" unicode="&#x433;" horiz-adv-x="325" 
d="M60 100v600h240v-75h-160v-525h-80z" />
    <glyph glyph-name="afii10069" unicode="&#x434;" horiz-adv-x="520" 
d="M50 175h65l75 525h205v-525h75v-175h-80v100h-260v-100h-80v175zM315 175v450h-55l-64 -450h119z" />
    <glyph glyph-name="afii10070" unicode="&#x435;" horiz-adv-x="350" 
d="M60 100v600h240v-75h-160v-268h135v-75h-135v-107h160v-75h-240z" />
    <glyph glyph-name="afii10072" unicode="&#x436;" horiz-adv-x="600" 
d="M462 100l-86 251l-36 -75v-176h-80v176l-37 75l-85 -251h-84l120 353l-120 247h88l118 -243v243h80v-243l118 243h88l-120 -247l120 -353h-84z" />
    <glyph glyph-name="afii10073" unicode="&#x437;" 
d="M260 497v74q0 25 -17.5 42.5t-42.5 17.5t-42.5 -17.5t-17.5 -42.5v-46h-80v41q0 58 41 99t99 41t99 -41t41 -99v-64q0 -60 -45 -103q45 -42 45 -102v-63q0 -58 -41 -99t-99 -41t-99 41t-41 99v41h80v-46q0 -25 17.5 -42.5t42.5 -17.5t42.5 17.5t17.5 42.5v73
q0 25 -17.5 42.5t-42.5 17.5h-50v75h55q23 2 39 19t16 41z" />
    <glyph glyph-name="afii10074" unicode="&#x438;" horiz-adv-x="425" 
d="M365 700v-600h-80v388l-145 -388h-80v600h80v-391l145 391h80z" />
    <glyph glyph-name="afii10075" unicode="&#x439;" horiz-adv-x="425" 
d="M365 700v-600h-80v388l-145 -388h-80v600h80v-391l145 391h80zM212 765v65q27 0 43.5 12.5t16.5 32.5v17h65v-17q0 -49 -31.5 -79.5t-93.5 -30.5zM212 830v-65q-62 0 -93.5 30.5t-31.5 79.5v17h65v-17q0 -20 16.5 -32.5t43.5 -12.5z" />
    <glyph glyph-name="afii10076" unicode="&#x43a;" 
d="M60 100v600h80v-243l118 243h88l-120 -247l120 -353h-84l-86 251l-36 -75v-176h-80z" />
    <glyph glyph-name="afii10077" unicode="&#x43b;" horiz-adv-x="425" 
d="M7 100v75h18q25 0 42.5 17.5t17.5 42.5v465h280v-600h-80v525h-120v-385q0 -58 -41 -99t-99 -41h-18z" />
    <glyph glyph-name="afii10078" unicode="&#x43c;" horiz-adv-x="450" 
d="M310 100v429l-50 -94h-70l-50 93v-428h-80v600h80l85 -168l85 168h80v-600h-80z" />
    <glyph glyph-name="afii10079" unicode="&#x43d;" 
d="M260 100v182h-120v-182h-80v600h80v-343h120v343h80v-600h-80z" />
    <glyph glyph-name="afii10080" unicode="&#x43e;" 
d="M60 234v332q0 58 41 99t99 41t99 -41t41 -99v-332q0 -58 -41 -99t-99 -41t-99 41t-41 99zM140 229q0 -25 17.5 -42.5t42.5 -17.5t42.5 17.5t17.5 42.5v342q0 25 -17.5 42.5t-42.5 17.5t-42.5 -17.5t-17.5 -42.5v-342z" />
    <glyph glyph-name="afii10081" unicode="&#x43f;" 
d="M260 100v525h-120v-525h-80v600h280v-600h-80z" />
    <glyph glyph-name="afii10082" unicode="&#x440;" 
d="M60 100v600h140q58 0 99 -41t41 -99v-138q0 -58 -41 -99t-99 -41h-60v-182h-80zM140 625v-268h60q25 0 42.5 17.5t17.5 42.5v148q0 25 -17.5 42.5t-42.5 17.5h-60z" />
    <glyph glyph-name="afii10083" unicode="&#x441;" 
d="M140 229q0 -25 17.5 -42.5t42.5 -17.5t42.5 17.5t17.5 42.5v58h80v-53q0 -58 -41 -99t-99 -41t-99 41t-41 99v332q0 58 41 99t99 41t99 -41t41 -99v-54h-80v59q0 25 -17.5 42.5t-42.5 17.5t-42.5 -17.5t-17.5 -42.5v-342z" />
    <glyph glyph-name="afii10084" unicode="&#x442;" horiz-adv-x="310" 
d="M30 625v75h250v-75h-85v-525h-80v525h-85z" />
    <glyph glyph-name="afii10085" unicode="&#x443;" horiz-adv-x="375" 
d="M41 100v80h62q20 0 24 18l24 89l-109 413h75l76 -291l76 291h75l-140 -522q-8 -32 -38 -55t-63 -23h-62z" />
    <glyph glyph-name="afii10086" unicode="&#x444;" horiz-adv-x="540" 
d="M230 100v87h-40q-58 0 -99 41t-41 99v145q0 58 41 99t99 41h40v88h80v-88h40q58 0 99 -41t41 -99v-145q0 -58 -41 -99t-99 -41h-40v-87h-80zM310 537v-275h40q25 0 42.5 17.5t17.5 42.5v155q0 25 -17.5 42.5t-42.5 17.5h-40zM230 262v275h-40q-25 0 -42.5 -17.5
t-17.5 -42.5v-155q0 -25 17.5 -42.5t42.5 -17.5h40z" />
    <glyph glyph-name="afii10087" unicode="&#x445;" 
d="M346 700l-101 -300l101 -300h-85l-59 174l-58 -174h-84l100 299l-100 301h84l59 -175l59 175h84z" />
    <glyph glyph-name="afii10088" unicode="&#x446;" horiz-adv-x="515" 
d="M60 100v600h80v-525h145v525h80v-525h100v-200h-80v125h-325z" />
    <glyph glyph-name="afii10089" unicode="&#x447;" 
d="M260 100v189q-29 -13 -60 -13q-58 0 -99 41t-41 99v284h80v-289q0 -25 17.5 -42.5t42.5 -17.5t42.5 17.5t17.5 42.5v289h80v-600h-80z" />
    <glyph glyph-name="afii10090" unicode="&#x448;" horiz-adv-x="600" 
d="M60 100v600h80v-525h120v525h80v-525h120v525h80v-600h-480z" />
    <glyph glyph-name="afii10091" unicode="&#x449;" horiz-adv-x="665" 
d="M60 100v600h80v-525h120v525h80v-525h120v525h80v-525h75v-200h-80v125h-475z" />
    <glyph glyph-name="afii10092" unicode="&#x44a;" horiz-adv-x="415" 
d="M7 625v75h158v-320h60q58 0 99 -41t41 -99t-41 -99t-99 -41h-140v525h-78zM165 305v-130h60q25 0 42.5 17.5t17.5 42.5v10q0 25 -17.5 42.5t-42.5 17.5h-60z" />
    <glyph glyph-name="afii10093" unicode="&#x44b;" horiz-adv-x="557" 
d="M60 100v600h80v-320h60q58 0 99 -41t41 -99t-41 -99t-99 -41h-140zM409 100v600h80v-600h-80zM140 305v-130h60q25 0 42.5 17.5t17.5 42.5v10q0 25 -17.5 42.5t-42.5 17.5h-60z" />
    <glyph glyph-name="afii10094" unicode="&#x44c;" horiz-adv-x="390" 
d="M60 100v600h80v-320h60q58 0 99 -41t41 -99t-41 -99t-99 -41h-140zM140 305v-130h60q25 0 42.5 17.5t17.5 42.5v10q0 25 -17.5 42.5t-42.5 17.5h-60z" />
    <glyph glyph-name="afii10095" unicode="&#x44d;" 
d="M125 360v75h135v136q0 25 -17.5 42.5t-42.5 17.5t-42.5 -17.5t-17.5 -42.5v-59h-80v54q0 58 41 99t99 41t99 -41t41 -99v-332q0 -58 -41 -99t-99 -41t-99 41t-41 99v53h80v-58q0 -25 17.5 -42.5t42.5 -17.5t42.5 17.5t17.5 42.5v131h-135z" />
    <glyph glyph-name="afii10096" unicode="&#x44e;" horiz-adv-x="565" 
d="M225 234v48h-85v-182h-80v600h80v-343h85v209q0 58 41 99t99 41t99 -41t41 -99v-332q0 -58 -41 -99t-99 -41t-99 41t-41 99zM305 229q0 -25 17.5 -42.5t42.5 -17.5t42.5 17.5t17.5 42.5v342q0 25 -17.5 42.5t-42.5 17.5t-42.5 -17.5t-17.5 -42.5v-342z" />
    <glyph glyph-name="afii10097" unicode="&#x44f;" 
d="M340 700v-600h-80v182h-65q-23 -2 -39 -19.5t-16 -40.5v-122h-80v117q0 62 45 102q-45 42 -45 103v138q0 58 41 99t99 41h140zM260 357v268h-60q-25 0 -42.5 -17.5t-17.5 -42.5v-148q0 -25 17.5 -42.5t42.5 -17.5h60z" />
    <glyph glyph-name="afii10071" unicode="&#x451;" horiz-adv-x="350" 
d="M60 100v600h240v-75h-160v-268h135v-75h-135v-107h160v-75h-240zM64 825q0 17 12 29t29 12t29 -12t12 -29t-12 -29t-29 -12t-29 12t-12 29zM214 825q0 17 12 29t29 12t29 -12t12 -29t-12 -29t-29 -12t-29 12t-12 29z" />
    <glyph glyph-name="afii10099" unicode="&#x452;" horiz-adv-x="455" 
d="M30 625v75h250v-75h-85v-133q28 14 60 14q58 0 99 -41t41 -99v-126q0 -58 -41 -99t-99 -41h-10v75h10q25 0 42.5 17.5t17.5 42.5v136q0 25 -17.5 42.5t-42.5 17.5t-42.5 -17.5t-17.5 -42.5v-271h-80v525h-85z" />
    <glyph glyph-name="afii10100" unicode="&#x453;" horiz-adv-x="325" 
d="M60 100v600h240v-75h-160v-525h-80zM103 768l-19 57l169 62l22 -67z" />
    <glyph glyph-name="afii10101" unicode="&#x454;" 
d="M140 229q0 -25 17.5 -42.5t42.5 -17.5t42.5 17.5t17.5 42.5v58h80v-53q0 -58 -41 -99t-99 -41t-99 41t-41 99v332q0 58 41 99t99 41t99 -41t41 -99v-54h-80v59q0 25 -17.5 42.5t-42.5 17.5t-42.5 -17.5t-17.5 -42.5v-136h135v-75h-135v-131z" />
    <glyph glyph-name="afii10102" unicode="&#x455;" horiz-adv-x="390" 
d="M55 280h80v-51q0 -25 17.5 -42.5t42.5 -17.5t42.5 17.5t17.5 42.5v5q0 18 -9 30l-156 211q-35 38 -35 91q0 58 41 99t99 41t99 -41t41 -99v-46h-80v51q0 25 -17.5 42.5t-42.5 17.5t-42.5 -17.5t-17.5 -42.5v-5q0 -18 10 -33l156 -211q34 -39 34 -88q0 -58 -41 -99
t-99 -41t-99 41t-41 99v46z" />
    <glyph glyph-name="afii10103" unicode="&#x456;" horiz-adv-x="215" 
d="M67 100v600h80v-600h-80z" />
    <glyph glyph-name="afii10104" unicode="&#x457;" horiz-adv-x="215" 
d="M67 100v600h80v-600h-80zM-9 825q0 17 12 29t29 12q16 0 28.5 -12t12.5 -29t-12 -29t-29 -12t-29 12t-12 29zM141 825q0 17 12 29t29 12q16 0 28.5 -12t12.5 -29t-12 -29t-29 -12t-29 12t-12 29z" />
    <glyph glyph-name="afii10105" unicode="&#x458;" horiz-adv-x="200" 
d="M-30 -56v75h30q25 0 42.5 17.5t17.5 42.5v621h80v-616q0 -58 -41 -99t-99 -41h-30z" />
    <glyph glyph-name="afii10106" unicode="&#x459;" horiz-adv-x="625" 
d="M17 100v75h18q25 0 42.5 17.5t17.5 42.5v465h280v-320h60q58 0 99 -41t41 -99t-41 -99t-99 -41h-140v525h-120v-385q0 -58 -41 -99t-99 -41h-18zM375 305v-130h60q25 0 42.5 17.5t17.5 42.5v10q0 25 -17.5 42.5t-42.5 17.5h-60z" />
    <glyph glyph-name="afii10107" unicode="&#x45a;" horiz-adv-x="590" 
d="M260 100v205h-120v-205h-80v600h80v-320h120v320h80v-320h60q58 0 99 -41t41 -99t-41 -99t-99 -41h-140zM340 305v-130h60q25 0 42.5 17.5t17.5 42.5v10q0 25 -17.5 42.5t-42.5 17.5h-60z" />
    <glyph glyph-name="afii10108" unicode="&#x45b;" horiz-adv-x="455" 
d="M30 625v75h250v-75h-85v-133q28 14 60 14q58 0 99 -41t41 -99v-266h-80v271q0 25 -17.5 42.5t-42.5 17.5q-24 0 -41 -16t-19 -39v-276h-80v525h-85z" />
    <glyph glyph-name="afii10109" unicode="&#x45c;" 
d="M60 100v600h80v-243l118 243h88l-120 -247l120 -353h-84l-86 251l-36 -75v-176h-80zM123 768l-19 57l169 62l22 -67z" />
    <glyph glyph-name="afii10110" unicode="&#x45e;" horiz-adv-x="375" 
d="M193 830q27 0 43.5 12.5t16.5 32.5v17h65v-17q0 -49 -31.5 -79.5t-93.5 -30.5t-93.5 30.5t-31.5 79.5v17h65v-17q0 -20 16.5 -32.5t43.5 -12.5zM41 100v80h62q20 0 24 18l24 89l-109 413h75l76 -291l76 291h75l-140 -522q-8 -32 -38 -55t-63 -23h-62z" />
    <glyph glyph-name="afii10193" unicode="&#x45f;" 
d="M160 0v100h-100v600h80v-525h120v525h80v-600h-100v-100h-80z" />
    <glyph glyph-name="afii10146" unicode="&#x462;" horiz-adv-x="604" 
d="M30 725v75h350v-75h-136v-345h110q79 0 134.5 -55.5t55.5 -134.5t-55.5 -134.5t-134.5 -55.5h-190v725h-134zM244 305v-230h110q46 0 78 32t32 78v10q0 45 -32 77.5t-78 32.5h-110z" />
    <glyph glyph-name="afii10194" unicode="&#x463;" horiz-adv-x="445" 
d="M30 625v75h250v-75h-85v-245h60q58 0 99 -41t41 -99t-41 -99t-99 -41h-140v525h-85zM195 305v-130h60q25 0 42.5 17.5t17.5 42.5v10q0 25 -17.5 42.5t-42.5 17.5h-60z" />
    <glyph glyph-name="afii10147" unicode="&#x472;" horiz-adv-x="500" 
d="M60 184v432q0 79 55.5 134.5t134.5 55.5t134.5 -55.5t55.5 -134.5v-432q0 -79 -55.5 -134.5t-134.5 -55.5q-80 0 -135 55t-55 135zM334 292q1 0 3.5 -0.5t4.5 -0.5q8 0 14 3l4 2v325q0 45 -32.5 77.5t-77.5 32.5q-46 0 -78 -32.5t-32 -77.5v-290q7 1 20 1q16 0 22 -2z
M140 179q0 -46 32 -78t78 -32q45 0 77.5 32t32.5 78v40q-8 -2 -23 -2q-14 0 -20 2l-151 38q-2 1 -8 1q-8 0 -14 -3l-4 -2v-74z" />
    <glyph glyph-name="afii10195" unicode="&#x473;" 
d="M60 234v332q0 58 41 99t99 41t99 -41t41 -99v-332q0 -58 -41 -99t-99 -41t-99 41t-41 99zM244 344q1 -1 5 -1q5 0 7 1l4 2v225q0 25 -17.5 42.5t-42.5 17.5t-42.5 -17.5t-17.5 -42.5v-191h9q21 0 39 -8zM140 229q0 -25 17.5 -42.5t42.5 -17.5t42.5 17.5t17.5 42.5v40
q-4 -1 -11 -1q-23 0 -38 9l-56 28l-1 1h-3q-4 0 -8 -2l-3 -2v-73z" />
    <glyph glyph-name="afii10148" unicode="&#x474;" horiz-adv-x="482" 
d="M201 0l-162 800h81l121 -590l121 590h81l-162 -800h-80z" />
    <glyph glyph-name="afii10196" unicode="&#x475;" horiz-adv-x="391" 
d="M155 100l-116 600h75l81 -427l82 427h75l-117 -600h-80z" />
    <glyph glyph-name="afii10050" unicode="&#x490;" horiz-adv-x="415" 
d="M310 800v125h80v-200h-250v-725h-80v800h250z" />
    <glyph glyph-name="afii10098" unicode="&#x491;" horiz-adv-x="325" 
d="M220 700v100h80v-175h-160v-525h-80v600h160z" />
    <glyph glyph-name="afii10846" unicode="&#x4d9;" 
d="M260 571q0 25 -17.5 42.5t-42.5 17.5t-42.5 -17.5t-17.5 -42.5v-59h-80v54q0 58 41 99t99 41t99 -41t41 -99v-332q0 -58 -41 -99t-99 -41t-99 41t-41 99v161h200v176zM200 169q25 0 42.5 17.5t17.5 42.5v91h-120v-91q0 -25 17.5 -42.5t42.5 -17.5z" />
    <glyph glyph-name="Wgrave" unicode="&#x1e80;" horiz-adv-x="550" 
d="M60 0v800h80v-643l95 160h80l95 -161v644h80v-800h-80l-135 227l-135 -227h-80zM345 925l-19 -57l-172 52l22 67z" />
    <glyph glyph-name="wgrave" unicode="&#x1e81;" horiz-adv-x="450" 
d="M140 700v-429l50 94h70l50 -95v430h80v-600h-80l-85 167l-85 -167h-80v600h80zM295 825l-19 -57l-172 52l36 67z" />
    <glyph glyph-name="Wacute" unicode="&#x1e82;" horiz-adv-x="550" 
d="M60 0v800h80v-643l95 160h80l95 -161v644h80v-800h-80l-135 227l-135 -227h-80zM223 868l-19 57l169 62l22 -67z" />
    <glyph glyph-name="wacute" unicode="&#x1e83;" horiz-adv-x="450" 
d="M140 700v-429l50 94h70l50 -95v430h80v-600h-80l-85 167l-85 -167h-80v600h80zM173 768l-19 57l169 62l22 -67z" />
    <glyph glyph-name="Wdieresis" unicode="&#x1e84;" horiz-adv-x="550" 
d="M60 0v800h80v-643l95 160h80l95 -161v644h80v-800h-80l-135 227l-135 -227h-80zM319 925q0 17 12 29t29 12q16 0 28.5 -12t12.5 -29t-12 -29t-29 -12t-29 12t-12 29zM149 925q0 17 12 29t29 12q16 0 28.5 -12t12.5 -29t-12 -29t-29 -12t-29 12t-12 29z" />
    <glyph glyph-name="wdieresis" unicode="&#x1e85;" horiz-adv-x="450" 
d="M140 700v-429l50 94h70l50 -95v430h80v-600h-80l-85 167l-85 -167h-80v600h80zM109 825q0 17 12 29t29 12q16 0 28.5 -12t12.5 -29t-12 -29t-29 -12t-29 12t-12 29zM259 825q0 17 12 29t29 12q16 0 28.5 -12t12.5 -29t-12 -29t-29 -12t-29 12t-12 29z" />
    <glyph glyph-name="Ygrave" unicode="&#x1ef2;" horiz-adv-x="470" 
d="M195 0v237l-156 563h83l113 -421l113 421h83l-156 -563v-237h-80zM291 925l-19 -57l-172 52l22 67z" />
    <glyph glyph-name="ygrave" unicode="&#x1ef3;" horiz-adv-x="387" 
d="M153 100v182l-111 418h75l76 -291l76 291h75l-111 -418v-182h-80zM249 825l-19 -57l-172 52l22 67z" />
    <glyph glyph-name="figuredash" unicode="&#x2012;" horiz-adv-x="350" 
d="M30 305v110h215v35h75v-110h-215v-35h-75z" />
    <glyph glyph-name="endash" unicode="&#x2013;" horiz-adv-x="350" 
d="M30 340v75h290v-75h-290z" />
    <glyph glyph-name="emdash" unicode="&#x2014;" horiz-adv-x="550" 
d="M30 340v75h490v-75h-490z" />
    <glyph glyph-name="quoteleft" unicode="&#x2018;" horiz-adv-x="200" 
d="M140 532h-80v60q0 22 6 49t12 43l7 16h55v-168z" />
    <glyph glyph-name="quoteright" unicode="&#x2019;" horiz-adv-x="200" 
d="M60 700h80v-60q0 -22 -6 -49t-12 -43l-7 -16h-55v168z" />
    <glyph glyph-name="quotesinglbase" unicode="&#x201a;" horiz-adv-x="200" 
d="M60 267h80v-60q0 -22 -6 -49t-12 -42l-7 -16h-55v167z" />
    <glyph glyph-name="quotedblleft" unicode="&#x201c;" horiz-adv-x="375" 
d="M315 532h-80v60q0 22 6.5 49t12.5 43l6 16h55v-168zM140 532h-80v60q0 22 6 49t12 43l7 16h55v-168z" />
    <glyph glyph-name="quotedblright" unicode="&#x201d;" horiz-adv-x="375" 
d="M60 700h80v-60q0 -22 -6 -49t-12 -43l-7 -16h-55v168zM235 700h80v-60q0 -22 -6.5 -49t-12.5 -43l-6 -16h-55v168z" />
    <glyph glyph-name="quotedblbase" unicode="&#x201e;" horiz-adv-x="375" 
d="M60 267h80v-60q0 -22 -6 -49t-12 -42l-7 -16h-55v167zM235 267h80v-60q0 -22 -6.5 -49t-12.5 -42l-6 -16h-55v167z" />
    <glyph glyph-name="dagger" unicode="&#x2020;" horiz-adv-x="330" 
d="M30 575v75h92v125h80v-125h98v-75h-98v-575h-80v575h-92z" />
    <glyph glyph-name="daggerdbl" unicode="&#x2021;" horiz-adv-x="330" 
d="M30 575v75h92v125h80v-125h98v-75h-98v-350h98v-75h-98v-150h-80v150h-92v75h92v350h-92z" />
    <glyph glyph-name="bullet" unicode="&#x2022;" horiz-adv-x="212" 
d="M60 379q0 20 13.5 33.5t32.5 13.5t32.5 -13.5t13.5 -33.5q0 -19 -13 -32.5t-33 -13.5t-33 13.5t-13 32.5z" />
    <glyph glyph-name="ellipsis" unicode="&#x2026;" horiz-adv-x="610" 
d="M54 141q0 19 13.5 32.5t32.5 13.5t32.5 -13.5t13.5 -32.5t-13.5 -32.5t-32.5 -13.5q-20 0 -33 13.5t-13 32.5zM249 141q0 19 13.5 32.5t32.5 13.5t32.5 -13.5t13.5 -32.5t-13.5 -32.5t-32.5 -13.5t-32.5 13.5t-13.5 32.5zM444 141q0 19 13.5 32.5t32.5 13.5t32.5 -13.5
t13.5 -32.5t-13.5 -32.5t-32.5 -13.5q-20 0 -33 13.5t-13 32.5z" />
    <glyph glyph-name="perthousand" unicode="&#x2030;" horiz-adv-x="1067" 
d="M60 484v82q0 58 41 99t99 41t99 -41t41 -99v-82q0 -58 -41 -99t-99 -41t-99 41t-41 99zM140 479q0 -25 17.5 -42.5t42.5 -17.5t42.5 17.5t17.5 42.5v92q0 25 -17.5 42.5t-42.5 17.5t-42.5 -17.5t-17.5 -42.5v-92zM420 184v82q0 58 41 99t99 41t99 -41t41 -99v-82
q0 -58 -41 -99t-99 -41t-99 41t-41 99zM500 179q0 -25 17.5 -42.5t42.5 -17.5t42.5 17.5t17.5 42.5v92q0 25 -17.5 42.5t-42.5 17.5t-42.5 -17.5t-17.5 -42.5v-92zM257 44l-71 36l313 626l71 -36zM727 184v82q0 58 41 99t99 41t99 -41t41 -99v-82q0 -58 -41 -99t-99 -41
t-99 41t-41 99zM807 179q0 -25 17.5 -42.5t42.5 -17.5t42.5 17.5t17.5 42.5v92q0 25 -17.5 42.5t-42.5 17.5t-42.5 -17.5t-17.5 -42.5v-92z" />
    <glyph glyph-name="guilsinglleft" unicode="&#x2039;" horiz-adv-x="356" 
d="M244 706l67 -44l-175 -262l175 -263l-67 -44l-204 307z" />
    <glyph glyph-name="guilsinglright" unicode="&#x203a;" horiz-adv-x="356" 
d="M40 662l67 44l204 -306l-204 -307l-67 44l175 263z" />
    <glyph glyph-name="exclamdbl" unicode="&#x203c;" horiz-adv-x="375" 
d="M54 141q0 19 13.5 32.5t32.5 13.5t32.5 -13.5t13.5 -32.5t-13.5 -32.5t-32.5 -13.5q-20 0 -33 13.5t-13 32.5zM60 475v225h80v-225l-13 -225h-55q-12 175 -12 225zM229 141q0 19 13.5 32.5t32.5 13.5t32.5 -13.5t13.5 -32.5t-13.5 -32.5t-32.5 -13.5t-32.5 13.5
t-13.5 32.5zM235 475v225h80v-225l-13 -225h-55q-12 175 -12 225z" />
    <glyph glyph-name="fraction" unicode="&#x2044;" horiz-adv-x="581" 
d="M126 -18l-71 36l400 800l71 -36z" />
    <glyph glyph-name="colonmonetary" unicode="&#x20a1;" horiz-adv-x="725" 
d="M98 -18l-71 36l97 193q-65 82 -65 189q0 127 89.5 216.5t216.5 89.5h6l56 112l71 -36l-45 -89q45 -14 89 -45l85 170l71 -36l-306 -612q78 9 134 65l53 -53q-88 -88 -214 -88h-11l-56 -112l-71 36l45 90q-46 14 -88 45zM508 580q-40 32 -89 44l-200 -401q35 -32 87 -46z
M139 400q0 -56 25 -108l168 336q-84 -12 -138.5 -77t-54.5 -151z" />
    <glyph glyph-name="franc" unicode="&#x20a3;" horiz-adv-x="325" 
d="M3 155v75h57v470h240v-75h-160v-243h135v-75h-135v-77h53v-75h-53v-55h-80v55h-57z" />
    <glyph glyph-name="lira" unicode="&#x20a4;" horiz-adv-x="391" 
d="M26 445v75h54v40q0 58 41 99t99 41h140v-75h-140q-25 0 -42.5 -17.5t-17.5 -42.5v-45h135v-75h-135v-85h135v-75h-135v-110h206v-75h-346v75h60v110h-54v75h54v85h-54z" />
    <glyph glyph-name="Euro" unicode="&#x20ac;" horiz-adv-x="629" 
d="M20 447v75h64q36 82 112 133t169 51q125 0 214 -89l-53 -53q-67 67 -161 67q-61 0 -112 -29.5t-81 -79.5h263v-75h-291q-5 -27 -5 -47q0 -24 4 -43h227v-75h-200q29 -52 80.5 -82.5t114.5 -30.5q95 0 161 66l53 -53q-88 -88 -214 -88q-94 0 -171 52t-112 136h-62v75h42
q-3 21 -3 43q0 23 3 47h-42z" />
    <glyph glyph-name="afii61352" unicode="&#x2116;" horiz-adv-x="925" 
d="M385 0l-245 590v-590h-80v800h80l245 -590v590h80v-800h-80zM585 566q0 58 41 99t99 41t99 -41t41 -99t-41 -99t-99 -41t-99 41t-41 99zM665 561q0 -25 17.5 -42.5t42.5 -17.5t42.5 17.5t17.5 42.5v10q0 25 -17.5 42.5t-42.5 17.5t-42.5 -17.5t-17.5 -42.5v-10z" />
    <glyph glyph-name="trademark" unicode="&#x2122;" horiz-adv-x="659" 
d="M519 320v307l-25 -47h-69l-26 48v-308h-80v480h80l60 -123l60 123h80v-480h-80zM30 725v75h211v-75h-65v-405h-80v405h-66z" />
    <glyph glyph-name="estimated" unicode="&#x212e;" horiz-adv-x="500" 
d="M140 279q0 -46 32 -78t78 -32q45 0 77.5 32t32.5 78v21h80v-16q0 -79 -55.5 -134.5t-134.5 -55.5q-80 0 -135 55t-55 135v232q0 79 55.5 134.5t134.5 55.5t134.5 -55.5t55.5 -134.5v-156h-300v-81zM140 521v-81h220v81q0 45 -32.5 77.5t-77.5 32.5q-46 0 -78 -32.5
t-32 -77.5z" />
    <glyph glyph-name="product" unicode="&#x220f;" horiz-adv-x="500" 
d="M360 0v725h-220v-725h-80v800h380v-800h-80z" />
    <glyph glyph-name="summation" unicode="&#x2211;" horiz-adv-x="480" 
d="M60 0v75l154 205l-148 445v75h358v-75h-274l137 -413v-75l-127 -162h270v-75h-370z" />
    <glyph glyph-name="minus" unicode="&#x2212;" horiz-adv-x="460" 
d="M30 340v75h400v-75h-400z" />
    <glyph glyph-name="uni2215" unicode="&#x2215;" horiz-adv-x="581" 
d="M126 -18l-71 36l400 800l71 -36z" />
    <glyph glyph-name="infinity" unicode="&#x221e;" horiz-adv-x="770" 
d="M385 447l72 64q42 45 103 45q64 0 110 -46t46 -110t-46 -110t-110 -46q-63 0 -103 45l-72 63l-72 -63q-40 -45 -103 -45q-64 0 -110 46t-46 110t46 110t110 46q61 0 103 -45zM636 400q0 32 -22 54t-54 22q-41 0 -62 -33l-33 -43l33 -43q21 -33 62 -33q32 0 54 22t22 54z
M134 400q0 -32 22 -54t54 -22q37 0 62 33l33 43l-33 43q-26 33 -62 33q-32 0 -54 -22t-22 -54z" />
    <glyph glyph-name="integral" unicode="&#x222b;" horiz-adv-x="590" 
d="M535 700h-80v55q0 25 -17.5 42.5t-42.5 17.5t-42.5 -17.5t-17.5 -42.5v-705q0 -58 -41 -99t-99 -41t-99 41t-41 99v50h80v-55q0 -25 17.5 -42.5t42.5 -17.5t42.5 17.5t17.5 42.5v705q0 58 41 99t99 41t99 -41t41 -99v-50z" />
    <glyph glyph-name="zero.onum" 
d="M60 234v332q0 58 41 99t99 41t99 -41t41 -99v-332q0 -58 -41 -99t-99 -41t-99 41t-41 99zM140 229q0 -25 17.5 -42.5t42.5 -17.5t42.5 17.5t17.5 42.5v342q0 25 -17.5 42.5t-42.5 17.5t-42.5 -17.5t-17.5 -42.5v-342z" />
    <glyph glyph-name="one.onum" horiz-adv-x="300" 
d="M150 100v525h-110v75h190v-600h-80z" />
    <glyph glyph-name="two.onum" 
d="M60 100v75l193 360q7 12 7 26v10q0 25 -17.5 42.5t-42.5 17.5t-42.5 -17.5t-17.5 -42.5v-51h-80v46q0 58 41 99t99 41t99 -41t41 -99q0 -39 -23 -75l-171 -316h194v-75h-280z" />
    <glyph glyph-name="three.onum" 
d="M61 625v75h273v-75l-98 -118q45 -12 74.5 -49.5t29.5 -85.5v-138q0 -58 -41 -99t-99 -41t-99 41t-41 99v53h80v-58q0 -25 17.5 -42.5t42.5 -17.5t42.5 17.5t17.5 42.5v148q0 25 -17.5 42.5t-42.5 17.5h-63v75l93 113h-169z" />
    <glyph glyph-name="four.onum" horiz-adv-x="375" 
d="M35 282v75l200 343h80v-600h-80v182h-200zM127 357h108v184z" />
    <glyph glyph-name="five.onum" 
d="M260 229v148q0 25 -17.5 42.5t-42.5 17.5h-134v263h268v-75h-188v-113h54q58 0 99 -41t41 -99v-138q0 -58 -41 -99t-99 -41t-99 41t-41 99v53h80v-58q0 -25 17.5 -42.5t42.5 -17.5t42.5 17.5t17.5 42.5z" />
    <glyph glyph-name="six.onum" 
d="M140 571v-73q28 14 60 14q58 0 99 -41t41 -99v-138q0 -58 -41 -99t-99 -41t-99 41t-41 99v332q0 58 41 99t99 41t99 -41t41 -99v-36h-80v41q0 25 -17.5 42.5t-42.5 17.5t-42.5 -17.5t-17.5 -42.5zM140 229q0 -25 17.5 -42.5t42.5 -17.5t42.5 17.5t17.5 42.5v148
q0 25 -17.5 42.5t-42.5 17.5q-24 0 -41 -16t-19 -39v-153z" />
    <glyph glyph-name="seven.onum" horiz-adv-x="342" 
d="M17 625v75h270v-75l-122 -525h-83l123 525h-188z" />
    <glyph glyph-name="eight.onum" horiz-adv-x="390" 
d="M195 94q-58 0 -99 41t-41 99q0 50 33 88l57 78l-55 75q-35 38 -35 91q0 58 41 99t99 41t99 -41t41 -99q0 -52 -36 -91l-56 -75l58 -78q34 -39 34 -88q0 -58 -41 -99t-99 -41zM135 566q0 -18 10 -33l49 -67l50 67q11 14 11 33v5q0 25 -17.5 42.5t-42.5 17.5t-42.5 -17.5
t-17.5 -42.5v-5zM195 169q25 0 42.5 17.5t17.5 42.5v5q0 18 -9 30l-52 69l-51 -69q-8 -13 -8 -30v-5q0 -25 17.5 -42.5t42.5 -17.5z" />
    <glyph glyph-name="nine.onum" 
d="M200 169q25 0 42.5 17.5t17.5 42.5v72q-29 -13 -60 -13q-58 0 -99 41t-41 99v138q0 58 41 99t99 41t99 -41t41 -99v-332q0 -58 -41 -99t-99 -41t-99 41t-41 99v36h80v-41q0 -25 17.5 -42.5t42.5 -17.5zM140 571v-148q0 -25 17.5 -42.5t42.5 -17.5t42.5 17.5t17.5 42.5
v148q0 25 -17.5 42.5t-42.5 17.5t-42.5 -17.5t-17.5 -42.5z" />
    <glyph glyph-name="zero.lnum" horiz-adv-x="500" 
d="M60 184v432q0 79 55.5 134.5t134.5 55.5t134.5 -55.5t55.5 -134.5v-432q0 -79 -55.5 -134.5t-134.5 -55.5q-80 0 -135 55t-55 135zM140 179q0 -46 32 -78t78 -32q45 0 77.5 32t32.5 78v442q0 45 -32.5 77.5t-77.5 32.5q-46 0 -78 -32.5t-32 -77.5v-442z" />
    <glyph glyph-name="one.lnum" horiz-adv-x="315" 
d="M165 0v725h-125v75h205v-800h-80z" />
    <glyph glyph-name="two.lnum" horiz-adv-x="500" 
d="M60 0v75l285 481q15 27 15 55v10q0 45 -32 77.5t-78 32.5t-78 -32.5t-32 -77.5v-41h-80v36q0 79 55.5 134.5t134.5 55.5t134.5 -55.5t55.5 -134.5q0 -58 -32 -104l-259 -437h291v-75h-380z" />
    <glyph glyph-name="three.lnum" horiz-adv-x="500" 
d="M360 555v66q0 46 -32 78t-78 32t-78 -32t-32 -78v-41h-80v36q0 79 55.5 134.5t134.5 55.5t134.5 -55.5t55.5 -134.5v-56q0 -96 -77 -153q77 -56 77 -152v-71q0 -79 -55.5 -134.5t-134.5 -55.5t-134.5 55.5t-55.5 134.5v36h80v-41q0 -46 32 -78t78 -32t78 32t32 78v81
q0 45 -32 77.5t-78 32.5h-88v75h92q44 2 75 33.5t31 76.5z" />
    <glyph glyph-name="four.lnum" horiz-adv-x="485" 
d="M60 310l120 490h82l-120 -490h203v490h80v-800h-80v235h-285v75z" />
    <glyph glyph-name="five.lnum" horiz-adv-x="500" 
d="M360 179v121q0 45 -32 77.5t-78 32.5h-184v390h358v-75h-278v-240h104q79 0 134.5 -55.5t55.5 -134.5v-111q0 -79 -55.5 -134.5t-134.5 -55.5t-134.5 55.5t-55.5 134.5v36h80v-41q0 -46 32 -78t78 -32t78 32t32 78z" />
    <glyph glyph-name="six.lnum" horiz-adv-x="500" 
d="M250 490q79 0 134.5 -55.5t55.5 -134.5v-116q0 -79 -55.5 -134.5t-134.5 -55.5q-80 0 -135 55t-55 135v432q0 79 55.5 134.5t134.5 55.5t134.5 -55.5t55.5 -134.5v-36h-80v41q0 45 -32.5 77.5t-77.5 32.5q-46 0 -78 -32.5t-32 -77.5v-166q49 35 110 35zM140 179
q0 -46 32 -78t78 -32q45 0 77.5 32t32.5 78v126q0 45 -32.5 77.5t-77.5 32.5q-46 0 -78 -32.5t-32 -77.5v-126z" />
    <glyph glyph-name="seven.lnum" horiz-adv-x="450" 
d="M20 725v75h360v-75l-178 -725h-82l177 725h-277z" />
    <glyph glyph-name="eight.lnum" horiz-adv-x="500" 
d="M60 184v73q0 97 76 152q-76 57 -76 153v54q0 79 55.5 134.5t134.5 55.5t134.5 -55.5t55.5 -134.5v-54q0 -96 -77 -153q77 -56 77 -152v-73q0 -79 -55.5 -134.5t-134.5 -55.5q-80 0 -135 55t-55 135zM140 179q0 -46 32 -78t78 -32q45 0 77.5 32t32.5 78v83q0 44 -31 76
t-75 34h-4q-46 0 -78 -32t-32 -78v-83zM140 557q0 -46 32 -78t78 -32h4q44 2 75 33.5t31 76.5v64q0 45 -32.5 77.5t-77.5 32.5q-46 0 -78 -32.5t-32 -77.5v-64z" />
    <glyph glyph-name="nine.lnum" horiz-adv-x="500" 
d="M360 179v166q-49 -35 -110 -35q-79 0 -134.5 55.5t-55.5 134.5v116q0 79 55.5 134.5t134.5 55.5t134.5 -55.5t55.5 -134.5v-432q0 -79 -55.5 -134.5t-134.5 -55.5t-134.5 55.5t-55.5 134.5v36h80v-41q0 -46 32 -78t78 -32t78 32t32 78zM250 385q44 0 76 30.5t34 74.5v131
q0 46 -32 78t-78 32t-78 -32t-32 -78v-126q0 -46 32 -78t78 -32z" />
    <glyph glyph-name="zero.tnum" 
d="M60 234v332q0 58 41 99t99 41t99 -41t41 -99v-332q0 -58 -41 -99t-99 -41t-99 41t-41 99zM140 229q0 -25 17.5 -42.5t42.5 -17.5t42.5 17.5t17.5 42.5v342q0 25 -17.5 42.5t-42.5 17.5t-42.5 -17.5t-17.5 -42.5v-342z" />
    <glyph glyph-name="one.tnum" horiz-adv-x="300" 
d="M150 100v525h-110v75h190v-600h-80z" />
    <glyph glyph-name="two.tnum" 
d="M60 100v75l193 360q7 12 7 26v10q0 25 -17.5 42.5t-42.5 17.5t-42.5 -17.5t-17.5 -42.5v-51h-80v46q0 58 41 99t99 41t99 -41t41 -99q0 -39 -23 -75l-171 -316h194v-75h-280z" />
    <glyph glyph-name="three.tnum" 
d="M260 497v74q0 25 -17.5 42.5t-42.5 17.5t-42.5 -17.5t-17.5 -42.5v-46h-80v41q0 58 41 99t99 41t99 -41t41 -99v-64q0 -60 -45 -103q45 -42 45 -102v-63q0 -58 -41 -99t-99 -41t-99 41t-41 99v41h80v-46q0 -25 17.5 -42.5t42.5 -17.5t42.5 17.5t17.5 42.5v73
q0 25 -17.5 42.5t-42.5 17.5h-50v75h55q23 2 39 19t16 41z" />
    <glyph glyph-name="four.tnum" horiz-adv-x="375" 
d="M35 282v75l61 343h81l-62 -343h120v343h80v-600h-80v182h-200z" />
    <glyph glyph-name="five.tnum" 
d="M260 229v106q0 25 -17.5 42.5t-42.5 17.5h-134v305h268v-75h-188v-155h54q58 0 99 -41t41 -99v-96q0 -58 -41 -99t-99 -41t-99 41t-41 99v41h80v-46q0 -25 17.5 -42.5t42.5 -17.5t42.5 17.5t17.5 42.5z" />
    <glyph glyph-name="six.tnum" 
d="M140 571v-82q28 14 60 14q58 0 99 -41t41 -99v-129q0 -58 -41 -99t-99 -41t-99 41t-41 99v332q0 58 41 99t99 41t99 -41t41 -99v-36h-80v41q0 25 -17.5 42.5t-42.5 17.5t-42.5 -17.5t-17.5 -42.5zM140 229q0 -25 17.5 -42.5t42.5 -17.5t42.5 17.5t17.5 42.5v139
q0 25 -17.5 42.5t-42.5 17.5q-24 0 -41 -16t-19 -39v-144z" />
    <glyph glyph-name="seven.tnum" horiz-adv-x="342" 
d="M17 625v75h270v-75l-122 -525h-83l123 525h-188z" />
    <glyph glyph-name="eight.tnum" 
d="M60 512v54q0 58 41 99t99 41t99 -41t41 -99v-54q0 -60 -45 -103q45 -42 45 -102v-73q0 -58 -41 -99t-99 -41t-99 41t-41 99v73q0 62 45 102q-45 42 -45 103zM140 229q0 -25 17.5 -42.5t42.5 -17.5t42.5 17.5t17.5 42.5v83q0 23 -16 40.5t-39 19.5h-5q-25 0 -42.5 -17.5
t-17.5 -42.5v-83zM140 507q0 -24 16 -41t39 -19h5q25 0 42.5 17.5t17.5 42.5v64q0 25 -17.5 42.5t-42.5 17.5t-42.5 -17.5t-17.5 -42.5v-64z" />
    <glyph glyph-name="nine.tnum" 
d="M200 169q25 0 42.5 17.5t17.5 42.5v81q-29 -13 -60 -13q-58 0 -99 41t-41 99v129q0 58 41 99t99 41t99 -41t41 -99v-332q0 -58 -41 -99t-99 -41t-99 41t-41 99v36h80v-41q0 -25 17.5 -42.5t42.5 -17.5zM140 571v-139q0 -25 17.5 -42.5t42.5 -17.5t42.5 17.5t17.5 42.5
v139q0 25 -17.5 42.5t-42.5 17.5t-42.5 -17.5t-17.5 -42.5z" />
    <glyph glyph-name="Dieresis" 
d="M74 825q0 17 12 29t29 12t29 -12t12 -29t-12 -29t-29 -12t-29 12t-12 29zM244 825q0 17 12 29t29 12t29 -12t12 -29t-12 -29t-29 -12t-29 12t-12 29z" />
    <glyph glyph-name="Ring" horiz-adv-x="330" 
d="M55 825q0 45 32 77.5t78 32.5q45 0 77.5 -32.5t32.5 -77.5q0 -46 -32.5 -78t-77.5 -32q-46 0 -78 32t-32 78zM120 825q0 -19 13 -32t32 -13q18 0 31.5 13t13.5 32q0 18 -13 31.5t-32 13.5t-32 -13.5t-13 -31.5z" />
    <glyph glyph-name="Macron" horiz-adv-x="200" 
d="M-33 790v65h265v-65h-265z" />
    <glyph glyph-name="Breve" horiz-adv-x="330" 
d="M165 765v65q27 0 43.5 12.5t16.5 32.5v17h65v-17q0 -49 -31.5 -79.5t-93.5 -30.5zM165 830v-65q-62 0 -93.5 30.5t-31.5 79.5v17h65v-17q0 -20 16.5 -32.5t43.5 -12.5z" />
    <glyph glyph-name="Dotaccent" horiz-adv-x="215" 
d="M54 825q0 19 13.5 32.5t32.5 13.5t32.5 -13.5t13.5 -32.5t-13.5 -32.5t-32.5 -13.5q-20 0 -33 13.5t-13 32.5z" />
    <glyph glyph-name="ampersandsmall" horiz-adv-x="537" 
d="M60 184q0 97 76 152q-76 57 -76 153v127q0 79 55.5 134.5t134.5 55.5t134.5 -55.5t55.5 -134.5v-36h-80v41q0 45 -32.5 77.5t-77.5 32.5q-46 0 -78 -32.5t-32 -77.5v-137q0 -46 32 -78t78 -32h262v-75h-72v-115q0 -79 -55.5 -134.5t-134.5 -55.5q-80 0 -135 55t-55 135z
M140 179q0 -46 32 -78t78 -32q45 0 77.5 32t32.5 78v120h-110q-46 0 -78 -32.5t-32 -77.5v-10z" />
    <glyph glyph-name="exclamsmall" horiz-adv-x="200" 
d="M54 41q0 19 13.5 32.5t32.5 13.5t32.5 -13.5t13.5 -32.5t-13.5 -32.5t-32.5 -13.5q-20 0 -33 13.5t-13 32.5zM60 475v325h80v-325l-13 -325h-55q-12 275 -12 325z" />
    <glyph glyph-name="exclamdownsmall" horiz-adv-x="200" 
d="M54 759q0 19 13.5 32.5t32.5 13.5t32.5 -13.5t13.5 -32.5t-13.5 -32.5t-32.5 -13.5q-20 0 -33 13.5t-13 32.5zM60 0v325l12 325h55q13 -275 13 -325v-325h-80z" />
    <glyph glyph-name="questionsmall" horiz-adv-x="500" 
d="M140 580h-80v36q0 79 55.5 134.5t134.5 55.5t134.5 -55.5t55.5 -134.5v-66q0 -59 -42 -117l-89 -122q-19 -26 -19 -61v-25l-10 -75h-60q-10 57 -10 75v25q0 28 12.5 62t29.5 55l89 122q19 32 19 61v71q0 46 -32.5 78t-77.5 32q-46 0 -78 -32t-32 -78v-41zM204 41
q0 19 13.5 32.5t32.5 13.5t32.5 -13.5t13.5 -32.5t-13.5 -32.5t-32.5 -13.5q-20 0 -33 13.5t-13 32.5z" />
    <glyph glyph-name="questiondownsmall" horiz-adv-x="500" 
d="M360 221h80v-36q0 -79 -55.5 -134.5t-134.5 -55.5t-134.5 55.5t-55.5 134.5v66q0 28 12.5 62t29.5 55l89 122q19 32 19 61v25l10 75h60q10 -57 10 -75v-25q0 -59 -42 -117l-89 -122q-19 -26 -19 -61v-71q0 -46 32 -78t78 -32t78 32t32 78v41zM296 760q0 -19 -13.5 -32.5
t-32.5 -13.5t-32.5 13.5t-13.5 32.5q0 20 13 33t33 13q19 0 32.5 -13.5t13.5 -32.5z" />
    <glyph glyph-name="Tilde" horiz-adv-x="200" 
d="M-4 789l-9 -5l-27 56l8 5q40 22 88 22q17 0 46.5 -12t45.5 -12q14 0 28 3t21 6t7 4l8 4l27 -56l-8 -4q-39 -22 -85 -22q-18 0 -48.5 12t-46.5 12q-14 0 -27.5 -3t-20.5 -6t-7 -4z" />
    <glyph glyph-name="Hungarumlaut" horiz-adv-x="350" 
d="M95 769l-40 46l78 71l43 -52zM245 769l-40 46l78 71l43 -52z" />
    <glyph glyph-name="Ogonek" horiz-adv-x="200" 
d="M84 119l68 -19l-18 -17q-17 -17 -35 -41t-18 -37q0 -19 19 -19q8 0 14.5 5t9.5 9l2 5l52 -25q-3 -5 -9 -13.5t-25 -22t-39 -13.5q-88 0 -88 78q0 27 16.5 54.5t33.5 41.5z" />
    <glyph glyph-name="Grave" horiz-adv-x="250" 
d="M221 825l-19 -57l-172 52l22 67z" />
    <glyph glyph-name="idotaccent" horiz-adv-x="215" 
d="M67 100v600h80v-600h-80zM61 825q0 19 13.5 32.5t32.5 13.5t32.5 -13.5t13.5 -32.5t-13.5 -32.5t-32.5 -13.5t-32.5 13.5t-13.5 32.5z" />
    </font>
</defs>
</svg>
